<svg xmlns="http://www.w3.org/2000/svg" viewBox="0 0 1018 280"><defs><style>.cls-1{fill:#e1eefe;}.cls-2{fill:#70bef2;}.cls-15,.cls-3{fill:none;}.cls-4{fill:#ffb285;}.cls-5{fill:#02355e;}.cls-21,.cls-6{fill:#fff;}.cls-7{fill:#707372;}.cls-8{fill:#21333a;}.cls-9{fill:#7760db;}.cls-10{fill:#ed8b00;}.cls-11,.cls-18{fill:#eaeaea;}.cls-12{fill:#0a84f2;}.cls-13{fill:#005eb8;}.cls-14{fill:#fbb040;}.cls-15,.cls-18{stroke:#eaeaea;}.cls-15{stroke-linecap:round;stroke-linejoin:round;stroke-width:3px;}.cls-16{isolation:isolate;}.cls-17{fill:#f9d073;}.cls-18,.cls-21{stroke-miterlimit:10;}.cls-18{stroke-width:0.75px;}.cls-19{fill:#0f89db;}.cls-20{fill:#bdddf4;}.cls-21{stroke:#fff;stroke-width:2px;}.cls-22{fill:#f3f3f3;}.cls-23{fill:#f5f7fa;}.cls-24{fill:#656d78;}</style></defs><title>Blockchain-Software-Development-cover</title><g id="design"><circle class="cls-1" cx="964.02" cy="169.08" r="53.98"/><path class="cls-1" d="M416.08,246.51,413.46,241l-3.25.72c-.54-.63-1.17-1.26-1.81-1.9l1.35-3.07-5.06-3.52-2.8,2.44a21.8,21.8,0,0,0-2.26-.72l-.36-3.61-6.05-.54-1.17,3.7A14,14,0,0,0,390,235l-2.35-3.16-5.51,2.62.9,3.79a11,11,0,0,0-1.54,1.35L378,238l-3.52,5.06,2.62,2.8c-.27.72-.54,1.35-.81,2.08l-3.7.45-.54,6.05,3.43,1.08c.09.81.18,1.54.36,2.44l-2.8,2,2.62,5.51,3.16-.81a19.13,19.13,0,0,0,1.81,2.17l-1.17,2.71,5.06,3.52,2.17-2a17.86,17.86,0,0,0,2.8,1.08l.36,2.71,6.05.54.81-2.53c1.08-.09,2.17-.36,3.25-.54l1.54,2,5.51-2.62-.63-2.53a14.47,14.47,0,0,0,2.44-2.26l2.26.9,3.52-5.06-1.81-1.9a13.51,13.51,0,0,0,1-3.07l2.62-.36.54-6.05-2.89-.81a16.57,16.57,0,0,0-.63-2.89ZM402,258.8a8.31,8.31,0,1,1-2.08-11.56A8.21,8.21,0,0,1,402,258.8Z"/><path class="cls-2" d="M384.65,246.61a12.9,12.9,0,1,0,18-3.16A12.89,12.89,0,0,0,384.65,246.61Zm18.88,13.28a10.15,10.15,0,1,1-2.44-14.09A10,10,0,0,1,403.53,259.88Z"/><path class="cls-1" d="M881.84,188l-2.62-5.51-3.25.72c-.54-.63-1.17-1.26-1.81-1.9l1.35-3.07-5.06-3.52-2.8,2.44a21.8,21.8,0,0,0-2.26-.72l-.36-3.61L859,172.3l-1.17,3.7a14,14,0,0,0-2.08.45l-2.35-3.16-5.51,2.62.9,3.79a11,11,0,0,0-1.54,1.35l-3.52-1.54-3.52,5.06,2.62,2.8c-.27.72-.54,1.35-.81,2.08l-3.7.45-.54,6.05L841.2,197c.09.81.18,1.54.36,2.44l-2.8,2,2.62,5.51,3.16-.81a19.13,19.13,0,0,0,1.81,2.17L845.17,211l5.06,3.52,2.17-2a17.86,17.86,0,0,0,2.8,1.08l.36,2.71,6.05.54.81-2.53c1.08-.09,2.17-.36,3.25-.54l1.54,2,5.51-2.62-.63-2.53a14.47,14.47,0,0,0,2.44-2.26l2.26.9,3.52-5.06-1.81-1.9a13.51,13.51,0,0,0,1-3.07l2.62-.36.54-6.05-2.89-.81a16.57,16.57,0,0,0-.63-2.89ZM867.75,200.3a8.31,8.31,0,1,1-2.08-11.56A8.21,8.21,0,0,1,867.75,200.3Z"/><path class="cls-2" d="M850.41,188.11a12.9,12.9,0,1,0,18-3.16A12.89,12.89,0,0,0,850.41,188.11Zm18.88,13.28a10.15,10.15,0,1,1-2.44-14.09A10,10,0,0,1,869.29,201.38Z"/><path class="cls-1" d="M778.08,47.92l-2.62-5.51-3.25.72c-.54-.63-1.17-1.26-1.81-1.9l1.35-3.07-5.06-3.52-2.8,2.44a21.8,21.8,0,0,0-2.26-.72l-.36-3.61-6.05-.54-1.17,3.7a14,14,0,0,0-2.08.45l-2.35-3.16-5.51,2.62.9,3.79A11,11,0,0,0,743.48,41L740,39.43l-3.52,5.06,2.62,2.8c-.27.72-.54,1.35-.81,2.08l-3.7.45L734,55.87,737.43,57c.09.81.18,1.54.36,2.44l-2.8,2,2.62,5.51,3.16-.81a19.13,19.13,0,0,0,1.81,2.17L741.41,71l5.06,3.52,2.17-2a17.86,17.86,0,0,0,2.8,1.08l.36,2.71,6.05.54.81-2.53c1.08-.09,2.17-.36,3.25-.54l1.54,2L769,73.12l-.63-2.53a14.47,14.47,0,0,0,2.44-2.26l2.26.9,3.52-5.06-1.81-1.9a13.51,13.51,0,0,0,1-3.07l2.62-.36.54-6.05L776,52a16.57,16.57,0,0,0-.63-2.89ZM764,60.2a8.31,8.31,0,1,1-2.08-11.56A8.21,8.21,0,0,1,764,60.2Z"/><path class="cls-2" d="M746.64,48a12.9,12.9,0,1,0,18-3.16A12.89,12.89,0,0,0,746.64,48Zm18.88,13.28a10.15,10.15,0,1,1-2.44-14.09A10,10,0,0,1,765.52,61.29Z"/><path class="cls-1" d="M365.58,239.33l-1.35-1.45-1.54,1a5.64,5.64,0,0,0-1.81-.9v-1.9l-2-.18-.27,1.81a6.57,6.57,0,0,0-1.9.54l-1.35-1.35-1.45,1.35,1,1.54a5.64,5.64,0,0,0-.9,1.81h-1.9l-.18,2,1.81.27a6.57,6.57,0,0,0,.54,1.9l-1.35,1.35,1.35,1.45,1.54-1a5.64,5.64,0,0,0,1.81.9v1.9l2,.18.27-1.81a6.57,6.57,0,0,0,1.9-.54l1.35,1.35,1.45-1.35-1-1.54a5.64,5.64,0,0,0,.9-1.81h1.9l.18-2-1.81-.27a6.57,6.57,0,0,0-.54-1.9ZM361,245.2a2.69,2.69,0,1,1,.27-3.79A2.55,2.55,0,0,1,361,245.2Z"/><path class="cls-1" d="M800.24,50.11l-1.35-1.45-1.54,1a5.64,5.64,0,0,0-1.81-.9v-1.9l-2-.18-.27,1.81a6.57,6.57,0,0,0-1.9.54L790,47.67,788.59,49l1,1.54a5.64,5.64,0,0,0-.9,1.81h-1.9l-.18,2,1.81.27a6.57,6.57,0,0,0,.54,1.9l-1.35,1.35L789,59.32l1.54-1a5.64,5.64,0,0,0,1.81.9v1.9l2,.18.27-1.81a6.57,6.57,0,0,0,1.9-.54l1.35,1.35L799.25,59l-1-1.54a5.64,5.64,0,0,0,.9-1.81h1.9l.18-2-1.81-.27a6.57,6.57,0,0,0-.54-1.9ZM795.64,56a2.69,2.69,0,1,1,.27-3.79A2.55,2.55,0,0,1,795.64,56Z"/><path class="cls-1" d="M1005.4,234l-1.35-1.45-1.54,1a5.64,5.64,0,0,0-1.81-.9v-1.9l-2-.18-.27,1.81a6.57,6.57,0,0,0-1.9.54l-1.35-1.35-1.45,1.35,1,1.54a5.64,5.64,0,0,0-.9,1.81h-1.9l-.18,2,1.81.27a6.57,6.57,0,0,0,.54,1.9l-1.35,1.35,1.35,1.45,1.54-1a5.64,5.64,0,0,0,1.81.9V245l2,.18.27-1.81a6.57,6.57,0,0,0,1.9-.54l1.35,1.35,1.45-1.35-1-1.54a5.64,5.64,0,0,0,.9-1.81h1.9l.18-2-1.81-.27a6.57,6.57,0,0,0-.54-1.9Zm-4.61,5.87a2.69,2.69,0,1,1,.27-3.79A2.55,2.55,0,0,1,1000.8,239.87Z"/><polygon class="cls-3" points="183.25 95.02 200.03 124.38 196.47 86.12 183.25 95.02"/><polygon class="cls-3" points="230.24 149.55 230.24 149.55 230.24 149.55 230.24 149.55"/><path class="cls-4" d="M230.55,52l-.27-6.17L229.2,46a9.47,9.47,0,0,1-10.89-7.8l-1.8-10.94h0l-.16-1a3.55,3.55,0,1,0-2.93,4.08h0l1.37,8.3-.58.1-.54.06L214.25,52h16.3Z"/><path class="cls-5" d="M204.54,52h0Z"/><path class="cls-5" d="M269.63,101.23a8.12,8.12,0,0,0-.78-3.46l-.25-.56h0L251.43,59.49h0l-.09-.17c-.11-.23-.23-.46-.36-.68s-.18-.32-.27-.48-.24-.38-.37-.57l-.18-.28-.21-.25c-.07-.08-.12-.18-.2-.27s-.14-.16-.21-.24-.31-.35-.47-.52l-.43-.44c-.17-.16-.34-.31-.51-.46l-.48-.4q-.25-.21-.53-.39t-.53-.35l-.53-.33-.57-.31-.55-.26-.61-.25-.55-.2-.63-.2-.58-.14c-.21-.05-.42-.1-.63-.13l-.6-.1-.64-.07-.61,0h-5.78V65.67l-3.46,13.84L226,98.9l-4.84-19.39-3.58-14.35L216,58.7l-1.69-6.76h-9.73L204,52l-.62,0-.63.08c-.21,0-.41,0-.62.08l-.58.14c-.22.05-.44.1-.66.16l-.5.18c-.23.08-.48.16-.72.25l-.44.2c-.25.11-.5.22-.74.35l-.42.25c-.23.14-.48.27-.7.42l-.08,0c-.16.1-.3.23-.45.34s-.31.22-.46.34l-.07.06c-.15.12-.28.25-.42.38s-.38.33-.55.5h0L165.14,86h0a8.88,8.88,0,0,0-1.42,10.68,9.24,9.24,0,0,0,1,1.41h0L194,131.9l6.94-6-.87-1.53L183.25,95l13.22-8.9,1.22-.83,3.91,41.81,1.15,2,.13.23.35.61,6.36-.91a5.21,5.21,0,1,1,1.47,10.32,5.07,5.07,0,0,1-1.47,0h0l-7.71-1.11-3.3,51.37-4.31,83.21a.33.33,0,0,1,0,.08c0,.19,0,.37,0,.55h11v.35l8.38-89.54,4.2-35.12a23.65,23.65,0,0,0,11.77.51v-.14l.66,40.76v83a1.84,1.84,0,0,0,0,.19h11l3.45-83.6h0l3-61.21c.07-.74.1-1.43.11-2.1v-.13q0-.51,0-1l.16-33.13h.66l3.9,12.53v40.95l9,1.76,7.95-44.72A8.26,8.26,0,0,0,269.63,101.23Zm-21-13.48"/><path class="cls-4" d="M260.27,154l-.52-.05.52.05.51-2.59-8.25-1.61h0v3.45h0v9.11a5.21,5.21,0,1,0,10.38-.65,5.18,5.18,0,0,0-.17-.81h0L260.45,153h0Z"/><polygon class="cls-6" points="252.53 149.77 260.78 151.38 260.27 153.97 259.75 153.92 260.27 153.97 260.45 153.04 260.78 151.38 261.53 147.54 252.53 145.78 252.53 145.78 252.53 149.77"/><path class="cls-7" d="M194.26,273.49h0l-6.31,3.44a1.64,1.64,0,0,0,.78,3.07h16.53v-6.51Z"/><path class="cls-8" d="M214.79,38.63l-1.37-8.3h0a3.55,3.55,0,1,1,2.93-4.08l.16,1h0l1.8,10.94A9.47,9.47,0,0,0,229.2,46l1.08-.18,8.2-1.35a4.74,4.74,0,0,0,3.87-5.67l-1-4.68L241.1,33l-1.21-5.61h0l-15.35,2.53A4,4,0,0,1,220,26.68l-2.3-14a9.93,9.93,0,0,0,7.76,2l10.79-1.78a13,13,0,0,1,1.26,3.43l.64,3a8,8,0,0,0,5.22-8.83h0a8,8,0,0,0-4.19-5.78,7.1,7.1,0,0,0-6.08-5.41,4.72,4.72,0,0,0-1.62,0l-.36.06h0L225.47.3h0l-.58.1a4.72,4.72,0,0,0-3,1.82A4.73,4.73,0,0,0,214,5.44a11.83,11.83,0,0,0-9,13.45l1.41,8.56h0l1.05,6.4a5.92,5.92,0,0,0,6.27,4.94l.54-.06Zm22.93-7.86A3.58,3.58,0,0,1,230.65,32Z"/><polygon class="cls-4" points="241.33 34.06 241.1 32.97 241.34 34.07 241.33 34.06"/><path class="cls-4" d="M237.53,16.35a13,13,0,0,0-1.26-3.43L225.47,14.7a9.93,9.93,0,0,1-7.76-2l2.3,14a4,4,0,0,0,4.53,3.21l15.35-2.53-1.72-8Z"/><path class="cls-7" d="M230.23,273.49V280h16.53a1.64,1.64,0,0,0,.78-3.07l-6.31-3.44h-11Z"/><path class="cls-6" d="M234.77,34.89a3.58,3.58,0,0,0,2.94-4.13L230.65,32A3.58,3.58,0,0,0,234.77,34.89Z"/><polygon class="cls-9" points="202.75 129.13 200.91 125.91 201.6 127.11 202.75 129.13"/><polygon class="cls-6" points="202.88 129.36 202.75 129.13 200.91 125.91 193.97 131.9 193.97 131.9 196.53 134.86 202.88 129.36"/><polygon class="cls-6" points="198.25 136.86 198.25 136.86 199.57 135.92 198.25 136.86"/><polygon class="cls-6" points="215.95 58.7 217.57 65.16 221.15 79.51 225.34 55.06 226.64 55.06 230.83 79.51 234.29 65.67 234.29 51.95 230.55 51.95 214.27 51.95 215.95 58.7"/><polygon class="cls-10" points="226.64 55.06 225.34 55.06 221.15 79.51 225.99 98.9 230.83 79.51 226.64 55.06"/><path class="cls-11" d="M234.36,124l-2.25-2.25-9.28,9.28,2.25,2.25,2.25,2.25,9.28-9.28Z"/><path class="cls-12" d="M290.56,67.82A41.33,41.33,0,1,0,302.68,97,41.22,41.22,0,0,0,290.56,67.82Z"/><path class="cls-6" d="M286.06,72.31A35,35,0,1,0,296.32,97a34.88,34.88,0,0,0-10.26-24.73Z"/><path class="cls-11" d="M281.57,76.81A28.61,28.61,0,1,0,290,97a28.54,28.54,0,0,0-8.39-20.23Z"/><path class="cls-13" d="M227.33,131.05l-6.75-6.75L196.91,148a9.56,9.56,0,0,0,0,13.49h0a9.56,9.56,0,0,0,13.49,0l23.67-23.67Z"/><rect class="cls-14" x="257.17" y="93.11" width="8.33" height="18.52"/><path class="cls-10" d="M264.65,104.56l.86,0v7h-8.33v-7.06A63.16,63.16,0,0,1,264.65,104.56Z"/><rect class="cls-14" x="243.55" y="103.04" width="8.33" height="8.6"/><path class="cls-10" d="M243.55,107.81a30.36,30.36,0,0,1,8.33-2.61v6.43h-8.33Z"/><rect class="cls-14" x="270.79" y="82.45" width="8.33" height="29.19"/><path class="cls-10" d="M279.12,99.87v11.77h-8.33v-7.36A13.27,13.27,0,0,0,279.12,99.87Z"/><path class="cls-4" d="M201.89,138.28l7.71,1.1h0a5.21,5.21,0,1,0,0-10.31l-6.36.91-.35-.61h0l-6.36,5.5h0l1.63,1.88a3.91,3.91,0,0,0,2.43,1.34h0Zm-3.64-1.42h0l1.32-.93Z"/><path class="cls-12" d="M257.72,15.75V2.91h3.49V15.75Z"/><path class="cls-12" d="M276.23,15.75h-4.55L267,6.7h-.08q.17,2.14.17,3.26v5.79H264V2.91h4.54l4.68,8.93h.05q-.12-1.94-.12-3.12V2.91h3.09Z"/><path class="cls-12" d="M284.72,5.57a2.22,2.22,0,0,0-1.93,1,4.91,4.91,0,0,0-.69,2.8q0,3.71,2.82,3.71a5.78,5.78,0,0,0,1.65-.24,16.53,16.53,0,0,0,1.61-.57v2.94a8.9,8.9,0,0,1-3.64.71,5.76,5.76,0,0,1-4.46-1.69,7,7,0,0,1-1.55-4.88,7.78,7.78,0,0,1,.75-3.51,5.38,5.38,0,0,1,2.16-2.32,6.53,6.53,0,0,1,3.32-.81,9.14,9.14,0,0,1,4,.91l-1.06,2.73a12,12,0,0,0-1.42-.56A5,5,0,0,0,284.72,5.57Z"/><path class="cls-12" d="M294.16,11.08v4.68h-3.47V2.91h4.21q5.24,0,5.24,3.8A3.79,3.79,0,0,1,298,10.16l3.74,5.6h-3.94L295,11.08Zm0-2.61h.65q1.82,0,1.82-1.61,0-1.33-1.78-1.33h-.69Z"/><path class="cls-12" d="M310.49,15.75h-7.63V2.91h7.63V5.69h-4.16v2h3.85V10.5h-3.85v2.43h4.16Z"/><path class="cls-12" d="M320.63,15.75,320,13.35h-4.17l-.65,2.41h-3.81l4.19-12.9h4.63l4.25,12.9Zm-1.35-5.26-.55-2.11q-.19-.7-.47-1.82T317.89,5q-.08.45-.31,1.48t-1,4.05Z"/><path class="cls-12" d="M334.22,11.85a3.79,3.79,0,0,1-.61,2.12,4,4,0,0,1-1.75,1.44,6.5,6.5,0,0,1-2.68.51,10.92,10.92,0,0,1-2.15-.18,8,8,0,0,1-1.81-.63V12a10.28,10.28,0,0,0,2.07.79,7.66,7.66,0,0,0,2,.29,1.91,1.91,0,0,0,1.13-.27.82.82,0,0,0,.36-.69.76.76,0,0,0-.15-.46,1.67,1.67,0,0,0-.47-.4q-.32-.2-1.71-.83a8.2,8.2,0,0,1-1.89-1.11,3.4,3.4,0,0,1-.93-1.23,4.08,4.08,0,0,1-.3-1.64,3.29,3.29,0,0,1,1.29-2.77,5.7,5.7,0,0,1,3.55-1,10,10,0,0,1,4.07.92l-1.06,2.68A7.71,7.71,0,0,0,330,5.5a1.62,1.62,0,0,0-1,.24.72.72,0,0,0-.31.59.85.85,0,0,0,.39.68,14.91,14.91,0,0,0,2.12,1.09,5.88,5.88,0,0,1,2.31,1.6A3.49,3.49,0,0,1,334.22,11.85Z"/><path class="cls-12" d="M343.83,15.75H336.2V2.91h7.63V5.69h-4.16v2h3.85V10.5h-3.85v2.43h4.16Z"/><path class="cls-12" d="M356.43,15.75H353v-10h-3.14V2.91h9.74V5.74h-3.13Z"/><path class="cls-12" d="M364.86,11.08v4.68h-3.47V2.91h4.21q5.24,0,5.24,3.8a3.79,3.79,0,0,1-2.18,3.45l3.74,5.6h-3.94l-2.72-4.68Zm0-2.61h.65q1.82,0,1.82-1.61,0-1.33-1.78-1.33h-.69Z"/><path class="cls-12" d="M381.46,15.75l-.63-2.41h-4.17L376,15.75h-3.81l4.19-12.9H381l4.25,12.9ZM380.1,10.5l-.55-2.11q-.19-.7-.47-1.82T378.71,5q-.08.45-.31,1.48t-1,4.05Z"/><path class="cls-12" d="M392.36,5.57a2.22,2.22,0,0,0-1.93,1,4.91,4.91,0,0,0-.69,2.8q0,3.71,2.82,3.71a5.78,5.78,0,0,0,1.65-.24,16.53,16.53,0,0,0,1.61-.57v2.94a8.9,8.9,0,0,1-3.64.71,5.76,5.76,0,0,1-4.46-1.69,7,7,0,0,1-1.55-4.88,7.78,7.78,0,0,1,.75-3.51,5.38,5.38,0,0,1,2.16-2.32,6.53,6.53,0,0,1,3.32-.81,9.14,9.14,0,0,1,4,.91l-1.06,2.73a12,12,0,0,0-1.42-.56A5,5,0,0,0,392.36,5.57Z"/><path class="cls-12" d="M406,15.75h-7.63V2.91H406V5.69H401.8v2h3.85V10.5H401.8v2.43H406Z"/><path class="cls-12" d="M416.09,15.75l-.63-2.41h-4.17l-.65,2.41h-3.81L411,2.85h4.63l4.25,12.9Zm-1.35-5.26-.55-2.11q-.19-.7-.47-1.82T413.34,5q-.08.45-.31,1.48t-1,4.05Z"/><path class="cls-12" d="M421.27,2.91h4.48a7.63,7.63,0,0,1,3.89.78,2.64,2.64,0,0,1,1.27,2.42A3.06,3.06,0,0,1,430.36,8a2.47,2.47,0,0,1-1.46,1V9a3,3,0,0,1,1.73,1.05,3.18,3.18,0,0,1,.54,1.92,3.28,3.28,0,0,1-1.31,2.76,5.75,5.75,0,0,1-3.58,1h-5Zm3.47,4.93h1a1.89,1.89,0,0,0,1.16-.31,1.07,1.07,0,0,0,.41-.91q0-1.08-1.63-1.08h-1Zm0,2.54v2.7H426q1.63,0,1.63-1.37a1.18,1.18,0,0,0-.44-1,2,2,0,0,0-1.26-.34Z"/><path class="cls-12" d="M433.4,15.75V2.91h3.49V15.75Z"/><path class="cls-12" d="M439.67,15.75V2.91h3.47V13h4.95v2.8Z"/><path class="cls-12" d="M450.14,15.75V2.91h3.49V15.75Z"/><path class="cls-12" d="M462.08,15.75h-3.47v-10h-3.14V2.91h9.74V5.74h-3.13Z"/><path class="cls-12" d="M471.63,7.67l2.21-4.76h3.76l-4.23,7.83v5h-3.5V10.84l-4.23-7.94h3.78Z"/><path class="cls-2" d="M495.7,9.31a6.93,6.93,0,0,1-1.59,4.93,7.23,7.23,0,0,1-9.29,0,6.9,6.9,0,0,1-1.61-4.94,6.86,6.86,0,0,1,1.6-4.9,7.27,7.27,0,0,1,9.31,0A6.94,6.94,0,0,1,495.7,9.31Zm-8.84,0q0,3.73,2.59,3.73a2.23,2.23,0,0,0,2-.91A5,5,0,0,0,492,9.31a5,5,0,0,0-.65-2.84,2.2,2.2,0,0,0-1.93-.92Q486.86,5.55,486.86,9.31Z"/><path class="cls-2" d="M501.44,15.75H498V2.91h7.59V5.69h-4.17V8.14h3.85v2.79h-3.85Z"/><path class="cls-2" d="M268.63,30.66a6.64,6.64,0,0,1-1.77,5,6.8,6.8,0,0,1-5,1.74h-4.16V24.5h4.45a6.71,6.71,0,0,1,4.78,1.58A6,6,0,0,1,268.63,30.66Zm-3.6.12a4.08,4.08,0,0,0-.7-2.62,2.58,2.58,0,0,0-2.12-.85h-1v7.2H262a2.8,2.8,0,0,0,2.32-.92A4.44,4.44,0,0,0,265,30.78Z"/><path class="cls-2" d="M278.82,37.35l-.63-2.41H274l-.65,2.41h-3.81l4.19-12.9h4.63l4.25,12.9Zm-1.35-5.26L276.91,30q-.19-.7-.47-1.82t-.36-1.6Q276,27,275.76,28t-1,4.05Z"/><path class="cls-2" d="M289.67,37.35H286.2v-10h-3.14V24.5h9.74v2.84h-3.13Z"/><path class="cls-2" d="M302.52,37.35l-.63-2.41h-4.17l-.65,2.41h-3.81l4.19-12.9h4.63l4.25,12.9Zm-1.35-5.26L300.62,30q-.19-.7-.47-1.82t-.36-1.6q-.08.45-.31,1.48t-1,4.05Z"/><path class="cls-2" d="M320.27,37.35l-.63-2.41h-4.17l-.65,2.41H311l4.19-12.9h4.63l4.25,12.9Zm-1.35-5.26L318.36,30q-.19-.7-.47-1.82t-.36-1.6q-.08.45-.31,1.48t-1,4.05Z"/><path class="cls-2" d="M337.69,37.35h-4.55l-4.69-9.05h-.08q.17,2.14.17,3.26v5.79h-3.08V24.5H330l4.68,8.93h.05q-.12-1.94-.12-3.12V24.5h3.09Z"/><path class="cls-2" d="M351.37,30.66a6.64,6.64,0,0,1-1.77,5,6.8,6.8,0,0,1-5,1.74h-4.16V24.5h4.45a6.71,6.71,0,0,1,4.78,1.58A6,6,0,0,1,351.37,30.66Zm-3.6.12a4.08,4.08,0,0,0-.7-2.62,2.58,2.58,0,0,0-2.12-.85h-1v7.2h.77a2.8,2.8,0,0,0,2.32-.92A4.44,4.44,0,0,0,347.77,30.78Z"/><path class="cls-2" d="M364,37.35h-3.47v-10h-3.14V24.5h9.74v2.84H364Z"/><path class="cls-2" d="M372.46,32.68v4.68H369V24.5h4.21q5.24,0,5.24,3.8a3.79,3.79,0,0,1-2.18,3.45l3.74,5.6h-3.94l-2.72-4.68Zm0-2.61h.65q1.82,0,1.82-1.61,0-1.33-1.78-1.33h-.69Z"/><path class="cls-2" d="M389.05,37.35l-.63-2.41h-4.17l-.65,2.41h-3.81L384,24.45h4.63l4.25,12.9ZM387.7,32.1,387.14,30q-.19-.7-.47-1.82t-.36-1.6Q386.23,27,386,28t-1,4.05Z"/><path class="cls-2" d="M406.47,37.35h-4.55l-4.69-9.05h-.08q.17,2.14.17,3.26v5.79h-3.08V24.5h4.54l4.68,8.93h.05q-.12-1.94-.12-3.12V24.5h3.09Z"/><path class="cls-2" d="M417.65,33.45a3.79,3.79,0,0,1-.61,2.12A4,4,0,0,1,415.3,37a6.5,6.5,0,0,1-2.68.51,10.92,10.92,0,0,1-2.15-.18,8,8,0,0,1-1.81-.63V33.63a10.28,10.28,0,0,0,2.07.79,7.66,7.66,0,0,0,2,.29,1.91,1.91,0,0,0,1.13-.27.82.82,0,0,0,.36-.69.76.76,0,0,0-.15-.46,1.67,1.67,0,0,0-.47-.4q-.32-.2-1.71-.83A8.2,8.2,0,0,1,410,31a3.4,3.4,0,0,1-.93-1.23,4.08,4.08,0,0,1-.3-1.64A3.29,3.29,0,0,1,410,25.31a5.7,5.7,0,0,1,3.55-1,10,10,0,0,1,4.07.92l-1.06,2.68a7.71,7.71,0,0,0-3.11-.83,1.62,1.62,0,0,0-1,.24.72.72,0,0,0-.31.59.85.85,0,0,0,.39.68,14.91,14.91,0,0,0,2.12,1.09,5.88,5.88,0,0,1,2.31,1.6A3.49,3.49,0,0,1,417.65,33.45Z"/><path class="cls-2" d="M427.52,37.35l-.63-2.41h-4.17l-.65,2.41h-3.81l4.19-12.9h4.63l4.25,12.9Zm-1.35-5.26L425.61,30q-.19-.7-.47-1.82t-.36-1.6q-.08.45-.31,1.48t-1,4.05Z"/><path class="cls-2" d="M438.43,27.17a2.22,2.22,0,0,0-1.93,1,4.91,4.91,0,0,0-.69,2.8q0,3.71,2.82,3.71a5.78,5.78,0,0,0,1.65-.24,16.53,16.53,0,0,0,1.61-.57v2.94a8.9,8.9,0,0,1-3.64.71,5.76,5.76,0,0,1-4.46-1.69A7,7,0,0,1,432.23,31a7.78,7.78,0,0,1,.75-3.51,5.38,5.38,0,0,1,2.16-2.32,6.53,6.53,0,0,1,3.32-.81,9.14,9.14,0,0,1,4,.91L441.38,28A12,12,0,0,0,440,27.4,5,5,0,0,0,438.43,27.17Z"/><path class="cls-2" d="M450.06,37.35h-3.47v-10h-3.14V24.5h9.74v2.84h-3.13Z"/><path class="cls-2" d="M455,37.35V24.5h3.49V37.35Z"/><path class="cls-2" d="M473.31,30.91a6.93,6.93,0,0,1-1.59,4.93,7.23,7.23,0,0,1-9.29,0,6.9,6.9,0,0,1-1.61-4.94,6.86,6.86,0,0,1,1.6-4.9,7.27,7.27,0,0,1,9.31,0A6.94,6.94,0,0,1,473.31,30.91Zm-8.84,0q0,3.73,2.59,3.73a2.23,2.23,0,0,0,2-.91,5,5,0,0,0,.64-2.82,5,5,0,0,0-.65-2.84,2.2,2.2,0,0,0-1.93-.92Q464.47,27.15,464.47,30.91Z"/><path class="cls-2" d="M487.87,37.35h-4.55l-4.69-9.05h-.08q.17,2.14.17,3.26v5.79h-3.08V24.5h4.54l4.68,8.93h.05q-.12-1.94-.12-3.12V24.5h3.09Z"/><path class="cls-2" d="M499,33.45a3.79,3.79,0,0,1-.61,2.12A4,4,0,0,1,496.69,37a6.5,6.5,0,0,1-2.68.51,10.92,10.92,0,0,1-2.15-.18,8,8,0,0,1-1.81-.63V33.63a10.28,10.28,0,0,0,2.07.79,7.66,7.66,0,0,0,2,.29,1.91,1.91,0,0,0,1.13-.27.82.82,0,0,0,.36-.69.76.76,0,0,0-.15-.46,1.67,1.67,0,0,0-.47-.4q-.32-.2-1.71-.83A8.2,8.2,0,0,1,491.37,31a3.4,3.4,0,0,1-.93-1.23,4.08,4.08,0,0,1-.3-1.64,3.29,3.29,0,0,1,1.29-2.77,5.7,5.7,0,0,1,3.55-1,10,10,0,0,1,4.07.92L498,27.92a7.71,7.71,0,0,0-3.11-.83,1.62,1.62,0,0,0-1,.24.72.72,0,0,0-.31.59.85.85,0,0,0,.39.68,14.91,14.91,0,0,0,2.12,1.09,5.88,5.88,0,0,1,2.31,1.6A3.49,3.49,0,0,1,499,33.45Z"/><path class="cls-12" d="M32.18,145.52H24.55V132.67h7.63v2.79H28v2h3.85v2.79H28v2.43h4.16Z"/><path class="cls-12" d="M42.83,141.62a3.79,3.79,0,0,1-.61,2.12,4,4,0,0,1-1.75,1.44,6.5,6.5,0,0,1-2.68.51,10.92,10.92,0,0,1-2.15-.18,8,8,0,0,1-1.81-.63v-3.09a10.28,10.28,0,0,0,2.07.79,7.66,7.66,0,0,0,2,.29,1.91,1.91,0,0,0,1.13-.27.82.82,0,0,0,.36-.69.76.76,0,0,0-.15-.46,1.67,1.67,0,0,0-.47-.4q-.32-.2-1.71-.83a8.2,8.2,0,0,1-1.89-1.11,3.4,3.4,0,0,1-.93-1.23,4.08,4.08,0,0,1-.3-1.64,3.29,3.29,0,0,1,1.29-2.77,5.7,5.7,0,0,1,3.55-1,10,10,0,0,1,4.07.92l-1.06,2.68a7.71,7.71,0,0,0-3.11-.83,1.62,1.62,0,0,0-1,.24.72.72,0,0,0-.31.59.85.85,0,0,0,.39.68,14.91,14.91,0,0,0,2.12,1.09,5.88,5.88,0,0,1,2.31,1.6A3.49,3.49,0,0,1,42.83,141.62Z"/><path class="cls-12" d="M50.48,145.52H47v-10H43.88v-2.84h9.74v2.84H50.48Z"/><path class="cls-12" d="M63.33,145.52l-.63-2.41H58.53l-.65,2.41H54.06l4.19-12.9h4.63l4.25,12.9ZM62,140.26l-.55-2.11q-.19-.7-.47-1.82t-.36-1.6q-.08.45-.31,1.48t-1,4.05Z"/><path class="cls-12" d="M68.52,132.67H73a7.63,7.63,0,0,1,3.89.78,2.64,2.64,0,0,1,1.27,2.42,3.06,3.06,0,0,1-.55,1.85,2.47,2.47,0,0,1-1.46,1v.09a3,3,0,0,1,1.73,1.05,3.18,3.18,0,0,1,.54,1.92,3.28,3.28,0,0,1-1.31,2.76,5.75,5.75,0,0,1-3.58,1h-5ZM72,137.6h1a1.89,1.89,0,0,0,1.16-.31,1.07,1.07,0,0,0,.41-.91q0-1.08-1.63-1.08H72Zm0,2.54v2.7h1.22q1.63,0,1.63-1.37a1.18,1.18,0,0,0-.44-1,2,2,0,0,0-1.26-.34Z"/><path class="cls-12" d="M80.65,145.52V132.67h3.47v10h4.95v2.8Z"/><path class="cls-12" d="M91.13,145.52V132.67h3.49v12.85Z"/><path class="cls-12" d="M105.79,141.62a3.79,3.79,0,0,1-.61,2.12,4,4,0,0,1-1.75,1.44,6.5,6.5,0,0,1-2.68.51,10.92,10.92,0,0,1-2.15-.18,8,8,0,0,1-1.81-.63v-3.09a10.28,10.28,0,0,0,2.07.79,7.66,7.66,0,0,0,2,.29,1.91,1.91,0,0,0,1.13-.27.82.82,0,0,0,.36-.69.76.76,0,0,0-.15-.46,1.67,1.67,0,0,0-.47-.4q-.32-.2-1.71-.83a8.2,8.2,0,0,1-1.89-1.11,3.4,3.4,0,0,1-.93-1.23,4.08,4.08,0,0,1-.3-1.64,3.29,3.29,0,0,1,1.29-2.77,5.7,5.7,0,0,1,3.55-1,10,10,0,0,1,4.07.92l-1.06,2.68a7.71,7.71,0,0,0-3.11-.83,1.62,1.62,0,0,0-1,.24.72.72,0,0,0-.31.59.85.85,0,0,0,.39.68,14.91,14.91,0,0,0,2.12,1.09,5.88,5.88,0,0,1,2.31,1.6A3.49,3.49,0,0,1,105.79,141.62Z"/><path class="cls-12" d="M118.79,145.52H115.3v-5.24h-4v5.24h-3.49V132.67h3.49v4.76h4v-4.76h3.49Z"/><path class="cls-12" d="M138.48,145.52h-4.55l-4.69-9.05h-.08q.17,2.14.17,3.26v5.79h-3.08V132.67h4.54l4.68,8.93h.05q-.12-1.94-.12-3.12v-5.81h3.09Z"/><path class="cls-12" d="M148.89,145.52h-7.63V132.67h7.63v2.79h-4.16v2h3.85v2.79h-3.85v2.43h4.16Z"/><path class="cls-12" d="M165,145.52h-4.1l-1.23-5.6q-.09-.35-.28-1.4t-.28-1.75q-.07.57-.23,1.42t-.31,1.56q-.15.71-1.28,5.77h-4.1L150,132.67h3.35l1.4,6.44q.47,2.14.65,3.4.11-.9.41-2.43t.55-2.55l1.13-4.86h3.22l1.1,4.86q.28,1.17.57,2.7t.39,2.29q.11-1,.62-3.38l1.42-6.46h3.35Z"/><path class="cls-2" d="M1.39,154.27H5.87a7.63,7.63,0,0,1,3.89.78A2.64,2.64,0,0,1,11,157.47a3.06,3.06,0,0,1-.55,1.85,2.47,2.47,0,0,1-1.46,1v.09a3,3,0,0,1,1.73,1.05,3.18,3.18,0,0,1,.54,1.92A3.28,3.28,0,0,1,10,166.11a5.75,5.75,0,0,1-3.58,1h-5Zm3.47,4.93h1a1.89,1.89,0,0,0,1.16-.31,1.07,1.07,0,0,0,.41-.91q0-1.08-1.63-1.08h-1Zm0,2.54v2.7H6.08q1.63,0,1.63-1.37a1.18,1.18,0,0,0-.44-1A2,2,0,0,0,6,161.74Z"/><path class="cls-2" d="M24.44,154.27V162A5.19,5.19,0,0,1,23,165.91a5.68,5.68,0,0,1-4.12,1.38,5.63,5.63,0,0,1-4-1.34,5.09,5.09,0,0,1-1.41-3.87v-7.81h3.49v7.54a3.09,3.09,0,0,0,.51,2,1.84,1.84,0,0,0,1.5.62,1.84,1.84,0,0,0,1.54-.61,3.27,3.27,0,0,0,.48-2v-7.52Z"/><path class="cls-2" d="M35.54,163.22a3.79,3.79,0,0,1-.61,2.12,4,4,0,0,1-1.75,1.44,6.5,6.5,0,0,1-2.68.51,10.92,10.92,0,0,1-2.15-.18,8,8,0,0,1-1.81-.63v-3.09a10.28,10.28,0,0,0,2.07.79,7.66,7.66,0,0,0,2,.29,1.91,1.91,0,0,0,1.13-.27.82.82,0,0,0,.36-.69.76.76,0,0,0-.15-.46,1.67,1.67,0,0,0-.47-.4q-.32-.2-1.71-.83a8.2,8.2,0,0,1-1.89-1.11,3.4,3.4,0,0,1-.93-1.23,4.08,4.08,0,0,1-.3-1.64,3.29,3.29,0,0,1,1.29-2.77,5.7,5.7,0,0,1,3.55-1,10,10,0,0,1,4.07.92l-1.06,2.68a7.71,7.71,0,0,0-3.11-.83,1.62,1.62,0,0,0-1,.24.72.72,0,0,0-.31.59.85.85,0,0,0,.39.68,14.91,14.91,0,0,0,2.12,1.09,5.88,5.88,0,0,1,2.31,1.6A3.49,3.49,0,0,1,35.54,163.22Z"/><path class="cls-2" d="M37.53,167.12V154.27H41v12.85Z"/><path class="cls-2" d="M56,167.12H51.48l-4.69-9.05h-.08q.17,2.14.17,3.26v5.79H43.8V154.27h4.54L53,163.2h.05q-.12-1.94-.12-3.12v-5.81H56Z"/><path class="cls-2" d="M66.44,167.12H58.81V154.27h7.63v2.79H62.28v2h3.85v2.79H62.28v2.43h4.16Z"/><path class="cls-2" d="M77.09,163.22a3.79,3.79,0,0,1-.61,2.12,4,4,0,0,1-1.75,1.44,6.5,6.5,0,0,1-2.68.51,10.92,10.92,0,0,1-2.15-.18,8,8,0,0,1-1.81-.63v-3.09a10.28,10.28,0,0,0,2.07.79,7.66,7.66,0,0,0,2,.29,1.91,1.91,0,0,0,1.13-.27.82.82,0,0,0,.36-.69.76.76,0,0,0-.15-.46,1.67,1.67,0,0,0-.47-.4q-.32-.2-1.71-.83a8.2,8.2,0,0,1-1.89-1.11,3.4,3.4,0,0,1-.93-1.23,4.08,4.08,0,0,1-.3-1.64,3.29,3.29,0,0,1,1.29-2.77,5.7,5.7,0,0,1,3.55-1,10,10,0,0,1,4.07.92L76,157.69a7.71,7.71,0,0,0-3.11-.83,1.62,1.62,0,0,0-1,.24.72.72,0,0,0-.31.59.85.85,0,0,0,.39.68,14.91,14.91,0,0,0,2.12,1.09,5.88,5.88,0,0,1,2.31,1.6A3.49,3.49,0,0,1,77.09,163.22Z"/><path class="cls-2" d="M87.48,163.22a3.79,3.79,0,0,1-.61,2.12,4,4,0,0,1-1.75,1.44,6.5,6.5,0,0,1-2.68.51,10.92,10.92,0,0,1-2.15-.18,8,8,0,0,1-1.81-.63v-3.09a10.28,10.28,0,0,0,2.07.79,7.66,7.66,0,0,0,2,.29,1.91,1.91,0,0,0,1.13-.27.82.82,0,0,0,.36-.69.76.76,0,0,0-.15-.46,1.67,1.67,0,0,0-.47-.4q-.32-.2-1.71-.83a8.2,8.2,0,0,1-1.89-1.11,3.4,3.4,0,0,1-.93-1.23,4.08,4.08,0,0,1-.3-1.64,3.29,3.29,0,0,1,1.29-2.77,5.7,5.7,0,0,1,3.55-1,10,10,0,0,1,4.07.92l-1.06,2.68a7.71,7.71,0,0,0-3.11-.83,1.62,1.62,0,0,0-1,.24.72.72,0,0,0-.31.59.85.85,0,0,0,.39.68,14.91,14.91,0,0,0,2.12,1.09,5.88,5.88,0,0,1,2.31,1.6A3.49,3.49,0,0,1,87.48,163.22Z"/><path class="cls-2" d="M99.74,167.12l-2.63-9.25H97q.18,2.36.18,3.67v5.58H94.14V154.27h4.62l2.68,9.12h.07l2.63-9.12h4.63v12.85h-3.19v-5.63q0-.44,0-1t.12-2.63h-.08L103,167.12Z"/><path class="cls-2" d="M123.57,160.68a6.93,6.93,0,0,1-1.59,4.93,7.23,7.23,0,0,1-9.29,0,8.33,8.33,0,0,1,0-9.84,7.27,7.27,0,0,1,9.31,0A6.94,6.94,0,0,1,123.57,160.68Zm-8.84,0q0,3.73,2.59,3.73a2.23,2.23,0,0,0,2-.91,6.57,6.57,0,0,0,0-5.66,2.2,2.2,0,0,0-1.93-.92Q114.72,156.92,114.72,160.68Z"/><path class="cls-2" d="M136.79,160.42a6.64,6.64,0,0,1-1.77,5,6.8,6.8,0,0,1-5,1.74h-4.16V154.27h4.45a6.71,6.71,0,0,1,4.78,1.58A6,6,0,0,1,136.79,160.42Zm-3.6.12a4.08,4.08,0,0,0-.7-2.62,2.58,2.58,0,0,0-2.12-.85h-1v7.2h.77a2.8,2.8,0,0,0,2.32-.92A4.44,4.44,0,0,0,133.19,160.55Z"/><path class="cls-2" d="M146.72,167.12H139.1V154.27h7.63v2.79h-4.16v2h3.85v2.79h-3.85v2.43h4.16Z"/><path class="cls-2" d="M149,167.12V154.27h3.47v10h4.95v2.8Z"/><path class="cls-2" d="M167.85,163.22a3.79,3.79,0,0,1-.61,2.12,4,4,0,0,1-1.75,1.44,6.5,6.5,0,0,1-2.68.51,10.92,10.92,0,0,1-2.15-.18,8,8,0,0,1-1.81-.63v-3.09a10.28,10.28,0,0,0,2.07.79,7.66,7.66,0,0,0,2,.29,1.91,1.91,0,0,0,1.13-.27.82.82,0,0,0,.36-.69.76.76,0,0,0-.15-.46,1.67,1.67,0,0,0-.47-.4q-.32-.2-1.71-.83a8.2,8.2,0,0,1-1.89-1.11,3.4,3.4,0,0,1-.93-1.23,4.08,4.08,0,0,1-.3-1.64,3.29,3.29,0,0,1,1.29-2.77,5.7,5.7,0,0,1,3.55-1,10,10,0,0,1,4.07.92l-1.06,2.68a7.71,7.71,0,0,0-3.11-.83,1.62,1.62,0,0,0-1,.24.72.72,0,0,0-.31.59.85.85,0,0,0,.39.68,14.91,14.91,0,0,0,2.12,1.09,5.88,5.88,0,0,1,2.31,1.6A3.49,3.49,0,0,1,167.85,163.22Z"/><circle class="cls-1" cx="909.54" cy="42.69" r="42.69"/><circle class="cls-1" cx="359.07" cy="167.7" r="42.69"/><g id="_Group_6" data-name=" Group 6"><path id="_Path_4" data-name=" Path 4" class="cls-5" d="M449.21,61.22a7.75,7.75,0,0,0-7.86,7.86h0V265.81a7.75,7.75,0,0,0,7.86,7.86h305.1a7.75,7.75,0,0,0,7.86-7.86h0V69.23a7.75,7.75,0,0,0-7.86-7.86h0l-305.1-.14Z"/><path id="_Path_5" data-name=" Path 5" class="cls-12" d="M423.91,283H779.62a17.15,17.15,0,0,0,17-17H406.89A17.15,17.15,0,0,0,423.91,283Z"/><path id="_Path_6" data-name=" Path 6" class="cls-13" d="M409.61,275.11a17,17,0,0,0,14.3,7.86H779.62a16.65,16.65,0,0,0,14.3-7.86Z"/><circle id="_Path_7" data-name=" Path 7" class="cls-5" cx="437.63" cy="270.25" r="1.86"/><circle id="_Path_8" data-name=" Path 8" class="cls-5" cx="432.49" cy="270.25" r="1.86"/><circle id="_Path_9" data-name=" Path 9" class="cls-5" cx="427.05" cy="270.25" r="1.86"/></g><g id="_Group_2-2" data-name=" Group 2-2"><rect class="cls-13" x="454.5" y="73.94" width="294.38" height="183.43"/></g><line class="cls-15" x1="811.66" y1="100.02" x2="723.58" y2="142.34"/><g class="cls-16"><polygon class="cls-17" points="509.81 204.3 491.91 214.71 473.89 204.3 491.79 193.9 509.81 204.3"/><polygon class="cls-10" points="509.81 204.3 509.76 222.79 491.86 233.19 491.91 214.71 509.81 204.3"/><polygon class="cls-14" points="491.91 214.71 491.86 233.19 473.84 222.79 473.89 204.3 491.91 214.71"/></g><g class="cls-16"><polygon class="cls-17" points="726.7 204.3 708.79 214.71 690.77 204.3 708.67 193.9 726.7 204.3"/><polygon class="cls-10" points="726.7 204.3 726.64 222.79 708.74 233.19 708.79 214.71 726.7 204.3"/><polygon class="cls-14" points="708.79 214.71 708.74 233.19 690.72 222.79 690.77 204.3 708.79 214.71"/></g><path class="cls-18" d="M699.35,215.88a.4.4,0,0,1-.19.53l-5.31,2.54a.4.4,0,0,1-.34-.72l5.31-2.54A.4.4,0,0,1,699.35,215.88Z"/><path class="cls-18" d="M690.75,218.56l2.27-1.09a1.29,1.29,0,0,1,1.13,0l.82-.39a2.08,2.08,0,0,0-2.29-.33l-2.27,1.09a2.08,2.08,0,0,0-1.18,2l.82-.39A1.29,1.29,0,0,1,690.75,218.56Z"/><path class="cls-18" d="M694.14,219.8l-2.27,1.09a1.29,1.29,0,0,1-1.13,0l-.82.39a2.08,2.08,0,0,0,2.29.33l2.27-1.09a2.08,2.08,0,0,0,1.18-2l-.82.39A1.29,1.29,0,0,1,694.14,219.8Z"/><path class="cls-18" d="M677.84,227.59l-2.27,1.09a1.29,1.29,0,1,1-1.11-2.32l2.27-1.09a1.29,1.29,0,0,1,1.13,0l.82-.39a2.08,2.08,0,0,0-2.29-.33l-2.27,1.09a2.08,2.08,0,0,0,1.8,3.76l2.27-1.09a2.08,2.08,0,0,0,1.18-2l-.82.39A1.29,1.29,0,0,1,677.84,227.59Z"/><path class="cls-18" d="M682.61,222.46l2.27-1.09a1.29,1.29,0,0,1,1.13,0l.82-.39a2.08,2.08,0,0,0-2.29-.33l-2.27,1.09a2.08,2.08,0,0,0-1.18,2l.82-.39A1.29,1.29,0,0,1,682.61,222.46Z"/><path class="cls-18" d="M686,223.7l-2.27,1.09a1.29,1.29,0,0,1-1.13,0l-.82.39a2.08,2.08,0,0,0,2.29.33l2.27-1.09a2.08,2.08,0,0,0,1.18-2l-.82.39A1.29,1.29,0,0,1,686,223.7Z"/><path class="cls-18" d="M683.05,223.67a.4.4,0,0,1-.19.53l-5.31,2.54a.4.4,0,1,1-.34-.72l5.31-2.54A.4.4,0,0,1,683.05,223.67Z"/><path class="cls-18" d="M691.2,219.78a.4.4,0,0,1-.19.53l-5.31,2.54a.4.4,0,0,1-.34-.72l5.31-2.54A.4.4,0,0,1,691.2,219.78Z"/><path class="cls-18" d="M674.46,226.35l2.27-1.09a1.29,1.29,0,0,1,1.13,0l.82-.39a2.08,2.08,0,0,0-2.29-.33l-2.27,1.09a2.08,2.08,0,0,0-1.18,2l.82-.39A1.29,1.29,0,0,1,674.46,226.35Z"/><path class="cls-18" d="M677.84,227.59l-2.27,1.09a1.29,1.29,0,0,1-1.13,0l-.82.39a2.08,2.08,0,0,0,2.29.33l2.27-1.09a2.08,2.08,0,0,0,1.18-2l-.82.39A1.29,1.29,0,0,1,677.84,227.59Z"/><path class="cls-18" d="M666.31,230.25l2.27-1.09a1.29,1.29,0,0,1,1.13,0l.82-.39a2.08,2.08,0,0,0-2.29-.33L666,229.53a2.08,2.08,0,0,0-1.18,2l.82-.39A1.29,1.29,0,0,1,666.31,230.25Z"/><path class="cls-18" d="M669.69,231.49l-2.27,1.09a1.29,1.29,0,0,1-1.13,0l-.82.39a2.08,2.08,0,0,0,2.29.33L670,232.2a2.08,2.08,0,0,0,1.18-2l-.82.39A1.29,1.29,0,0,1,669.69,231.49Z"/><path class="cls-18" d="M666.76,231.46a.4.4,0,0,1-.19.53l-5.31,2.54a.4.4,0,0,1-.34-.72l5.31-2.54A.4.4,0,0,1,666.76,231.46Z"/><path class="cls-18" d="M674.91,227.57a.4.4,0,0,1-.19.53l-5.31,2.54a.4.4,0,0,1-.34-.72l5.31-2.54A.4.4,0,0,1,674.91,227.57Z"/><path class="cls-18" d="M658.16,234.14l2.27-1.09a1.29,1.29,0,0,1,1.13,0l.82-.39a2.08,2.08,0,0,0-2.29-.33l-2.27,1.09a2.08,2.08,0,0,0-1.18,2l.82-.39A1.29,1.29,0,0,1,658.16,234.14Z"/><path class="cls-18" d="M661.54,235.38l-2.27,1.09a1.29,1.29,0,0,1-1.13,0l-.82.39a2.08,2.08,0,0,0,2.29.33l2.27-1.09a2.08,2.08,0,0,0,1.18-2l-.82.39A1.29,1.29,0,0,1,661.54,235.38Z"/><path class="cls-18" d="M650,238l2.27-1.09a1.29,1.29,0,0,1,1.13,0l.82-.39a2.08,2.08,0,0,0-2.29-.33l-2.27,1.09a2.08,2.08,0,0,0-1.18,2l.82-.39A1.29,1.29,0,0,1,650,238Z"/><path class="cls-18" d="M653.4,239.28l-2.27,1.09a1.29,1.29,0,0,1-1.13,0l-.82.39a2.08,2.08,0,0,0,2.29.33l2.27-1.09a2.08,2.08,0,0,0,1.18-2l-.82.39A1.29,1.29,0,0,1,653.4,239.28Z"/><path class="cls-18" d="M650.46,239.25a.4.4,0,0,1-.19.53L645,242.32a.4.4,0,0,1-.34-.72l5.31-2.54A.4.4,0,0,1,650.46,239.25Z"/><path class="cls-18" d="M658.61,235.36a.4.4,0,0,1-.19.53l-5.31,2.54a.4.4,0,1,1-.34-.72l5.31-2.54A.4.4,0,0,1,658.61,235.36Z"/><path class="cls-18" d="M641.87,241.93l2.27-1.09a1.29,1.29,0,0,1,1.13,0l.82-.39a2.08,2.08,0,0,0-2.29-.33l-2.27,1.09a2.08,2.08,0,0,0-1.18,2l.82-.39A1.29,1.29,0,0,1,641.87,241.93Z"/><path class="cls-18" d="M645.25,243.17,643,244.26a1.29,1.29,0,0,1-1.13,0l-.82.39a2.08,2.08,0,0,0,2.29.33l2.27-1.09a2.08,2.08,0,0,0,1.18-2l-.82.39A1.29,1.29,0,0,1,645.25,243.17Z"/><path class="cls-18" d="M633.72,245.83l2.27-1.09a1.29,1.29,0,0,1,1.13,0l.82-.39a2.08,2.08,0,0,0-2.29-.33l-2.27,1.09a2.08,2.08,0,0,0-1.18,2l.82-.39A1.29,1.29,0,0,1,633.72,245.83Z"/><path class="cls-18" d="M637.1,247.07l-2.27,1.09a1.29,1.29,0,0,1-1.13,0l-.82.39a2.08,2.08,0,0,0,2.29.33l2.27-1.09a2.08,2.08,0,0,0,1.18-2l-.82.39A1.29,1.29,0,0,1,637.1,247.07Z"/><path class="cls-18" d="M634.17,247a.4.4,0,0,1-.19.53l-5.31,2.54a.4.4,0,1,1-.34-.72l5.31-2.54A.4.4,0,0,1,634.17,247Z"/><path class="cls-18" d="M642.31,243.15a.4.4,0,0,1-.19.53l-5.31,2.54a.4.4,0,1,1-.34-.72l5.31-2.54A.4.4,0,0,1,642.31,243.15Z"/><path class="cls-18" d="M625.57,249.72l2.27-1.09a1.29,1.29,0,0,1,1.13,0l.82-.39a2.08,2.08,0,0,0-2.29-.33L625.23,249a2.08,2.08,0,0,0-1.18,2l.82-.39A1.29,1.29,0,0,1,625.57,249.72Z"/><path class="cls-18" d="M629,251,626.68,252a1.29,1.29,0,0,1-1.13,0l-.82.39a2.08,2.08,0,0,0,2.29.33l2.27-1.09a2.08,2.08,0,0,0,1.18-2l-.82.39A1.29,1.29,0,0,1,629,251Z"/><path class="cls-18" d="M617.42,253.62l2.27-1.09a1.29,1.29,0,0,1,1.13,0l.82-.39a2.08,2.08,0,0,0-2.29-.33l-2.27,1.09a2.08,2.08,0,0,0-1.18,2l.82-.39A1.29,1.29,0,0,1,617.42,253.62Z"/><path class="cls-18" d="M620.8,254.86l-2.27,1.09a1.29,1.29,0,0,1-1.13,0l-.82.39a2.08,2.08,0,0,0,2.29.33l2.27-1.09a2.08,2.08,0,0,0,1.18-2l-.82.39A1.29,1.29,0,0,1,620.8,254.86Z"/><path class="cls-18" d="M617.87,254.83a.4.4,0,0,1-.19.53l-5.31,2.54a.4.4,0,0,1-.34-.72l5.31-2.54A.4.4,0,0,1,617.87,254.83Z"/><path class="cls-18" d="M626,250.94a.4.4,0,0,1-.19.53L620.52,254a.4.4,0,1,1-.34-.72l5.31-2.54A.4.4,0,0,1,626,250.94Z"/><path class="cls-18" d="M609.28,257.51l2.27-1.09a1.29,1.29,0,0,1,1.13,0l.82-.39a2.08,2.08,0,0,0-2.29-.33l-2.27,1.09a2.08,2.08,0,0,0-1.18,2l.82-.39A1.29,1.29,0,0,1,609.28,257.51Z"/><path class="cls-18" d="M612.66,258.75l-2.27,1.09a1.29,1.29,0,0,1-1.13,0l-.82.39a2.08,2.08,0,0,0,2.29.33l2.27-1.09a2.08,2.08,0,0,0,1.18-2l-.82.39A1.29,1.29,0,0,1,612.66,258.75Z"/><path class="cls-18" d="M601.13,261.41l2.27-1.09a1.29,1.29,0,0,1,1.13,0l.82-.39a2.08,2.08,0,0,0-2.29-.33l-2.27,1.09a2.08,2.08,0,0,0-1.18,2l.82-.39A1.29,1.29,0,0,1,601.13,261.41Z"/><path class="cls-18" d="M604.51,262.65l-2.27,1.09a1.29,1.29,0,0,1-1.13,0l-.82.39a2.08,2.08,0,0,0,2.29.33l2.27-1.09a2.08,2.08,0,0,0,1.18-2l-.82.39A1.29,1.29,0,0,1,604.51,262.65Z"/><path class="cls-18" d="M601.57,262.62a.4.4,0,0,1-.19.53l-5.31,2.54a.4.4,0,1,1-.34-.72l5.31-2.54A.4.4,0,0,1,601.57,262.62Z"/><path class="cls-18" d="M609.72,258.73a.4.4,0,0,1-.19.53l-5.31,2.54a.4.4,0,0,1-.34-.72l5.31-2.54A.4.4,0,0,1,609.72,258.73Z"/><path class="cls-18" d="M593,265.31l2.27-1.09a1.29,1.29,0,0,1,1.13,0l.82-.39a2.08,2.08,0,0,0-2.29-.33l-2.27,1.09a2.08,2.08,0,0,0-1.18,2l.82-.39A1.29,1.29,0,0,1,593,265.31Z"/><path class="cls-18" d="M596.36,266.54l-2.27,1.09a1.29,1.29,0,0,1-1.13,0l-.82.39a2.08,2.08,0,0,0,2.29.33l2.27-1.09a2.08,2.08,0,0,0,1.18-2l-.82.39A1.29,1.29,0,0,1,596.36,266.54Z"/><path class="cls-18" d="M584.83,269.2l2.27-1.09a1.29,1.29,0,0,1,1.13,0l.82-.39a2.08,2.08,0,0,0-2.29-.33l-2.27,1.09a2.08,2.08,0,0,0-1.18,2l.82-.39A1.29,1.29,0,0,1,584.83,269.2Z"/><path class="cls-18" d="M593.43,266.52a.4.4,0,0,1-.19.53l-5.31,2.54a.4.4,0,0,1-.34-.72l5.31-2.54A.4.4,0,0,1,593.43,266.52Z"/><path class="cls-18" d="M588.07,259.39l2.25,1.12a1.29,1.29,0,0,1,.69.9l.81.41a2.08,2.08,0,0,0-1.15-2l-2.25-1.12a2.08,2.08,0,0,0-2.3.29l.81.41A1.29,1.29,0,0,1,588.07,259.39Z"/><path class="cls-18" d="M589.17,262.82l-2.25-1.12a1.29,1.29,0,0,1-.69-.9l-.81-.41a2.08,2.08,0,0,0,1.15,2l2.25,1.12a2.08,2.08,0,0,0,2.3-.29l-.81-.41A1.29,1.29,0,0,1,589.17,262.82Z"/><path class="cls-18" d="M587.39,260.49a.4.4,0,0,1-.53.18L581.59,258a.4.4,0,1,1,.35-.71l5.27,2.63A.4.4,0,0,1,587.39,260.49Z"/><path class="cls-18" d="M595.47,264.52a.4.4,0,0,1-.53.18l-5.27-2.63a.4.4,0,1,1,.35-.71l5.27,2.63A.4.4,0,0,1,595.47,264.52Z"/><path class="cls-18" d="M580,255.36l2.25,1.12a1.29,1.29,0,0,1,.69.9l.81.41a2.08,2.08,0,0,0-1.15-2l-2.25-1.12a2.08,2.08,0,0,0-2.3.29l.81.41A1.29,1.29,0,0,1,580,255.36Z"/><path class="cls-18" d="M581.09,258.79l-2.25-1.12a1.29,1.29,0,0,1-.69-.9l-.81-.41a2.08,2.08,0,0,0,1.15,2l2.25,1.12a2.08,2.08,0,0,0,2.3-.29l-.81-.41A1.29,1.29,0,0,1,581.09,258.79Z"/><path class="cls-18" d="M571.91,251.33l2.25,1.12a1.29,1.29,0,0,1,.69.9l.81.41a2.08,2.08,0,0,0-1.15-2l-2.25-1.12a2.08,2.08,0,0,0-2.3.29l.81.41A1.29,1.29,0,0,1,571.91,251.33Z"/><path class="cls-18" d="M573,254.76l-2.25-1.12a1.29,1.29,0,0,1-.69-.9l-.81-.41a2.08,2.08,0,0,0,1.15,2l2.25,1.12a2.08,2.08,0,0,0,2.3-.29l-.81-.41A1.29,1.29,0,0,1,573,254.76Z"/><path class="cls-18" d="M571.22,252.43a.4.4,0,0,1-.53.18L565.42,250a.4.4,0,1,1,.35-.71L571,251.9A.4.4,0,0,1,571.22,252.43Z"/><path class="cls-18" d="M579.31,256.46a.4.4,0,0,1-.53.18L573.51,254a.4.4,0,0,1,.35-.71l5.27,2.63A.4.4,0,0,1,579.31,256.46Z"/><path class="cls-18" d="M563.82,247.3l2.25,1.12a1.29,1.29,0,0,1,.69.9l.81.41a2.08,2.08,0,0,0-1.15-2l-2.25-1.12a2.08,2.08,0,0,0-2.3.29l.81.41A1.29,1.29,0,0,1,563.82,247.3Z"/><path class="cls-18" d="M564.93,250.73l-2.25-1.12a1.29,1.29,0,0,1-.69-.9l-.81-.41a2.08,2.08,0,0,0,1.15,2l2.25,1.12a2.08,2.08,0,0,0,2.3-.29l-.81-.41A1.29,1.29,0,0,1,564.93,250.73Z"/><path class="cls-18" d="M555.74,243.27l2.25,1.12a1.29,1.29,0,0,1,.69.9l.81.41a2.08,2.08,0,0,0-1.15-2l-2.25-1.12a2.08,2.08,0,0,0-2.3.29l.81.41A1.29,1.29,0,0,1,555.74,243.27Z"/><path class="cls-18" d="M556.84,246.7l-2.25-1.12a1.29,1.29,0,0,1-.69-.9l-.81-.41a2.08,2.08,0,0,0,1.15,2l2.25,1.12a2.08,2.08,0,0,0,2.3-.29l-.81-.41A1.29,1.29,0,0,1,556.84,246.7Z"/><path class="cls-18" d="M555.06,244.37a.4.4,0,0,1-.53.18l-5.27-2.63a.4.4,0,1,1,.35-.71l5.27,2.63A.4.4,0,0,1,555.06,244.37Z"/><path class="cls-18" d="M563.14,248.4a.4.4,0,0,1-.53.18l-5.27-2.63a.4.4,0,0,1,.35-.71l5.27,2.63A.4.4,0,0,1,563.14,248.4Z"/><path class="cls-18" d="M547.66,239.24l2.25,1.12a1.29,1.29,0,0,1,.69.9l.81.41a2.08,2.08,0,0,0-1.15-2L548,238.53a2.08,2.08,0,0,0-2.3.29l.81.41A1.29,1.29,0,0,1,547.66,239.24Z"/><path class="cls-18" d="M548.76,242.67l-2.25-1.12a1.29,1.29,0,0,1-.69-.9l-.81-.41a2.08,2.08,0,0,0,1.15,2l2.25,1.12a2.08,2.08,0,0,0,2.3-.29l-.81-.41A1.29,1.29,0,0,1,548.76,242.67Z"/><path class="cls-18" d="M539.58,235.21l2.25,1.12a1.29,1.29,0,0,1,.69.9l.81.41a2.08,2.08,0,0,0-1.15-2l-2.25-1.12a2.08,2.08,0,0,0-2.3.29l.81.41A1.29,1.29,0,0,1,539.58,235.21Z"/><path class="cls-18" d="M540.68,238.63l-2.25-1.12a1.29,1.29,0,0,1-.69-.9l-.81-.41a2.08,2.08,0,0,0,1.15,2l2.25,1.12a2.08,2.08,0,0,0,2.3-.29l-.81-.41A1.29,1.29,0,0,1,540.68,238.63Z"/><path class="cls-18" d="M538.9,236.31a.4.4,0,0,1-.53.18l-5.27-2.63a.4.4,0,1,1,.35-.71l5.27,2.63A.4.4,0,0,1,538.9,236.31Z"/><path class="cls-18" d="M547,240.34a.4.4,0,0,1-.53.18l-5.27-2.63a.4.4,0,1,1,.35-.71l5.27,2.63A.4.4,0,0,1,547,240.34Z"/><path class="cls-18" d="M531.5,231.18l2.25,1.12a1.29,1.29,0,0,1,.69.9l.81.41a2.08,2.08,0,0,0-1.15-2l-2.25-1.12a2.08,2.08,0,0,0-2.3.29l.81.41A1.29,1.29,0,0,1,531.5,231.18Z"/><path class="cls-18" d="M532.6,234.6l-2.25-1.12a1.29,1.29,0,0,1-.69-.9l-.81-.41a2.08,2.08,0,0,0,1.15,2l2.25,1.12a2.08,2.08,0,0,0,2.3-.29l-.81-.41A1.29,1.29,0,0,1,532.6,234.6Z"/><path class="cls-18" d="M523.42,227.14l2.25,1.12a1.29,1.29,0,0,1,.69.9l.81.41a2.08,2.08,0,0,0-1.15-2l-2.25-1.12a2.08,2.08,0,0,0-2.3.29l.81.41A1.29,1.29,0,0,1,523.42,227.14Z"/><path class="cls-18" d="M524.52,230.57l-2.25-1.12a1.29,1.29,0,0,1-.69-.9l-.81-.41a2.08,2.08,0,0,0,1.15,2l2.25,1.12a2.08,2.08,0,0,0,2.3-.29l-.81-.41A1.29,1.29,0,0,1,524.52,230.57Z"/><path class="cls-18" d="M522.73,228.24a.4.4,0,0,1-.53.18l-5.27-2.63a.4.4,0,0,1,.35-.71l5.27,2.63A.4.4,0,0,1,522.73,228.24Z"/><path class="cls-18" d="M530.82,232.27a.4.4,0,0,1-.53.18L525,229.83a.4.4,0,0,1,.35-.71l5.27,2.63A.4.4,0,0,1,530.82,232.27Z"/><path class="cls-18" d="M515.33,223.11l2.25,1.12a1.29,1.29,0,0,1,.69.9l.81.41a2.08,2.08,0,0,0-1.15-2l-2.25-1.12a2.08,2.08,0,0,0-2.3.29l.81.41A1.29,1.29,0,0,1,515.33,223.11Z"/><path class="cls-18" d="M516.44,226.54l-2.25-1.12a1.29,1.29,0,0,1-.69-.9l-.81-.41a2.08,2.08,0,0,0,1.15,2l2.25,1.12a2.08,2.08,0,0,0,2.3-.29l-.81-.41A1.29,1.29,0,0,1,516.44,226.54Z"/><path class="cls-18" d="M507.25,219.08l2.25,1.12a1.29,1.29,0,0,1,.69.9l.81.41a2.08,2.08,0,0,0-1.15-2l-2.25-1.12a2.08,2.08,0,0,0-2.3.29l.81.41A1.29,1.29,0,0,1,507.25,219.08Z"/><path class="cls-18" d="M508.35,222.51l-2.25-1.12a1.29,1.29,0,0,1-.69-.9l-.81-.41a2.08,2.08,0,0,0,1.15,2l2.25,1.12a2.08,2.08,0,0,0,2.3-.29l-.81-.41A1.29,1.29,0,0,1,508.35,222.51Z"/><path class="cls-18" d="M506.57,220.18a.4.4,0,0,1-.53.18l-5.27-2.63a.4.4,0,0,1,.35-.71l5.27,2.63A.4.4,0,0,1,506.57,220.18Z"/><path class="cls-18" d="M514.65,224.21a.4.4,0,0,1-.53.18l-5.27-2.63a.4.4,0,1,1,.35-.71l5.27,2.63A.4.4,0,0,1,514.65,224.21Z"/><g class="cls-16"><polygon class="cls-17" points="618.23 251.11 600.33 261.51 582.3 251.11 600.21 240.71 618.23 251.11"/><polygon class="cls-10" points="618.23 251.11 618.17 269.6 600.27 280 600.33 261.51 618.23 251.11"/><polygon class="cls-14" points="600.33 261.51 600.27 280 582.25 269.6 582.3 251.11 600.33 261.51"/></g><path class="cls-18" d="M598.62,131.81V129.3a1.29,1.29,0,0,1,.5-1v-.91a2.08,2.08,0,0,0-1.29,1.92v2.52a2.08,2.08,0,0,0,1.29,1.92v-.91A1.29,1.29,0,0,1,598.62,131.81Z"/><path class="cls-18" d="M601.2,129.3v2.52a1.29,1.29,0,0,1-.5,1v.91a2.08,2.08,0,0,0,1.29-1.92V129.3a2.08,2.08,0,0,0-1.29-1.92v.91A1.29,1.29,0,0,1,601.2,129.3Z"/><path class="cls-18" d="M598.62,140.85v-2.52a1.29,1.29,0,0,1,.5-1v-.91a2.08,2.08,0,0,0-1.29,1.92v2.52a2.08,2.08,0,0,0,1.29,1.92v-.91A1.29,1.29,0,0,1,598.62,140.85Z"/><path class="cls-18" d="M601.2,138.33v2.52a1.29,1.29,0,0,1-.5,1v.91a2.08,2.08,0,0,0,1.29-1.92v-2.52a2.08,2.08,0,0,0-1.29-1.92v.91A1.29,1.29,0,0,1,601.2,138.33Z"/><path class="cls-18" d="M599.91,141a.4.4,0,0,1,.4.4v5.89a.4.4,0,1,1-.79,0v-5.89A.4.4,0,0,1,599.91,141Z"/><path class="cls-18" d="M599.91,131.93a.4.4,0,0,1,.4.4v5.89a.4.4,0,0,1-.79,0v-5.89A.4.4,0,0,1,599.91,131.93Z"/><path class="cls-18" d="M598.62,149.88v-2.52a1.29,1.29,0,0,1,.5-1v-.91a2.08,2.08,0,0,0-1.29,1.92v2.52a2.08,2.08,0,0,0,1.29,1.92v-.91A1.29,1.29,0,0,1,598.62,149.88Z"/><path class="cls-18" d="M601.2,147.36v2.52a1.29,1.29,0,0,1-.5,1v.91a2.08,2.08,0,0,0,1.29-1.92v-2.52a2.08,2.08,0,0,0-1.29-1.92v.91A1.29,1.29,0,0,1,601.2,147.36Z"/><path class="cls-18" d="M598.62,158.91v-2.52a1.29,1.29,0,0,1,.5-1v-.91a2.08,2.08,0,0,0-1.29,1.92v2.52a2.08,2.08,0,0,0,1.29,1.92v-.91A1.29,1.29,0,0,1,598.62,158.91Z"/><path class="cls-18" d="M601.2,156.39v2.52a1.29,1.29,0,0,1-.5,1v.91a2.08,2.08,0,0,0,1.29-1.92v-2.52a2.08,2.08,0,0,0-1.29-1.92v.91A1.29,1.29,0,0,1,601.2,156.39Z"/><path class="cls-18" d="M599.91,159a.4.4,0,0,1,.4.4v5.89a.4.4,0,1,1-.79,0v-5.89A.4.4,0,0,1,599.91,159Z"/><path class="cls-18" d="M599.91,150a.4.4,0,0,1,.4.4v5.89a.4.4,0,1,1-.79,0v-5.89A.4.4,0,0,1,599.91,150Z"/><path class="cls-18" d="M598.62,167.94v-2.52a1.29,1.29,0,0,1,.5-1v-.91a2.08,2.08,0,0,0-1.29,1.92v2.52a2.08,2.08,0,0,0,1.29,1.92V169A1.29,1.29,0,0,1,598.62,167.94Z"/><path class="cls-18" d="M601.2,165.42v2.52a1.29,1.29,0,0,1-.5,1v.91a2.08,2.08,0,0,0,1.29-1.92v-2.52a2.08,2.08,0,0,0-1.29-1.92v.91A1.29,1.29,0,0,1,601.2,165.42Z"/><path class="cls-18" d="M598.62,177v-2.52a1.29,1.29,0,0,1,.5-1v-.91a2.08,2.08,0,0,0-1.29,1.92V177a2.08,2.08,0,0,0,1.29,1.92V178A1.29,1.29,0,0,1,598.62,177Z"/><path class="cls-18" d="M601.2,174.45V177a1.29,1.29,0,0,1-.5,1v.91A2.08,2.08,0,0,0,602,177v-2.52a2.08,2.08,0,0,0-1.29-1.92v.91A1.29,1.29,0,0,1,601.2,174.45Z"/><path class="cls-18" d="M599.91,177.09a.4.4,0,0,1,.4.4v5.89a.4.4,0,0,1-.79,0v-5.89A.4.4,0,0,1,599.91,177.09Z"/><path class="cls-18" d="M599.91,168.06a.4.4,0,0,1,.4.4v5.89a.4.4,0,0,1-.79,0v-5.89A.4.4,0,0,1,599.91,168.06Z"/><path class="cls-18" d="M598.62,186v-2.52a1.29,1.29,0,0,1,.5-1v-.91a2.08,2.08,0,0,0-1.29,1.92V186a2.08,2.08,0,0,0,1.29,1.92V187A1.29,1.29,0,0,1,598.62,186Z"/><path class="cls-18" d="M601.2,183.49V186a1.29,1.29,0,0,1-.5,1v.91A2.08,2.08,0,0,0,602,186v-2.52a2.08,2.08,0,0,0-1.29-1.92v.91A1.29,1.29,0,0,1,601.2,183.49Z"/><path class="cls-18" d="M598.62,195v-2.52a1.29,1.29,0,0,1,.5-1v-.91a2.08,2.08,0,0,0-1.29,1.92V195a2.08,2.08,0,0,0,1.29,1.92V196A1.29,1.29,0,0,1,598.62,195Z"/><path class="cls-18" d="M601.2,192.52V195a1.29,1.29,0,0,1-.5,1V197A2.08,2.08,0,0,0,602,195v-2.52a2.08,2.08,0,0,0-1.29-1.92v.91A1.29,1.29,0,0,1,601.2,192.52Z"/><path class="cls-18" d="M599.91,195.15a.4.4,0,0,1,.4.4v5.89a.4.4,0,1,1-.79,0v-5.89A.4.4,0,0,1,599.91,195.15Z"/><path class="cls-18" d="M599.91,186.12a.4.4,0,0,1,.4.4v5.89a.4.4,0,1,1-.79,0v-5.89A.4.4,0,0,1,599.91,186.12Z"/><path class="cls-18" d="M598.62,204.06v-2.52a1.29,1.29,0,0,1,.5-1v-.91a2.08,2.08,0,0,0-1.29,1.92v2.52a2.08,2.08,0,0,0,1.29,1.92v-.91A1.29,1.29,0,0,1,598.62,204.06Z"/><path class="cls-18" d="M601.2,201.55v2.52a1.29,1.29,0,0,1-.5,1V206a2.08,2.08,0,0,0,1.29-1.92v-2.52a2.08,2.08,0,0,0-1.29-1.92v.91A1.29,1.29,0,0,1,601.2,201.55Z"/><path class="cls-18" d="M598.62,213.09v-2.52a1.29,1.29,0,0,1,.5-1v-.91a2.08,2.08,0,0,0-1.29,1.92v2.52a2.08,2.08,0,0,0,1.29,1.92v-.91A1.29,1.29,0,0,1,598.62,213.09Z"/><path class="cls-18" d="M601.2,210.58v2.52a1.29,1.29,0,0,1-.5,1V215a2.08,2.08,0,0,0,1.29-1.92v-2.52a2.08,2.08,0,0,0-1.29-1.92v.91A1.29,1.29,0,0,1,601.2,210.58Z"/><path class="cls-18" d="M599.91,213.22a.4.4,0,0,1,.4.4v5.89a.4.4,0,0,1-.79,0v-5.89A.4.4,0,0,1,599.91,213.22Z"/><path class="cls-18" d="M599.91,204.18a.4.4,0,0,1,.4.4v5.89a.4.4,0,0,1-.79,0v-5.89A.4.4,0,0,1,599.91,204.18Z"/><path class="cls-18" d="M598.62,222.13v-2.52a1.29,1.29,0,0,1,.5-1v-.91a2.08,2.08,0,0,0-1.29,1.92v2.52a2.08,2.08,0,0,0,1.29,1.92v-.91A1.29,1.29,0,0,1,598.62,222.13Z"/><path class="cls-18" d="M601.2,219.61v2.52a1.29,1.29,0,0,1-.5,1V224a2.08,2.08,0,0,0,1.29-1.92v-2.52a2.08,2.08,0,0,0-1.29-1.92v.91A1.29,1.29,0,0,1,601.2,219.61Z"/><path class="cls-18" d="M598.62,231.16v-2.52a1.29,1.29,0,0,1,.5-1v-.91a2.08,2.08,0,0,0-1.29,1.92v2.52a2.08,2.08,0,0,0,1.29,1.92v-.91A1.29,1.29,0,0,1,598.62,231.16Z"/><path class="cls-18" d="M601.2,228.64v2.52a1.29,1.29,0,0,1-.5,1v.91a2.08,2.08,0,0,0,1.29-1.92v-2.52a2.08,2.08,0,0,0-1.29-1.92v.91A1.29,1.29,0,0,1,601.2,228.64Z"/><path class="cls-18" d="M599.91,231.28a.4.4,0,0,1,.4.4v5.89a.4.4,0,1,1-.79,0v-5.89A.4.4,0,0,1,599.91,231.28Z"/><path class="cls-18" d="M599.91,222.25a.4.4,0,0,1,.4.4v5.89a.4.4,0,1,1-.79,0v-5.89A.4.4,0,0,1,599.91,222.25Z"/><path class="cls-18" d="M598.62,240.19v-2.52a1.29,1.29,0,0,1,.5-1v-.91a2.08,2.08,0,0,0-1.29,1.92v2.52a2.08,2.08,0,0,0,1.29,1.92v-.91A1.29,1.29,0,0,1,598.62,240.19Z"/><path class="cls-18" d="M601.2,237.67v2.52a1.29,1.29,0,0,1-.5,1v.91a2.08,2.08,0,0,0,1.29-1.92v-2.52a2.08,2.08,0,0,0-1.29-1.92v.91A1.29,1.29,0,0,1,601.2,237.67Z"/><path class="cls-18" d="M598.62,249.22V246.7a1.29,1.29,0,0,1,.5-1v-.91a2.08,2.08,0,0,0-1.29,1.92v2.52a2.08,2.08,0,0,0,1.29,1.92v-.91A1.29,1.29,0,0,1,598.62,249.22Z"/><path class="cls-18" d="M601.2,246.7v2.52a1.29,1.29,0,0,1-.5,1v.91a2.08,2.08,0,0,0,1.29-1.92V246.7a2.08,2.08,0,0,0-1.29-1.92v.91A1.29,1.29,0,0,1,601.2,246.7Z"/><path class="cls-18" d="M599.91,249.34a.4.4,0,0,1,.4.4v5.89a.4.4,0,0,1-.79,0v-5.89A.4.4,0,0,1,599.91,249.34Z"/><path class="cls-18" d="M599.91,240.31a.4.4,0,0,1,.4.4v5.89a.4.4,0,0,1-.79,0v-5.89A.4.4,0,0,1,599.91,240.31Z"/><path class="cls-18" d="M490.5,159.93v-2.52a1.29,1.29,0,0,1,.5-1v-.91a2.08,2.08,0,0,0-1.29,1.92v2.52a2.08,2.08,0,0,0,1.29,1.92v-.91A1.29,1.29,0,0,1,490.5,159.93Z"/><path class="cls-18" d="M493.08,157.41v2.52a1.29,1.29,0,0,1-.5,1v.91a2.08,2.08,0,0,0,1.29-1.92v-2.52a2.08,2.08,0,0,0-1.29-1.92v.91A1.29,1.29,0,0,1,493.08,157.41Z"/><path class="cls-18" d="M491.79,160a.4.4,0,0,1,.4.4v5.89a.4.4,0,0,1-.79,0v-5.89A.4.4,0,0,1,491.79,160Z"/><path class="cls-18" d="M490.5,169v-2.52a1.29,1.29,0,0,1,.5-1v-.91a2.08,2.08,0,0,0-1.29,1.92V169a2.08,2.08,0,0,0,1.29,1.92V170A1.29,1.29,0,0,1,490.5,169Z"/><path class="cls-18" d="M493.08,166.44V169a1.29,1.29,0,0,1-.5,1v.91a2.08,2.08,0,0,0,1.29-1.92v-2.52a2.08,2.08,0,0,0-1.29-1.92v.91A1.29,1.29,0,0,1,493.08,166.44Z"/><path class="cls-18" d="M490.5,178v-2.52a1.29,1.29,0,0,1,.5-1v-.91a2.08,2.08,0,0,0-1.29,1.92V178a2.08,2.08,0,0,0,1.29,1.92V179A1.29,1.29,0,0,1,490.5,178Z"/><path class="cls-18" d="M493.08,175.47V178a1.29,1.29,0,0,1-.5,1v.91a2.08,2.08,0,0,0,1.29-1.92v-2.52a2.08,2.08,0,0,0-1.29-1.92v.91A1.29,1.29,0,0,1,493.08,175.47Z"/><path class="cls-18" d="M491.79,178.11a.4.4,0,0,1,.4.4v5.89a.4.4,0,0,1-.79,0v-5.89A.4.4,0,0,1,491.79,178.11Z"/><path class="cls-18" d="M491.79,169.08a.4.4,0,0,1,.4.4v5.89a.4.4,0,0,1-.79,0v-5.89A.4.4,0,0,1,491.79,169.08Z"/><path class="cls-18" d="M490.5,187v-2.52a1.29,1.29,0,0,1,.5-1v-.91a2.08,2.08,0,0,0-1.29,1.92V187a2.08,2.08,0,0,0,1.29,1.92V188A1.29,1.29,0,0,1,490.5,187Z"/><path class="cls-18" d="M493.08,184.51V187a1.29,1.29,0,0,1-.5,1v.91a2.08,2.08,0,0,0,1.29-1.92v-2.52a2.08,2.08,0,0,0-1.29-1.92v.91A1.29,1.29,0,0,1,493.08,184.51Z"/><path class="cls-18" d="M490.5,196.05v-2.52a1.29,1.29,0,0,1,.5-1v-.91a2.08,2.08,0,0,0-1.29,1.92v2.52A2.08,2.08,0,0,0,491,198v-.91A1.29,1.29,0,0,1,490.5,196.05Z"/><path class="cls-18" d="M493.08,193.54v2.52a1.29,1.29,0,0,1-.5,1V198a2.08,2.08,0,0,0,1.29-1.92v-2.52a2.08,2.08,0,0,0-1.29-1.92v.91A1.29,1.29,0,0,1,493.08,193.54Z"/><path class="cls-18" d="M491.79,196.17a.4.4,0,0,1,.4.4v5.89a.4.4,0,0,1-.79,0v-5.89A.4.4,0,0,1,491.79,196.17Z"/><path class="cls-18" d="M491.79,187.14a.4.4,0,0,1,.4.4v5.89a.4.4,0,0,1-.79,0v-5.89A.4.4,0,0,1,491.79,187.14Z"/><g class="cls-16"><polygon class="cls-17" points="509.81 134.8 491.91 145.21 473.89 134.8 491.79 124.4 509.81 134.8"/><polygon class="cls-10" points="509.81 134.8 509.76 153.29 491.86 163.69 491.91 145.21 509.81 134.8"/><polygon class="cls-14" points="491.91 145.21 491.86 163.69 473.84 153.29 473.89 134.8 491.91 145.21"/></g><path class="cls-18" d="M491.79,57.56a.4.4,0,0,1,.4.4v5.89a.4.4,0,1,1-.79,0V58A.4.4,0,0,1,491.79,57.56Z"/><path class="cls-18" d="M490.5,66.47V64a1.29,1.29,0,0,1,.5-1V62A2.08,2.08,0,0,0,489.71,64v2.52A2.08,2.08,0,0,0,491,68.39v-.91A1.29,1.29,0,0,1,490.5,66.47Z"/><path class="cls-18" d="M493.08,64v2.52a1.29,1.29,0,0,1-.5,1v.91a2.08,2.08,0,0,0,1.29-1.92V64A2.08,2.08,0,0,0,492.59,62v.91A1.29,1.29,0,0,1,493.08,64Z"/><path class="cls-18" d="M490.5,75.5V73a1.29,1.29,0,0,1,.5-1v-.91A2.08,2.08,0,0,0,489.71,73V75.5A2.08,2.08,0,0,0,491,77.43v-.91A1.29,1.29,0,0,1,490.5,75.5Z"/><path class="cls-18" d="M493.08,73V75.5a1.29,1.29,0,0,1-.5,1v.91a2.08,2.08,0,0,0,1.29-1.92V73a2.08,2.08,0,0,0-1.29-1.92V72A1.29,1.29,0,0,1,493.08,73Z"/><path class="cls-18" d="M491.79,75.62a.4.4,0,0,1,.4.4V81.9a.4.4,0,1,1-.79,0V76A.4.4,0,0,1,491.79,75.62Z"/><path class="cls-18" d="M491.79,66.59a.4.4,0,0,1,.4.4v5.89a.4.4,0,1,1-.79,0V67A.4.4,0,0,1,491.79,66.59Z"/><path class="cls-18" d="M490.5,84.53V82a1.29,1.29,0,0,1,.5-1v-.91A2.08,2.08,0,0,0,489.71,82v2.52A2.08,2.08,0,0,0,491,86.46v-.91A1.29,1.29,0,0,1,490.5,84.53Z"/><path class="cls-18" d="M493.08,82v2.52a1.29,1.29,0,0,1-.5,1v.91a2.08,2.08,0,0,0,1.29-1.92V82a2.08,2.08,0,0,0-1.29-1.92V81A1.29,1.29,0,0,1,493.08,82Z"/><path class="cls-18" d="M490.5,93.56V91a1.29,1.29,0,0,1,.5-1v-.91A2.08,2.08,0,0,0,489.71,91v2.52A2.08,2.08,0,0,0,491,95.49v-.91A1.29,1.29,0,0,1,490.5,93.56Z"/><path class="cls-18" d="M493.08,91v2.52a1.29,1.29,0,0,1-.5,1v.91a2.08,2.08,0,0,0,1.29-1.92V91a2.08,2.08,0,0,0-1.29-1.92V90A1.29,1.29,0,0,1,493.08,91Z"/><path class="cls-18" d="M491.79,93.68a.4.4,0,0,1,.4.4V100a.4.4,0,1,1-.79,0V94.08A.4.4,0,0,1,491.79,93.68Z"/><path class="cls-18" d="M491.79,84.65a.4.4,0,0,1,.4.4v5.89a.4.4,0,1,1-.79,0V85.05A.4.4,0,0,1,491.79,84.65Z"/><path class="cls-18" d="M490.5,102.6v-2.52a1.29,1.29,0,0,1,.5-1v-.91a2.08,2.08,0,0,0-1.29,1.92v2.52a2.08,2.08,0,0,0,1.29,1.92v-.91A1.29,1.29,0,0,1,490.5,102.6Z"/><path class="cls-18" d="M493.08,100.08v2.52a1.29,1.29,0,0,1-.5,1v.91a2.08,2.08,0,0,0,1.29-1.92v-2.52a2.08,2.08,0,0,0-1.29-1.92v.91A1.29,1.29,0,0,1,493.08,100.08Z"/><path class="cls-18" d="M490.5,111.63v-2.52a1.29,1.29,0,0,1,.5-1v-.91a2.08,2.08,0,0,0-1.29,1.92v2.52a2.08,2.08,0,0,0,1.29,1.92v-.91A1.29,1.29,0,0,1,490.5,111.63Z"/><path class="cls-18" d="M493.08,109.11v2.52a1.29,1.29,0,0,1-.5,1v.91a2.08,2.08,0,0,0,1.29-1.92v-2.52a2.08,2.08,0,0,0-1.29-1.92v.91A1.29,1.29,0,0,1,493.08,109.11Z"/><path class="cls-18" d="M491.79,111.75a.4.4,0,0,1,.4.4V118a.4.4,0,1,1-.79,0v-5.89A.4.4,0,0,1,491.79,111.75Z"/><path class="cls-18" d="M491.79,102.72a.4.4,0,0,1,.4.4V109a.4.4,0,1,1-.79,0v-5.89A.4.4,0,0,1,491.79,102.72Z"/><path class="cls-18" d="M490.5,120.66v-2.52a1.29,1.29,0,0,1,.5-1v-.91a2.08,2.08,0,0,0-1.29,1.92v2.52a2.08,2.08,0,0,0,1.29,1.92v-.91A1.29,1.29,0,0,1,490.5,120.66Z"/><path class="cls-18" d="M493.08,118.14v2.52a1.29,1.29,0,0,1-.5,1v.91a2.08,2.08,0,0,0,1.29-1.92v-2.52a2.08,2.08,0,0,0-1.29-1.92v.91A1.29,1.29,0,0,1,493.08,118.14Z"/><path class="cls-18" d="M490.5,129.69v-2.52a1.29,1.29,0,0,1,.5-1v-.91a2.08,2.08,0,0,0-1.29,1.92v2.52a2.08,2.08,0,0,0,1.29,1.92v-.91A1.29,1.29,0,0,1,490.5,129.69Z"/><path class="cls-18" d="M493.08,127.17v2.52a1.29,1.29,0,0,1-.5,1v.91a2.08,2.08,0,0,0,1.29-1.92v-2.52a2.08,2.08,0,0,0-1.29-1.92v.91A1.29,1.29,0,0,1,493.08,127.17Z"/><path class="cls-18" d="M491.79,129.81a.4.4,0,0,1,.4.4v5.89a.4.4,0,0,1-.79,0v-5.89A.4.4,0,0,1,491.79,129.81Z"/><path class="cls-18" d="M491.79,120.78a.4.4,0,0,1,.4.4v5.89a.4.4,0,1,1-.79,0v-5.89A.4.4,0,0,1,491.79,120.78Z"/><g class="cls-16"><polygon class="cls-17" points="633.07 123.2 600.81 141.95 568.34 123.2 600.6 104.45 633.07 123.2"/><polygon class="cls-10" points="633.07 123.2 632.98 156.51 600.72 175.26 600.81 141.95 633.07 123.2"/><polygon class="cls-14" points="600.81 141.95 600.72 175.26 568.24 156.51 568.34 123.2 600.81 141.95"/></g><path class="cls-18" d="M579.56,148.67h2.52a1.29,1.29,0,0,1,1,.5H584a2.08,2.08,0,0,0-1.92-1.29h-2.52a2.08,2.08,0,0,0-1.92,1.29h.91A1.29,1.29,0,0,1,579.56,148.67Z"/><path class="cls-18" d="M582.07,151.25h-2.52a1.29,1.29,0,0,1-1-.5h-.91a2.08,2.08,0,0,0,1.92,1.29h2.52a2.08,2.08,0,0,0,1.92-1.29h-.91A1.29,1.29,0,0,1,582.07,151.25Z"/><path class="cls-18" d="M579.44,150a.4.4,0,0,1-.4.4h-5.89a.4.4,0,0,1,0-.79H579A.4.4,0,0,1,579.44,150Z"/><path class="cls-18" d="M588.47,150a.4.4,0,0,1-.4.4h-5.89a.4.4,0,0,1,0-.79h5.89A.4.4,0,0,1,588.47,150Z"/><path class="cls-18" d="M570.53,148.67H573a1.29,1.29,0,0,1,1,.5H575a2.08,2.08,0,0,0-1.92-1.29h-2.52a2.08,2.08,0,0,0-1.92,1.29h.91A1.29,1.29,0,0,1,570.53,148.67Z"/><path class="cls-18" d="M573,151.25h-2.52a1.29,1.29,0,0,1-1-.5h-.91a2.08,2.08,0,0,0,1.92,1.29H573a2.08,2.08,0,0,0,1.92-1.29h-.91A1.29,1.29,0,0,1,573,151.25Z"/><path class="cls-18" d="M561.5,148.67H564a1.29,1.29,0,0,1,1,.5h.91a2.08,2.08,0,0,0-1.92-1.29H561.5a2.08,2.08,0,0,0-1.92,1.29h.91A1.29,1.29,0,0,1,561.5,148.67Z"/><path class="cls-18" d="M564,151.25H561.5a1.29,1.29,0,0,1-1-.5h-.91A2.08,2.08,0,0,0,561.5,152H564a2.08,2.08,0,0,0,1.92-1.29H565A1.29,1.29,0,0,1,564,151.25Z"/><path class="cls-18" d="M561.38,150a.4.4,0,0,1-.4.4h-5.89a.4.4,0,1,1,0-.79H561A.4.4,0,0,1,561.38,150Z"/><path class="cls-18" d="M570.41,150a.4.4,0,0,1-.4.4h-5.89a.4.4,0,1,1,0-.79H570A.4.4,0,0,1,570.41,150Z"/><path class="cls-18" d="M552.47,148.67H555a1.29,1.29,0,0,1,1,.5h.91a2.08,2.08,0,0,0-1.92-1.29h-2.52a2.08,2.08,0,0,0-1.92,1.29h.91A1.29,1.29,0,0,1,552.47,148.67Z"/><path class="cls-18" d="M555,151.25h-2.52a1.29,1.29,0,0,1-1-.5h-.91a2.08,2.08,0,0,0,1.92,1.29H555a2.08,2.08,0,0,0,1.92-1.29H556A1.29,1.29,0,0,1,555,151.25Z"/><path class="cls-18" d="M543.43,148.67H546a1.29,1.29,0,0,1,1,.5h.91a2.08,2.08,0,0,0-1.92-1.29h-2.52a2.08,2.08,0,0,0-1.92,1.29h.91A1.29,1.29,0,0,1,543.43,148.67Z"/><path class="cls-18" d="M546,151.25h-2.52a1.29,1.29,0,0,1-1-.5h-.91a2.08,2.08,0,0,0,1.92,1.29H546a2.08,2.08,0,0,0,1.92-1.29H547A1.29,1.29,0,0,1,546,151.25Z"/><path class="cls-18" d="M543.31,150a.4.4,0,0,1-.4.4H537a.4.4,0,0,1,0-.79h5.89A.4.4,0,0,1,543.31,150Z"/><path class="cls-18" d="M552.34,150a.4.4,0,0,1-.4.4h-5.89a.4.4,0,0,1,0-.79h5.89A.4.4,0,0,1,552.34,150Z"/><path class="cls-18" d="M534.4,148.67h2.52a1.29,1.29,0,0,1,1,.5h.91a2.08,2.08,0,0,0-1.92-1.29H534.4a2.08,2.08,0,0,0-1.92,1.29h.91A1.29,1.29,0,0,1,534.4,148.67Z"/><path class="cls-18" d="M536.92,151.25H534.4a1.29,1.29,0,0,1-1-.5h-.91A2.08,2.08,0,0,0,534.4,152h2.52a2.08,2.08,0,0,0,1.92-1.29h-.91A1.29,1.29,0,0,1,536.92,151.25Z"/><path class="cls-18" d="M525.37,148.67h2.52a1.29,1.29,0,0,1,1,.5h.91a2.08,2.08,0,0,0-1.92-1.29h-2.52a2.08,2.08,0,0,0-1.92,1.29h.91A1.29,1.29,0,0,1,525.37,148.67Z"/><path class="cls-18" d="M527.89,151.25h-2.52a1.29,1.29,0,0,1-1-.5h-.91a2.08,2.08,0,0,0,1.92,1.29h2.52a2.08,2.08,0,0,0,1.92-1.29h-.91A1.29,1.29,0,0,1,527.89,151.25Z"/><path class="cls-18" d="M525.25,150a.4.4,0,0,1-.4.4H519a.4.4,0,1,1,0-.79h5.89A.4.4,0,0,1,525.25,150Z"/><path class="cls-18" d="M534.28,150a.4.4,0,0,1-.4.4H528a.4.4,0,1,1,0-.79h5.89A.4.4,0,0,1,534.28,150Z"/><path class="cls-18" d="M516.34,148.67h2.52a1.29,1.29,0,0,1,1,.5h.91a2.08,2.08,0,0,0-1.92-1.29h-2.52a2.08,2.08,0,0,0-1.92,1.29h.91A1.29,1.29,0,0,1,516.34,148.67Z"/><path class="cls-18" d="M518.86,151.25h-2.52a1.29,1.29,0,0,1-1-.5h-.91a2.08,2.08,0,0,0,1.92,1.29h2.52a2.08,2.08,0,0,0,1.92-1.29h-.91A1.29,1.29,0,0,1,518.86,151.25Z"/><path class="cls-18" d="M507.31,148.67h2.52a1.29,1.29,0,0,1,1,.5h.91a2.08,2.08,0,0,0-1.92-1.29h-2.52a2.08,2.08,0,0,0-1.92,1.29h.91A1.29,1.29,0,0,1,507.31,148.67Z"/><path class="cls-18" d="M509.83,151.25h-2.52a1.29,1.29,0,0,1-1-.5h-.91a2.08,2.08,0,0,0,1.92,1.29h2.52a2.08,2.08,0,0,0,1.92-1.29h-.91A1.29,1.29,0,0,1,509.83,151.25Z"/><path class="cls-18" d="M507.19,150a.4.4,0,0,1-.4.4h-5.89a.4.4,0,0,1,0-.79h5.89A.4.4,0,0,1,507.19,150Z"/><path class="cls-18" d="M516.22,150a.4.4,0,0,1-.4.4h-5.89a.4.4,0,0,1,0-.79h5.89A.4.4,0,0,1,516.22,150Z"/><path class="cls-18" d="M601.2,39V41.5a1.29,1.29,0,1,1-2.58,0V39a1.29,1.29,0,0,1,.5-1v-.91A2.08,2.08,0,0,0,597.83,39V41.5a2.08,2.08,0,0,0,4.16,0V39a2.08,2.08,0,0,0-1.29-1.92V38A1.29,1.29,0,0,1,601.2,39Z"/><path class="cls-18" d="M599.91,32.59a.4.4,0,0,1,.4.4v5.89a.4.4,0,0,1-.79,0V33A.4.4,0,0,1,599.91,32.59Z"/><path class="cls-18" d="M598.62,41.5V39a1.29,1.29,0,0,1,.5-1v-.91A2.08,2.08,0,0,0,597.83,39V41.5a2.08,2.08,0,0,0,1.29,1.92v-.91A1.29,1.29,0,0,1,598.62,41.5Z"/><path class="cls-18" d="M601.2,39V41.5a1.29,1.29,0,0,1-.5,1v.91A2.08,2.08,0,0,0,602,41.5V39a2.08,2.08,0,0,0-1.29-1.92V38A1.29,1.29,0,0,1,601.2,39Z"/><path class="cls-18" d="M598.62,50.53V48a1.29,1.29,0,0,1,.5-1v-.91A2.08,2.08,0,0,0,597.83,48v2.52a2.08,2.08,0,0,0,1.29,1.92v-.91A1.29,1.29,0,0,1,598.62,50.53Z"/><path class="cls-18" d="M601.2,48v2.52a1.29,1.29,0,0,1-.5,1v.91A2.08,2.08,0,0,0,602,50.53V48a2.08,2.08,0,0,0-1.29-1.92V47A1.29,1.29,0,0,1,601.2,48Z"/><path class="cls-18" d="M599.91,50.65a.4.4,0,0,1,.4.4v5.89a.4.4,0,0,1-.79,0V51.05A.4.4,0,0,1,599.91,50.65Z"/><path class="cls-18" d="M599.91,41.62a.4.4,0,0,1,.4.4v5.89a.4.4,0,0,1-.79,0V42A.4.4,0,0,1,599.91,41.62Z"/><path class="cls-18" d="M598.62,59.57V57a1.29,1.29,0,0,1,.5-1v-.91A2.08,2.08,0,0,0,597.83,57v2.52a2.08,2.08,0,0,0,1.29,1.92v-.91A1.29,1.29,0,0,1,598.62,59.57Z"/><path class="cls-18" d="M601.2,57v2.52a1.29,1.29,0,0,1-.5,1v.91A2.08,2.08,0,0,0,602,59.57V57a2.08,2.08,0,0,0-1.29-1.92V56A1.29,1.29,0,0,1,601.2,57Z"/><path class="cls-18" d="M598.62,68.6V66.08a1.29,1.29,0,0,1,.5-1v-.91a2.08,2.08,0,0,0-1.29,1.92V68.6a2.08,2.08,0,0,0,1.29,1.92v-.91A1.29,1.29,0,0,1,598.62,68.6Z"/><path class="cls-18" d="M601.2,66.08V68.6a1.29,1.29,0,0,1-.5,1v.91A2.08,2.08,0,0,0,602,68.6V66.08a2.08,2.08,0,0,0-1.29-1.92v.91A1.29,1.29,0,0,1,601.2,66.08Z"/><path class="cls-18" d="M599.91,68.72a.4.4,0,0,1,.4.4V75a.4.4,0,0,1-.79,0V69.11A.4.4,0,0,1,599.91,68.72Z"/><path class="cls-18" d="M599.91,59.69a.4.4,0,0,1,.4.4V66a.4.4,0,1,1-.79,0V60.08A.4.4,0,0,1,599.91,59.69Z"/><path class="cls-18" d="M598.62,77.63V75.11a1.29,1.29,0,0,1,.5-1v-.91a2.08,2.08,0,0,0-1.29,1.92v2.52a2.08,2.08,0,0,0,1.29,1.92v-.91A1.29,1.29,0,0,1,598.62,77.63Z"/><path class="cls-18" d="M601.2,75.11v2.52a1.29,1.29,0,0,1-.5,1v.91A2.08,2.08,0,0,0,602,77.63V75.11a2.08,2.08,0,0,0-1.29-1.92v.91A1.29,1.29,0,0,1,601.2,75.11Z"/><path class="cls-18" d="M599.91,77.75a.4.4,0,0,1,.4.4V84a.4.4,0,1,1-.79,0V78.14A.4.4,0,0,1,599.91,77.75Z"/><path class="cls-18" d="M601.2,73.54v2.52a1.29,1.29,0,1,1-2.58,0V73.54a1.29,1.29,0,0,1,.5-1v-.91a2.08,2.08,0,0,0-1.29,1.92v2.52a2.08,2.08,0,0,0,4.16,0V73.54a2.08,2.08,0,0,0-1.29-1.92v.91A1.29,1.29,0,0,1,601.2,73.54Z"/><path class="cls-18" d="M599.91,67.14a.4.4,0,0,1,.4.4v5.89a.4.4,0,0,1-.79,0V67.54A.4.4,0,0,1,599.91,67.14Z"/><path class="cls-18" d="M598.62,76.05V73.54a1.29,1.29,0,0,1,.5-1v-.91a2.08,2.08,0,0,0-1.29,1.92v2.52A2.08,2.08,0,0,0,599.12,78v-.91A1.29,1.29,0,0,1,598.62,76.05Z"/><path class="cls-18" d="M601.2,73.54v2.52a1.29,1.29,0,0,1-.5,1V78A2.08,2.08,0,0,0,602,76.05V73.54a2.08,2.08,0,0,0-1.29-1.92v.91A1.29,1.29,0,0,1,601.2,73.54Z"/><path class="cls-18" d="M598.62,85.08V82.57a1.29,1.29,0,0,1,.5-1v-.91a2.08,2.08,0,0,0-1.29,1.92v2.52A2.08,2.08,0,0,0,599.12,87V86.1A1.29,1.29,0,0,1,598.62,85.08Z"/><path class="cls-18" d="M601.2,82.57v2.52a1.29,1.29,0,0,1-.5,1V87A2.08,2.08,0,0,0,602,85.08V82.57a2.08,2.08,0,0,0-1.29-1.92v.91A1.29,1.29,0,0,1,601.2,82.57Z"/><path class="cls-18" d="M599.91,85.2a.4.4,0,0,1,.4.4v5.89a.4.4,0,0,1-.79,0V85.6A.4.4,0,0,1,599.91,85.2Z"/><path class="cls-18" d="M599.91,76.17a.4.4,0,0,1,.4.4v5.89a.4.4,0,0,1-.79,0V76.57A.4.4,0,0,1,599.91,76.17Z"/><path class="cls-18" d="M598.62,94.11V91.6a1.29,1.29,0,0,1,.5-1v-.91a2.08,2.08,0,0,0-1.29,1.92v2.52A2.08,2.08,0,0,0,599.12,96v-.91A1.29,1.29,0,0,1,598.62,94.11Z"/><path class="cls-18" d="M601.2,91.6v2.52a1.29,1.29,0,0,1-.5,1V96A2.08,2.08,0,0,0,602,94.11V91.6a2.08,2.08,0,0,0-1.29-1.92v.91A1.29,1.29,0,0,1,601.2,91.6Z"/><path class="cls-18" d="M598.62,103.15v-2.52a1.29,1.29,0,0,1,.5-1v-.91a2.08,2.08,0,0,0-1.29,1.92v2.52a2.08,2.08,0,0,0,1.29,1.92v-.91A1.29,1.29,0,0,1,598.62,103.15Z"/><path class="cls-18" d="M601.2,100.63v2.52a1.29,1.29,0,0,1-.5,1v.91a2.08,2.08,0,0,0,1.29-1.92v-2.52a2.08,2.08,0,0,0-1.29-1.92v.91A1.29,1.29,0,0,1,601.2,100.63Z"/><path class="cls-18" d="M599.91,103.27a.4.4,0,0,1,.4.4v5.89a.4.4,0,0,1-.79,0v-5.89A.4.4,0,0,1,599.91,103.27Z"/><path class="cls-18" d="M599.91,94.23a.4.4,0,0,1,.4.4v5.89a.4.4,0,1,1-.79,0V94.63A.4.4,0,0,1,599.91,94.23Z"/><path class="cls-18" d="M598.62,112.18v-2.52a1.29,1.29,0,0,1,.5-1v-.91a2.08,2.08,0,0,0-1.29,1.92v2.52a2.08,2.08,0,0,0,1.29,1.92v-.91A1.29,1.29,0,0,1,598.62,112.18Z"/><path class="cls-18" d="M601.2,109.66v2.52a1.29,1.29,0,0,1-.5,1v.91a2.08,2.08,0,0,0,1.29-1.92v-2.52a2.08,2.08,0,0,0-1.29-1.92v.91A1.29,1.29,0,0,1,601.2,109.66Z"/><path class="cls-18" d="M599.91,112.3a.4.4,0,0,1,.4.4v5.89a.4.4,0,1,1-.79,0v-5.89A.4.4,0,0,1,599.91,112.3Z"/><path class="cls-18" d="M707.41,159.93v-2.52a1.29,1.29,0,0,1,.5-1v-.91a2.08,2.08,0,0,0-1.29,1.92v2.52a2.08,2.08,0,0,0,1.29,1.92v-.91A1.29,1.29,0,0,1,707.41,159.93Z"/><path class="cls-18" d="M710,157.41v2.52a1.29,1.29,0,0,1-.5,1v.91a2.08,2.08,0,0,0,1.29-1.92v-2.52a2.08,2.08,0,0,0-1.29-1.92v.91A1.29,1.29,0,0,1,710,157.41Z"/><path class="cls-18" d="M708.7,160a.4.4,0,0,1,.4.4v5.89a.4.4,0,0,1-.79,0v-5.89A.4.4,0,0,1,708.7,160Z"/><path class="cls-18" d="M707.41,169v-2.52a1.29,1.29,0,0,1,.5-1v-.91a2.08,2.08,0,0,0-1.29,1.92V169a2.08,2.08,0,0,0,1.29,1.92V170A1.29,1.29,0,0,1,707.41,169Z"/><path class="cls-18" d="M710,166.44V169a1.29,1.29,0,0,1-.5,1v.91a2.08,2.08,0,0,0,1.29-1.92v-2.52a2.08,2.08,0,0,0-1.29-1.92v.91A1.29,1.29,0,0,1,710,166.44Z"/><path class="cls-18" d="M707.41,178v-2.52a1.29,1.29,0,0,1,.5-1v-.91a2.08,2.08,0,0,0-1.29,1.92V178a2.08,2.08,0,0,0,1.29,1.92V179A1.29,1.29,0,0,1,707.41,178Z"/><path class="cls-18" d="M710,175.47V178a1.29,1.29,0,0,1-.5,1v.91a2.08,2.08,0,0,0,1.29-1.92v-2.52a2.08,2.08,0,0,0-1.29-1.92v.91A1.29,1.29,0,0,1,710,175.47Z"/><path class="cls-18" d="M708.7,178.11a.4.4,0,0,1,.4.4v5.89a.4.4,0,0,1-.79,0v-5.89A.4.4,0,0,1,708.7,178.11Z"/><path class="cls-18" d="M708.7,169.08a.4.4,0,0,1,.4.4v5.89a.4.4,0,0,1-.79,0v-5.89A.4.4,0,0,1,708.7,169.08Z"/><path class="cls-18" d="M707.41,187v-2.52a1.29,1.29,0,0,1,.5-1v-.91a2.08,2.08,0,0,0-1.29,1.92V187a2.08,2.08,0,0,0,1.29,1.92V188A1.29,1.29,0,0,1,707.41,187Z"/><path class="cls-18" d="M710,184.51V187a1.29,1.29,0,0,1-.5,1v.91a2.08,2.08,0,0,0,1.29-1.92v-2.52a2.08,2.08,0,0,0-1.29-1.92v.91A1.29,1.29,0,0,1,710,184.51Z"/><path class="cls-18" d="M707.41,196.05v-2.52a1.29,1.29,0,0,1,.5-1v-.91a2.08,2.08,0,0,0-1.29,1.92v2.52a2.08,2.08,0,0,0,1.29,1.92v-.91A1.29,1.29,0,0,1,707.41,196.05Z"/><path class="cls-18" d="M710,193.54v2.52a1.29,1.29,0,0,1-.5,1V198a2.08,2.08,0,0,0,1.29-1.92v-2.52a2.08,2.08,0,0,0-1.29-1.92v.91A1.29,1.29,0,0,1,710,193.54Z"/><path class="cls-18" d="M708.7,196.17a.4.4,0,0,1,.4.4v5.89a.4.4,0,0,1-.79,0v-5.89A.4.4,0,0,1,708.7,196.17Z"/><path class="cls-18" d="M708.7,187.14a.4.4,0,0,1,.4.4v5.89a.4.4,0,0,1-.79,0v-5.89A.4.4,0,0,1,708.7,187.14Z"/><g class="cls-16"><polygon class="cls-17" points="726.72 134.8 708.82 145.21 690.8 134.8 708.7 124.4 726.72 134.8"/><polygon class="cls-10" points="726.72 134.8 726.67 153.29 708.77 163.69 708.82 145.21 726.72 134.8"/><polygon class="cls-14" points="708.82 145.21 708.77 163.69 690.75 153.29 690.8 134.8 708.82 145.21"/></g><path class="cls-18" d="M708.7,57.56a.4.4,0,0,1,.4.4v5.89a.4.4,0,0,1-.79,0V58A.4.4,0,0,1,708.7,57.56Z"/><path class="cls-18" d="M707.41,66.47V64a1.29,1.29,0,0,1,.5-1V62A2.08,2.08,0,0,0,706.62,64v2.52a2.08,2.08,0,0,0,1.29,1.92v-.91A1.29,1.29,0,0,1,707.41,66.47Z"/><path class="cls-18" d="M710,64v2.52a1.29,1.29,0,0,1-.5,1v.91a2.08,2.08,0,0,0,1.29-1.92V64A2.08,2.08,0,0,0,709.49,62v.91A1.29,1.29,0,0,1,710,64Z"/><path class="cls-18" d="M707.41,75.5V73a1.29,1.29,0,0,1,.5-1v-.91A2.08,2.08,0,0,0,706.62,73V75.5a2.08,2.08,0,0,0,1.29,1.92v-.91A1.29,1.29,0,0,1,707.41,75.5Z"/><path class="cls-18" d="M710,73V75.5a1.29,1.29,0,0,1-.5,1v.91a2.08,2.08,0,0,0,1.29-1.92V73a2.08,2.08,0,0,0-1.29-1.92V72A1.29,1.29,0,0,1,710,73Z"/><path class="cls-18" d="M708.7,75.62a.4.4,0,0,1,.4.4V81.9a.4.4,0,0,1-.79,0V76A.4.4,0,0,1,708.7,75.62Z"/><path class="cls-18" d="M708.7,66.59a.4.4,0,0,1,.4.4v5.89a.4.4,0,0,1-.79,0V67A.4.4,0,0,1,708.7,66.59Z"/><path class="cls-18" d="M707.41,84.53V82a1.29,1.29,0,0,1,.5-1v-.91A2.08,2.08,0,0,0,706.62,82v2.52a2.08,2.08,0,0,0,1.29,1.92v-.91A1.29,1.29,0,0,1,707.41,84.53Z"/><path class="cls-18" d="M710,82v2.52a1.29,1.29,0,0,1-.5,1v.91a2.08,2.08,0,0,0,1.29-1.92V82a2.08,2.08,0,0,0-1.29-1.92V81A1.29,1.29,0,0,1,710,82Z"/><path class="cls-18" d="M707.41,93.56V91a1.29,1.29,0,0,1,.5-1v-.91A2.08,2.08,0,0,0,706.62,91v2.52a2.08,2.08,0,0,0,1.29,1.92v-.91A1.29,1.29,0,0,1,707.41,93.56Z"/><path class="cls-18" d="M710,91v2.52a1.29,1.29,0,0,1-.5,1v.91a2.08,2.08,0,0,0,1.29-1.92V91a2.08,2.08,0,0,0-1.29-1.92V90A1.29,1.29,0,0,1,710,91Z"/><path class="cls-18" d="M708.7,93.68a.4.4,0,0,1,.4.4V100a.4.4,0,0,1-.79,0V94.08A.4.4,0,0,1,708.7,93.68Z"/><path class="cls-18" d="M708.7,84.65a.4.4,0,0,1,.4.4v5.89a.4.4,0,0,1-.79,0V85.05A.4.4,0,0,1,708.7,84.65Z"/><path class="cls-18" d="M707.41,102.6v-2.52a1.29,1.29,0,0,1,.5-1v-.91a2.08,2.08,0,0,0-1.29,1.92v2.52a2.08,2.08,0,0,0,1.29,1.92v-.91A1.29,1.29,0,0,1,707.41,102.6Z"/><path class="cls-18" d="M710,100.08v2.52a1.29,1.29,0,0,1-.5,1v.91a2.08,2.08,0,0,0,1.29-1.92v-2.52a2.08,2.08,0,0,0-1.29-1.92v.91A1.29,1.29,0,0,1,710,100.08Z"/><path class="cls-18" d="M707.41,111.63v-2.52a1.29,1.29,0,0,1,.5-1v-.91a2.08,2.08,0,0,0-1.29,1.92v2.52a2.08,2.08,0,0,0,1.29,1.92v-.91A1.29,1.29,0,0,1,707.41,111.63Z"/><path class="cls-18" d="M710,109.11v2.52a1.29,1.29,0,0,1-.5,1v.91a2.08,2.08,0,0,0,1.29-1.92v-2.52a2.08,2.08,0,0,0-1.29-1.92v.91A1.29,1.29,0,0,1,710,109.11Z"/><path class="cls-18" d="M708.7,111.75a.4.4,0,0,1,.4.4V118a.4.4,0,1,1-.79,0v-5.89A.4.4,0,0,1,708.7,111.75Z"/><path class="cls-18" d="M708.7,102.72a.4.4,0,0,1,.4.4V109a.4.4,0,1,1-.79,0v-5.89A.4.4,0,0,1,708.7,102.72Z"/><path class="cls-18" d="M707.41,120.66v-2.52a1.29,1.29,0,0,1,.5-1v-.91a2.08,2.08,0,0,0-1.29,1.92v2.52a2.08,2.08,0,0,0,1.29,1.92v-.91A1.29,1.29,0,0,1,707.41,120.66Z"/><path class="cls-18" d="M710,118.14v2.52a1.29,1.29,0,0,1-.5,1v.91a2.08,2.08,0,0,0,1.29-1.92v-2.52a2.08,2.08,0,0,0-1.29-1.92v.91A1.29,1.29,0,0,1,710,118.14Z"/><path class="cls-18" d="M707.41,129.69v-2.52a1.29,1.29,0,0,1,.5-1v-.91a2.08,2.08,0,0,0-1.29,1.92v2.52a2.08,2.08,0,0,0,1.29,1.92v-.91A1.29,1.29,0,0,1,707.41,129.69Z"/><path class="cls-18" d="M710,127.17v2.52a1.29,1.29,0,0,1-.5,1v.91a2.08,2.08,0,0,0,1.29-1.92v-2.52a2.08,2.08,0,0,0-1.29-1.92v.91A1.29,1.29,0,0,1,710,127.17Z"/><path class="cls-18" d="M708.7,129.81a.4.4,0,0,1,.4.4v5.89a.4.4,0,0,1-.79,0v-5.89A.4.4,0,0,1,708.7,129.81Z"/><path class="cls-18" d="M708.7,120.78a.4.4,0,0,1,.4.4v5.89a.4.4,0,1,1-.79,0v-5.89A.4.4,0,0,1,708.7,120.78Z"/><g class="cls-16"><polygon class="cls-17" points="618.23 10.44 600.33 20.84 582.3 10.44 600.21 0.04 618.23 10.44"/><polygon class="cls-10" points="618.23 10.44 618.17 28.93 600.27 39.33 600.33 20.84 618.23 10.44"/><polygon class="cls-14" points="600.33 20.84 600.27 39.33 582.25 28.93 582.3 10.44 600.33 20.84"/></g><path class="cls-18" d="M497.31,70.88a.4.4,0,0,1,.19-.53l5.31-2.54a.4.4,0,0,1,.34.72l-5.31,2.54A.4.4,0,0,1,497.31,70.88Z"/><path class="cls-18" d="M505.91,68.2l-2.27,1.09a1.29,1.29,0,0,1-1.13,0l-.82.39A2.08,2.08,0,0,0,504,70l2.27-1.09a2.08,2.08,0,0,0,1.18-2l-.82.39A1.29,1.29,0,0,1,505.91,68.2Z"/><path class="cls-18" d="M502.52,67l2.27-1.09a1.29,1.29,0,0,1,1.13,0l.82-.39a2.08,2.08,0,0,0-2.29-.33l-2.27,1.09a2.08,2.08,0,0,0-1.18,2l.82-.39A1.29,1.29,0,0,1,502.52,67Z"/><path class="cls-18" d="M518.82,59.17l2.27-1.09a1.29,1.29,0,1,1,1.11,2.32l-2.27,1.09a1.29,1.29,0,0,1-1.13,0l-.82.39a2.08,2.08,0,0,0,2.29.33l2.27-1.09a2.08,2.08,0,0,0-1.8-3.76l-2.27,1.09a2.08,2.08,0,0,0-1.18,2l.82-.39A1.29,1.29,0,0,1,518.82,59.17Z"/><path class="cls-18" d="M514.05,64.31l-2.27,1.09a1.29,1.29,0,0,1-1.13,0l-.82.39a2.08,2.08,0,0,0,2.29.33L514.4,65a2.08,2.08,0,0,0,1.18-2l-.82.39A1.29,1.29,0,0,1,514.05,64.31Z"/><path class="cls-18" d="M510.67,63.07,512.94,62a1.29,1.29,0,0,1,1.13,0l.82-.39a2.08,2.08,0,0,0-2.29-.33l-2.27,1.09a2.08,2.08,0,0,0-1.18,2L510,64A1.29,1.29,0,0,1,510.67,63.07Z"/><path class="cls-18" d="M513.61,63.09a.4.4,0,0,1,.19-.53L519.1,60a.4.4,0,0,1,.34.72l-5.31,2.54A.4.4,0,0,1,513.61,63.09Z"/><path class="cls-18" d="M505.46,67a.4.4,0,0,1,.19-.53L511,63.92a.4.4,0,1,1,.34.72L506,67.17A.4.4,0,0,1,505.46,67Z"/><path class="cls-18" d="M522.2,60.41l-2.27,1.09a1.29,1.29,0,0,1-1.13,0l-.82.39a2.08,2.08,0,0,0,2.29.33l2.27-1.09a2.08,2.08,0,0,0,1.18-2l-.82.39A1.29,1.29,0,0,1,522.2,60.41Z"/><path class="cls-18" d="M518.82,59.17l2.27-1.09a1.29,1.29,0,0,1,1.13,0l.82-.39a2.08,2.08,0,0,0-2.29-.33l-2.27,1.09a2.08,2.08,0,0,0-1.18,2l.82-.39A1.29,1.29,0,0,1,518.82,59.17Z"/><path class="cls-18" d="M530.35,56.52l-2.27,1.09a1.29,1.29,0,0,1-1.13,0l-.82.39a2.08,2.08,0,0,0,2.29.33l2.27-1.09a2.08,2.08,0,0,0,1.18-2l-.82.39A1.29,1.29,0,0,1,530.35,56.52Z"/><path class="cls-18" d="M527,55.28l2.27-1.09a1.29,1.29,0,0,1,1.13,0l.82-.39a2.08,2.08,0,0,0-2.29-.33l-2.27,1.09a2.08,2.08,0,0,0-1.18,2l.82-.39A1.29,1.29,0,0,1,527,55.28Z"/><path class="cls-18" d="M529.9,55.3a.4.4,0,0,1,.19-.53l5.31-2.54a.4.4,0,0,1,.34.72l-5.31,2.54A.4.4,0,0,1,529.9,55.3Z"/><path class="cls-18" d="M521.75,59.2a.4.4,0,0,1,.19-.53l5.31-2.54a.4.4,0,1,1,.34.72l-5.31,2.54A.4.4,0,0,1,521.75,59.2Z"/><path class="cls-18" d="M538.5,52.62l-2.27,1.09a1.29,1.29,0,0,1-1.13,0l-.82.39a2.08,2.08,0,0,0,2.29.33l2.27-1.09a2.08,2.08,0,0,0,1.18-2l-.82.39A1.29,1.29,0,0,1,538.5,52.62Z"/><path class="cls-18" d="M535.12,51.38l2.27-1.09a1.29,1.29,0,0,1,1.13,0l.82-.39a2.08,2.08,0,0,0-2.29-.33l-2.27,1.09a2.08,2.08,0,0,0-1.18,2l.82-.39A1.29,1.29,0,0,1,535.12,51.38Z"/><path class="cls-18" d="M546.64,48.73l-2.27,1.09a1.29,1.29,0,0,1-1.13,0l-.82.39a2.08,2.08,0,0,0,2.29.33L547,49.44a2.08,2.08,0,0,0,1.18-2l-.82.39A1.29,1.29,0,0,1,546.64,48.73Z"/><path class="cls-18" d="M543.26,47.49l2.27-1.09a1.29,1.29,0,0,1,1.13,0l.82-.39a2.08,2.08,0,0,0-2.29-.33l-2.27,1.09a2.08,2.08,0,0,0-1.18,2l.82-.39A1.29,1.29,0,0,1,543.26,47.49Z"/><path class="cls-18" d="M546.2,47.51a.4.4,0,0,1,.19-.53l5.31-2.54a.4.4,0,1,1,.34.72l-5.31,2.54A.4.4,0,0,1,546.2,47.51Z"/><path class="cls-18" d="M538,51.41a.4.4,0,0,1,.19-.53l5.31-2.54a.4.4,0,0,1,.34.72l-5.31,2.54A.4.4,0,0,1,538,51.41Z"/><path class="cls-18" d="M554.79,44.83l-2.27,1.09a1.29,1.29,0,0,1-1.13,0l-.82.39a2.08,2.08,0,0,0,2.29.33l2.27-1.09a2.08,2.08,0,0,0,1.18-2l-.82.39A1.29,1.29,0,0,1,554.79,44.83Z"/><path class="cls-18" d="M551.41,43.59l2.27-1.09a1.29,1.29,0,0,1,1.13,0l.82-.39a2.08,2.08,0,0,0-2.29-.33l-2.27,1.09a2.08,2.08,0,0,0-1.18,2l.82-.39A1.29,1.29,0,0,1,551.41,43.59Z"/><path class="cls-18" d="M562.94,40.94,560.67,42a1.29,1.29,0,0,1-1.13,0l-.82.39a2.08,2.08,0,0,0,2.29.33l2.27-1.09a2.08,2.08,0,0,0,1.18-2l-.82.39A1.29,1.29,0,0,1,562.94,40.94Z"/><path class="cls-18" d="M559.56,39.7l2.27-1.09a1.29,1.29,0,0,1,1.13,0l.82-.39a2.08,2.08,0,0,0-2.29-.33L559.22,39A2.08,2.08,0,0,0,558,41l.82-.39A1.29,1.29,0,0,1,559.56,39.7Z"/><path class="cls-18" d="M562.49,39.72a.4.4,0,0,1,.19-.53L568,36.65a.4.4,0,1,1,.34.72L563,39.91A.4.4,0,0,1,562.49,39.72Z"/><path class="cls-18" d="M554.35,43.62a.4.4,0,0,1,.19-.53l5.31-2.54a.4.4,0,1,1,.34.72l-5.31,2.54A.4.4,0,0,1,554.35,43.62Z"/><path class="cls-18" d="M571.09,37l-2.27,1.09a1.29,1.29,0,0,1-1.13,0l-.82.39a2.08,2.08,0,0,0,2.29.33l2.27-1.09a2.08,2.08,0,0,0,1.18-2l-.82.39A1.29,1.29,0,0,1,571.09,37Z"/><path class="cls-18" d="M567.71,35.8,570,34.71a1.29,1.29,0,0,1,1.13,0l.82-.39a2.08,2.08,0,0,0-2.29-.33l-2.27,1.09a2.08,2.08,0,0,0-1.18,2l.82-.39A1.29,1.29,0,0,1,567.71,35.8Z"/><path class="cls-18" d="M579.24,33.14,577,34.23a1.29,1.29,0,0,1-1.13,0l-.82.39a2.08,2.08,0,0,0,2.29.33l2.27-1.09a2.08,2.08,0,0,0,1.18-2l-.82.39A1.29,1.29,0,0,1,579.24,33.14Z"/><path class="cls-18" d="M575.86,31.9l2.27-1.09a1.29,1.29,0,0,1,1.13,0l.82-.39a2.08,2.08,0,0,0-2.29-.33l-2.27,1.09a2.08,2.08,0,0,0-1.18,2l.82-.39A1.29,1.29,0,0,1,575.86,31.9Z"/><path class="cls-18" d="M578.79,31.93a.4.4,0,0,1,.19-.53l5.31-2.54a.4.4,0,0,1,.34.72l-5.31,2.54A.4.4,0,0,1,578.79,31.93Z"/><path class="cls-18" d="M570.64,35.83a.4.4,0,0,1,.19-.53l5.31-2.54a.4.4,0,0,1,.34.72L571.17,36A.4.4,0,0,1,570.64,35.83Z"/><path class="cls-18" d="M587.38,29.25l-2.27,1.09a1.29,1.29,0,0,1-1.13,0l-.82.39a2.08,2.08,0,0,0,2.29.33L587.73,30a2.08,2.08,0,0,0,1.18-2l-.82.39A1.29,1.29,0,0,1,587.38,29.25Z"/><path class="cls-18" d="M584,28l2.27-1.09a1.29,1.29,0,0,1,1.13,0l.82-.39a2.08,2.08,0,0,0-2.29-.33l-2.27,1.09a2.08,2.08,0,0,0-1.18,2l.82-.39A1.29,1.29,0,0,1,584,28Z"/><path class="cls-18" d="M586.94,28a.4.4,0,0,1,.19-.53L592.43,25a.4.4,0,1,1,.34.72l-5.31,2.54A.4.4,0,0,1,586.94,28Z"/><path class="cls-18" d="M615.15,30.65l-2.25-1.12a1.29,1.29,0,0,1-.69-.9l-.81-.41a2.08,2.08,0,0,0,1.15,2l2.25,1.12a2.08,2.08,0,0,0,2.3-.29l-.81-.41A1.29,1.29,0,0,1,615.15,30.65Z"/><path class="cls-18" d="M614,27.22l2.25,1.12a1.29,1.29,0,0,1,.69.9l.81.41a2.08,2.08,0,0,0-1.15-2l-2.25-1.12a2.08,2.08,0,0,0-2.3.29l.81.41A1.29,1.29,0,0,1,614,27.22Z"/><path class="cls-18" d="M615.83,29.55a.4.4,0,0,1,.53-.18L621.63,32a.4.4,0,1,1-.35.71L616,30.09A.4.4,0,0,1,615.83,29.55Z"/><path class="cls-18" d="M607.75,25.52a.4.4,0,0,1,.53-.18L613.55,28a.4.4,0,1,1-.35.71l-5.27-2.63A.4.4,0,0,1,607.75,25.52Z"/><path class="cls-18" d="M623.23,34.68,621,33.56a1.29,1.29,0,0,1-.69-.9l-.81-.41a2.08,2.08,0,0,0,1.15,2l2.25,1.12a2.08,2.08,0,0,0,2.3-.29l-.81-.41A1.29,1.29,0,0,1,623.23,34.68Z"/><path class="cls-18" d="M622.13,31.26l2.25,1.12a1.29,1.29,0,0,1,.69.9l.81.41a2.08,2.08,0,0,0-1.15-2l-2.25-1.12a2.08,2.08,0,0,0-2.3.29l.81.41A1.29,1.29,0,0,1,622.13,31.26Z"/><path class="cls-18" d="M631.31,38.71l-2.25-1.12a1.29,1.29,0,0,1-.69-.9l-.81-.41a2.08,2.08,0,0,0,1.15,2L631,39.42a2.08,2.08,0,0,0,2.3-.29l-.81-.41A1.29,1.29,0,0,1,631.31,38.71Z"/><path class="cls-18" d="M630.21,35.29l2.25,1.12a1.29,1.29,0,0,1,.69.9l.81.41a2.08,2.08,0,0,0-1.15-2l-2.25-1.12a2.08,2.08,0,0,0-2.3.29l.81.41A1.29,1.29,0,0,1,630.21,35.29Z"/><path class="cls-18" d="M632,37.62a.4.4,0,0,1,.53-.18l5.27,2.63a.4.4,0,1,1-.35.71l-5.27-2.63A.4.4,0,0,1,632,37.62Z"/><path class="cls-18" d="M623.91,33.58a.4.4,0,0,1,.53-.18L629.71,36a.4.4,0,0,1-.35.71l-5.27-2.63A.4.4,0,0,1,623.91,33.58Z"/><path class="cls-18" d="M639.4,42.75l-2.25-1.12a1.29,1.29,0,0,1-.69-.9l-.81-.41a2.08,2.08,0,0,0,1.15,2L639,43.46a2.08,2.08,0,0,0,2.3-.29l-.81-.41A1.29,1.29,0,0,1,639.4,42.75Z"/><path class="cls-18" d="M638.29,39.32l2.25,1.12a1.29,1.29,0,0,1,.69.9l.81.41a2.08,2.08,0,0,0-1.15-2l-2.25-1.12a2.08,2.08,0,0,0-2.3.29l.81.41A1.29,1.29,0,0,1,638.29,39.32Z"/><path class="cls-18" d="M647.48,46.78l-2.25-1.12a1.29,1.29,0,0,1-.69-.9l-.81-.41a2.08,2.08,0,0,0,1.15,2l2.25,1.12a2.08,2.08,0,0,0,2.3-.29l-.81-.41A1.29,1.29,0,0,1,647.48,46.78Z"/><path class="cls-18" d="M646.38,43.35l2.25,1.12a1.29,1.29,0,0,1,.69.9l.81.41a2.08,2.08,0,0,0-1.15-2l-2.25-1.12a2.08,2.08,0,0,0-2.3.29l.81.41A1.29,1.29,0,0,1,646.38,43.35Z"/><path class="cls-18" d="M648.16,45.68a.4.4,0,0,1,.53-.18L654,48.13a.4.4,0,1,1-.35.71l-5.27-2.63A.4.4,0,0,1,648.16,45.68Z"/><path class="cls-18" d="M640.08,41.65a.4.4,0,0,1,.53-.18l5.27,2.63a.4.4,0,0,1-.35.71l-5.27-2.63A.4.4,0,0,1,640.08,41.65Z"/><path class="cls-18" d="M655.56,50.81l-2.25-1.12a1.29,1.29,0,0,1-.69-.9l-.81-.41a2.08,2.08,0,0,0,1.15,2l2.25,1.12a2.08,2.08,0,0,0,2.3-.29l-.81-.41A1.29,1.29,0,0,1,655.56,50.81Z"/><path class="cls-18" d="M654.46,47.38l2.25,1.12a1.29,1.29,0,0,1,.69.9l.81.41a2.08,2.08,0,0,0-1.15-2l-2.25-1.12a2.08,2.08,0,0,0-2.3.29l.81.41A1.29,1.29,0,0,1,654.46,47.38Z"/><path class="cls-18" d="M663.64,54.84l-2.25-1.12a1.29,1.29,0,0,1-.69-.9l-.81-.41a2.08,2.08,0,0,0,1.15,2l2.25,1.12a2.08,2.08,0,0,0,2.3-.29l-.81-.41A1.29,1.29,0,0,1,663.64,54.84Z"/><path class="cls-18" d="M662.54,51.41l2.25,1.12a1.29,1.29,0,0,1,.69.9l.81.41a2.08,2.08,0,0,0-1.15-2l-2.25-1.12a2.08,2.08,0,0,0-2.3.29l.81.41A1.29,1.29,0,0,1,662.54,51.41Z"/><path class="cls-18" d="M664.32,53.74a.4.4,0,0,1,.53-.18l5.27,2.63a.4.4,0,1,1-.35.71l-5.27-2.63A.4.4,0,0,1,664.32,53.74Z"/><path class="cls-18" d="M656.24,49.71a.4.4,0,0,1,.53-.18L662,52.16a.4.4,0,1,1-.35.71l-5.27-2.63A.4.4,0,0,1,656.24,49.71Z"/><path class="cls-18" d="M671.72,58.87l-2.25-1.12a1.29,1.29,0,0,1-.69-.9l-.81-.41a2.08,2.08,0,0,0,1.15,2l2.25,1.12a2.08,2.08,0,0,0,2.3-.29l-.81-.41A1.29,1.29,0,0,1,671.72,58.87Z"/><path class="cls-18" d="M670.62,55.44l2.25,1.12a1.29,1.29,0,0,1,.69.9l.81.41a2.08,2.08,0,0,0-1.15-2L671,54.73a2.08,2.08,0,0,0-2.3.29l.81.41A1.29,1.29,0,0,1,670.62,55.44Z"/><path class="cls-18" d="M679.8,62.9l-2.25-1.12a1.29,1.29,0,0,1-.69-.9l-.81-.41a2.08,2.08,0,0,0,1.15,2l2.25,1.12a2.08,2.08,0,0,0,2.3-.29l-.81-.41A1.29,1.29,0,0,1,679.8,62.9Z"/><path class="cls-18" d="M678.7,59.47,681,60.59a1.29,1.29,0,0,1,.69.9l.81.41a2.08,2.08,0,0,0-1.15-2l-2.25-1.12a2.08,2.08,0,0,0-2.3.29l.81.41A1.29,1.29,0,0,1,678.7,59.47Z"/><path class="cls-18" d="M680.49,61.8a.4.4,0,0,1,.53-.18l5.27,2.63a.4.4,0,0,1-.35.71l-5.27-2.63A.4.4,0,0,1,680.49,61.8Z"/><path class="cls-18" d="M672.4,57.77a.4.4,0,0,1,.53-.18l5.27,2.63a.4.4,0,0,1-.35.71l-5.27-2.63A.4.4,0,0,1,672.4,57.77Z"/><path class="cls-18" d="M687.89,66.93l-2.25-1.12a1.29,1.29,0,0,1-.69-.9l-.81-.41a2.08,2.08,0,0,0,1.15,2l2.25,1.12a2.08,2.08,0,0,0,2.3-.29l-.81-.41A1.29,1.29,0,0,1,687.89,66.93Z"/><path class="cls-18" d="M686.78,63.5,689,64.62a1.29,1.29,0,0,1,.69.9l.81.41a2.08,2.08,0,0,0-1.15-2l-2.25-1.12a2.08,2.08,0,0,0-2.3.29l.81.41A1.29,1.29,0,0,1,686.78,63.5Z"/><path class="cls-18" d="M696,71l-2.25-1.12a1.29,1.29,0,0,1-.69-.9l-.81-.41a2.08,2.08,0,0,0,1.15,2l2.25,1.12a2.08,2.08,0,0,0,2.3-.29L697.1,71A1.29,1.29,0,0,1,696,71Z"/><path class="cls-18" d="M694.87,67.53l2.25,1.12a1.29,1.29,0,0,1,.69.9l.81.41a2.08,2.08,0,0,0-1.15-2l-2.25-1.12a2.08,2.08,0,0,0-2.3.29l.81.41A1.29,1.29,0,0,1,694.87,67.53Z"/><path class="cls-18" d="M696.65,69.86a.4.4,0,0,1,.53-.18l5.27,2.63a.4.4,0,0,1-.35.71l-5.27-2.63A.4.4,0,0,1,696.65,69.86Z"/><path class="cls-18" d="M688.57,65.83a.4.4,0,0,1,.53-.18l5.27,2.63A.4.4,0,1,1,694,69l-5.27-2.63A.4.4,0,0,1,688.57,65.83Z"/><g class="cls-16"><polygon class="cls-17" points="509.81 65.3 491.91 75.71 473.89 65.3 491.79 54.9 509.81 65.3"/><polygon class="cls-10" points="509.81 65.3 509.76 83.79 491.86 94.19 491.91 75.71 509.81 65.3"/><polygon class="cls-14" points="491.91 75.71 491.86 94.19 473.84 83.79 473.89 65.3 491.91 75.71"/></g><g class="cls-16"><polygon class="cls-17" points="726.72 65.3 708.82 75.71 690.8 65.3 708.7 54.9 726.72 65.3"/><polygon class="cls-10" points="726.72 65.3 726.67 83.79 708.77 94.19 708.82 75.71 726.72 65.3"/><polygon class="cls-14" points="708.82 75.71 708.77 94.19 690.75 83.79 690.8 65.3 708.82 75.71"/></g><path class="cls-18" d="M691.27,148.67h2.52a1.29,1.29,0,0,1,1,.5h.91a2.08,2.08,0,0,0-1.92-1.29h-2.52a2.08,2.08,0,0,0-1.92,1.29h.91A1.29,1.29,0,0,1,691.27,148.67Z"/><path class="cls-18" d="M693.78,151.25h-2.52a1.29,1.29,0,0,1-1-.5h-.91a2.08,2.08,0,0,0,1.92,1.29h2.52a2.08,2.08,0,0,0,1.92-1.29h-.91A1.29,1.29,0,0,1,693.78,151.25Z"/><path class="cls-18" d="M691.15,150a.4.4,0,0,1-.4.4h-5.89a.4.4,0,1,1,0-.79h5.89A.4.4,0,0,1,691.15,150Z"/><path class="cls-18" d="M700.18,150a.4.4,0,0,1-.4.4H693.9a.4.4,0,1,1,0-.79h5.89A.4.4,0,0,1,700.18,150Z"/><path class="cls-18" d="M682.24,148.67h2.52a1.29,1.29,0,0,1,1,.5h.91a2.08,2.08,0,0,0-1.92-1.29h-2.52a2.08,2.08,0,0,0-1.92,1.29h.91A1.29,1.29,0,0,1,682.24,148.67Z"/><path class="cls-18" d="M684.75,151.25h-2.52a1.29,1.29,0,0,1-1-.5h-.91a2.08,2.08,0,0,0,1.92,1.29h2.52a2.08,2.08,0,0,0,1.92-1.29h-.91A1.29,1.29,0,0,1,684.75,151.25Z"/><path class="cls-18" d="M673.21,148.67h2.52a1.29,1.29,0,0,1,1,.5h.91a2.08,2.08,0,0,0-1.92-1.29h-2.52a2.08,2.08,0,0,0-1.92,1.29h.91A1.29,1.29,0,0,1,673.21,148.67Z"/><path class="cls-18" d="M675.72,151.25h-2.52a1.29,1.29,0,0,1-1-.5h-.91a2.08,2.08,0,0,0,1.92,1.29h2.52a2.08,2.08,0,0,0,1.92-1.29h-.91A1.29,1.29,0,0,1,675.72,151.25Z"/><path class="cls-18" d="M673.09,150a.4.4,0,0,1-.4.4H666.8a.4.4,0,0,1,0-.79h5.89A.4.4,0,0,1,673.09,150Z"/><path class="cls-18" d="M682.12,150a.4.4,0,0,1-.4.4h-5.89a.4.4,0,0,1,0-.79h5.89A.4.4,0,0,1,682.12,150Z"/><path class="cls-18" d="M664.17,148.67h2.52a1.29,1.29,0,0,1,1,.5h.91a2.08,2.08,0,0,0-1.92-1.29h-2.52a2.08,2.08,0,0,0-1.92,1.29h.91A1.29,1.29,0,0,1,664.17,148.67Z"/><path class="cls-18" d="M666.69,151.25h-2.52a1.29,1.29,0,0,1-1-.5h-.91a2.08,2.08,0,0,0,1.92,1.29h2.52a2.08,2.08,0,0,0,1.92-1.29h-.91A1.29,1.29,0,0,1,666.69,151.25Z"/><path class="cls-18" d="M655.14,148.67h2.52a1.29,1.29,0,0,1,1,.5h.91a2.08,2.08,0,0,0-1.92-1.29h-2.52a2.08,2.08,0,0,0-1.92,1.29h.91A1.29,1.29,0,0,1,655.14,148.67Z"/><path class="cls-18" d="M657.66,151.25h-2.52a1.29,1.29,0,0,1-1-.5h-.91a2.08,2.08,0,0,0,1.92,1.29h2.52a2.08,2.08,0,0,0,1.92-1.29h-.91A1.29,1.29,0,0,1,657.66,151.25Z"/><path class="cls-18" d="M655,150a.4.4,0,0,1-.4.4h-5.89a.4.4,0,1,1,0-.79h5.89A.4.4,0,0,1,655,150Z"/><path class="cls-18" d="M664.05,150a.4.4,0,0,1-.4.4h-5.89a.4.4,0,1,1,0-.79h5.89A.4.4,0,0,1,664.05,150Z"/><path class="cls-18" d="M646.11,148.67h2.52a1.29,1.29,0,0,1,1,.5h.91a2.08,2.08,0,0,0-1.92-1.29h-2.52a2.08,2.08,0,0,0-1.92,1.29h.91A1.29,1.29,0,0,1,646.11,148.67Z"/><path class="cls-18" d="M648.63,151.25h-2.52a1.29,1.29,0,0,1-1-.5h-.91a2.08,2.08,0,0,0,1.92,1.29h2.52a2.08,2.08,0,0,0,1.92-1.29h-.91A1.29,1.29,0,0,1,648.63,151.25Z"/><path class="cls-18" d="M637.08,148.67h2.52a1.29,1.29,0,0,1,1,.5h.91a2.08,2.08,0,0,0-1.92-1.29h-2.52a2.08,2.08,0,0,0-1.92,1.29h.91A1.29,1.29,0,0,1,637.08,148.67Z"/><path class="cls-18" d="M639.6,151.25h-2.52a1.29,1.29,0,0,1-1-.5h-.91a2.08,2.08,0,0,0,1.92,1.29h2.52a2.08,2.08,0,0,0,1.92-1.29h-.91A1.29,1.29,0,0,1,639.6,151.25Z"/><path class="cls-18" d="M637,150a.4.4,0,0,1-.4.4h-5.89a.4.4,0,0,1,0-.79h5.89A.4.4,0,0,1,637,150Z"/><path class="cls-18" d="M646,150a.4.4,0,0,1-.4.4h-5.89a.4.4,0,0,1,0-.79h5.89A.4.4,0,0,1,646,150Z"/><path class="cls-18" d="M628.05,148.67h2.52a1.29,1.29,0,0,1,1,.5h.91a2.08,2.08,0,0,0-1.92-1.29h-2.52a2.08,2.08,0,0,0-1.92,1.29H627A1.29,1.29,0,0,1,628.05,148.67Z"/><path class="cls-18" d="M630.57,151.25h-2.52a1.29,1.29,0,0,1-1-.5h-.91a2.08,2.08,0,0,0,1.92,1.29h2.52a2.08,2.08,0,0,0,1.92-1.29h-.91A1.29,1.29,0,0,1,630.57,151.25Z"/><path class="cls-18" d="M619,148.67h2.52a1.29,1.29,0,0,1,1,.5h.91a2.08,2.08,0,0,0-1.92-1.29H619a2.08,2.08,0,0,0-1.92,1.29H618A1.29,1.29,0,0,1,619,148.67Z"/><path class="cls-18" d="M621.54,151.25H619a1.29,1.29,0,0,1-1-.5h-.91A2.08,2.08,0,0,0,619,152h2.52a2.08,2.08,0,0,0,1.92-1.29h-.91A1.29,1.29,0,0,1,621.54,151.25Z"/><path class="cls-18" d="M618.9,150a.4.4,0,0,1-.4.4h-5.89a.4.4,0,1,1,0-.79h5.89A.4.4,0,0,1,618.9,150Z"/><path class="cls-18" d="M627.93,150a.4.4,0,0,1-.4.4h-5.89a.4.4,0,1,1,0-.79h5.89A.4.4,0,0,1,627.93,150Z"/><line class="cls-15" x1="482.88" y1="80.64" x2="394.8" y2="122.96"/><ellipse class="cls-14" cx="393.71" cy="124.78" rx="22.85" ry="22.86"/><ellipse class="cls-10" cx="393.71" cy="124.78" rx="17.8" ry="17.81"/><path class="cls-6" d="M392.39,134.12a17.57,17.57,0,0,1-6.24-1.45v-4.91a21.3,21.3,0,0,0,3.72,1.46,12.89,12.89,0,0,0,3.53.58,4.2,4.2,0,0,0,1.84-.3,1.05,1.05,0,0,0,.58-1,1,1,0,0,0-.42-.83,6.52,6.52,0,0,0-1.4-.77q-1-.43-2.65-1a12,12,0,0,1-3-1.56,5.44,5.44,0,0,1-1.68-1.94,6,6,0,0,1-.52-2.67,4.81,4.81,0,0,1,1.57-3.81,8.31,8.31,0,0,1,4.7-1.7v-2h3.06v2a17.35,17.35,0,0,1,5.93,1.45l-1.76,4.21a13.79,13.79,0,0,0-5.57-1.39,3.45,3.45,0,0,0-1.66.29.93.93,0,0,0-.48.85,1,1,0,0,0,.35.81,4.89,4.89,0,0,0,1.2.71q.86.39,2.38.91a11.5,11.5,0,0,1,4.43,2.49,5,5,0,0,1,1.35,3.6,5.42,5.42,0,0,1-1.57,4,7.67,7.67,0,0,1-4.59,1.92v2.85h-3.06Z"/><path class="cls-6" d="M359.07,141.21h0A15.77,15.77,0,0,0,343.29,157v16.68a15.77,15.77,0,0,0,15.78,15.78h0a15.77,15.77,0,0,0,15.78-15.78V157A15.85,15.85,0,0,0,359.07,141.21Zm11,32.46a11.16,11.16,0,0,1-22.32,0V157a11.16,11.16,0,0,1,22.32,0Z"/><path class="cls-12" d="M371.39,194.19H346.76a6.57,6.57,0,0,1-6.54-6.54v-20a6.57,6.57,0,0,1,6.54-6.54h24.63a6.57,6.57,0,0,1,6.54,6.54v20A6.57,6.57,0,0,1,371.39,194.19Z"/><path class="cls-13" d="M359.07,169.43a5.48,5.48,0,0,0-5.52,5.52,5.75,5.75,0,0,0,3.21,5v4.62a2.16,2.16,0,0,0,2.18,2.18,2.25,2.25,0,0,0,2.18-2.18V180a5.52,5.52,0,0,0,3.21-5A5.26,5.26,0,0,0,359.07,169.43Z"/><polygon class="cls-6" points="599.46 124.8 577.57 102.9 586.33 94.14 599.46 107.28 625.74 81 634.5 89.76 599.46 124.8"/><ellipse class="cls-14" cx="878.27" cy="96.47" rx="28.18" ry="28.19"/><ellipse class="cls-10" cx="878.27" cy="96.47" rx="21.95" ry="21.96"/><path class="cls-6" d="M876.65,108A21.67,21.67,0,0,1,869,106.2v-6.05a26.27,26.27,0,0,0,4.59,1.8,15.89,15.89,0,0,0,4.36.72,5.18,5.18,0,0,0,2.27-.37,1.3,1.3,0,0,0,.72-1.25,1.27,1.27,0,0,0-.52-1,8,8,0,0,0-1.73-.95q-1.21-.53-3.27-1.28a14.81,14.81,0,0,1-3.74-1.92,6.71,6.71,0,0,1-2.07-2.39,7.45,7.45,0,0,1-.65-3.29,5.93,5.93,0,0,1,1.93-4.7,10.25,10.25,0,0,1,5.8-2.1V80.9h3.77v2.46a21.39,21.39,0,0,1,7.31,1.79l-2.17,5.19a17,17,0,0,0-6.87-1.71,4.26,4.26,0,0,0-2.05.36,1.15,1.15,0,0,0-.59,1,1.29,1.29,0,0,0,.43,1,6,6,0,0,0,1.49.87q1.06.48,2.93,1.12a14.18,14.18,0,0,1,5.47,3.07,6.13,6.13,0,0,1,1.66,4.44,6.68,6.68,0,0,1-1.94,5,9.45,9.45,0,0,1-5.66,2.37v3.52h-3.77Z"/><ellipse class="cls-14" cx="848.89" cy="100.12" rx="24.53" ry="24.55"/><ellipse class="cls-10" cx="848.89" cy="100.12" rx="19.11" ry="19.12"/><path class="cls-6" d="M847.47,110.14a18.87,18.87,0,0,1-6.7-1.56v-5.27a22.87,22.87,0,0,0,4,1.56,13.84,13.84,0,0,0,3.79.63,4.51,4.51,0,0,0,2-.33,1.13,1.13,0,0,0,.63-1.09,1.1,1.1,0,0,0-.45-.89,7,7,0,0,0-1.51-.83q-1.06-.46-2.85-1.11a12.89,12.89,0,0,1-3.25-1.67,5.84,5.84,0,0,1-1.8-2.08,6.49,6.49,0,0,1-.56-2.86,5.16,5.16,0,0,1,1.68-4.09,8.92,8.92,0,0,1,5-1.82V86.56h3.28V88.7a18.62,18.62,0,0,1,6.36,1.56l-1.89,4.52a14.8,14.8,0,0,0-6-1.49,3.71,3.71,0,0,0-1.79.31,1,1,0,0,0-.52.91,1.12,1.12,0,0,0,.37.86,5.25,5.25,0,0,0,1.29.76q.92.42,2.55,1a12.34,12.34,0,0,1,4.76,2.67,5.34,5.34,0,0,1,1.44,3.86,5.82,5.82,0,0,1-1.69,4.33,8.23,8.23,0,0,1-4.93,2.06v3.06h-3.28Z"/><ellipse class="cls-14" cx="818" cy="101.8" rx="22.85" ry="22.86"/><ellipse class="cls-10" cx="818" cy="101.8" rx="17.8" ry="17.81"/><path class="cls-6" d="M816.68,111.14a17.57,17.57,0,0,1-6.24-1.45v-4.91a21.3,21.3,0,0,0,3.72,1.46,12.89,12.89,0,0,0,3.53.58,4.2,4.2,0,0,0,1.84-.3,1.05,1.05,0,0,0,.58-1,1,1,0,0,0-.42-.83,6.52,6.52,0,0,0-1.4-.77q-1-.43-2.65-1a12,12,0,0,1-3-1.56,5.44,5.44,0,0,1-1.68-1.94,6,6,0,0,1-.52-2.67A4.81,4.81,0,0,1,812,92.9a8.31,8.31,0,0,1,4.7-1.7v-2h3.06v2a17.35,17.35,0,0,1,5.93,1.45l-1.76,4.21a13.79,13.79,0,0,0-5.57-1.39,3.45,3.45,0,0,0-1.66.29.93.93,0,0,0-.48.85,1,1,0,0,0,.35.81,4.89,4.89,0,0,0,1.2.71q.86.39,2.38.91a11.5,11.5,0,0,1,4.43,2.49,5,5,0,0,1,1.35,3.6,5.42,5.42,0,0,1-1.57,4,7.67,7.67,0,0,1-4.59,1.92v2.85h-3.06Z"/><path class="cls-19" d="M909.54,16.46c-7.33,7.55-21.76,7.65-21.76,7.65V38.65c0,22.41,21.75,30.28,21.75,30.28s21.75-7.87,21.75-30.28V24.11S916.87,24,909.54,16.46Z"/><path class="cls-13" d="M909.55,62.6a32.07,32.07,0,0,1-7.77-5.06,23.72,23.72,0,0,1-8.4-18.33v-10c3.89-.39,11-1.63,16.18-5.58,5.22,3.95,12.27,5.19,16.18,5.58v10C925.71,54.15,913.18,60.94,909.55,62.6Z"/><path class="cls-6" d="M918.32,42.35c-4.33,1.46-5.52,2.65-7,7-1.46-4.33-2.65-5.52-7-7,4.33-1.46,5.52-2.65,7-7C912.8,39.7,914,40.88,918.32,42.35Z"/><path class="cls-20" d="M741.59,196.17c-4.71,1.59-6,2.88-7.59,7.59-1.59-4.71-2.88-6-7.59-7.59,4.71-1.59,6-2.88,7.59-7.59C735.59,193.29,736.88,194.58,741.59,196.17Z"/><path class="cls-20" d="M674.11,171.59c-3.1,1-4,1.9-5,5-1-3.1-1.9-4-5-5,3.1-1,4-1.9,5-5C670.16,169.7,671,170.55,674.11,171.59Z"/><path class="cls-20" d="M522.38,125.91c-2.48.84-3.16,1.52-4,4-.84-2.48-1.52-3.16-4-4,2.48-.84,3.16-1.52,4-4C519.22,124.39,519.9,125.07,522.38,125.91Z"/><path class="cls-20" d="M410.7,88c-3.1,1-4,1.9-5,5-1-3.1-1.9-4-5-5,3.1-1,4-1.9,5-5C406.75,86.1,407.6,86.95,410.7,88Z"/><path class="cls-20" d="M843,141.95c-2.48.84-3.16,1.52-4,4-.84-2.48-1.52-3.16-4-4,2.48-.84,3.16-1.52,4-4C839.85,140.43,840.53,141.11,843,141.95Z"/><path class="cls-20" d="M468.65,233.08c-4.71,1.59-6,2.88-7.59,7.59-1.59-4.71-2.88-6-7.59-7.59,4.71-1.59,6-2.88,7.59-7.59C462.64,230.2,463.93,231.49,468.65,233.08Z"/><path class="cls-6" d="M907.77,27.39c-2.17.73-2.76,1.32-3.49,3.49-.73-2.17-1.32-2.76-3.49-3.49,2.17-.73,2.76-1.32,3.49-3.49C905,26.07,905.6,26.66,907.77,27.39Z"/><circle class="cls-1" cx="793.31" cy="237.31" r="42.69"/><polygon class="cls-12" points="772.98 225.56 772.98 249.05 793.31 260.79 813.64 249.05 813.64 225.56 793.31 213.82 772.98 225.56"/><path class="cls-21" d="M814.3,224.41,794,212.67a1.32,1.32,0,0,0-1.33,0l-20.33,11.74a1.33,1.33,0,0,0-.66,1.15V249a1.33,1.33,0,0,0,.66,1.15l20.33,11.74a1.33,1.33,0,0,0,1.33,0L814.3,250.2A1.33,1.33,0,0,0,815,249V225.56A1.33,1.33,0,0,0,814.3,224.41Zm-2,23.87-19,11-19-11v-22l19-11,19,11Z"/><path class="cls-13" d="M788.43,248.3a6.9,6.9,0,1,0,6.81-11.51V225.11a.68.68,0,0,0-.44-.63.48.48,0,0,0-.19,0H792a.53.53,0,0,0-.19,0,.67.67,0,0,0-.44.63v1.62H789a.53.53,0,0,0-.19,0,.67.67,0,0,0-.44.63V230a.53.53,0,0,0,0,.19.67.67,0,0,0,.63.44h2.29v6.19a6.9,6.9,0,0,0-3,11.51Zm1.46-4.88a3.43,3.43,0,1,1,1,2.42A3.37,3.37,0,0,1,789.89,243.42Z"/><path class="cls-11" d="M136.88,234.9a29.1,29.1,0,1,1-22.8-34.27A29.1,29.1,0,0,1,136.88,234.9Z"/><path class="cls-12" d="M149.38,228.28a40.81,40.81,0,0,0-2.73-13.87l8-6.36-8.92-13.42-8.95,4.9A40.74,40.74,0,0,0,125,191.66l1.14-10.15-15.81-3.17-2.87,9.79a40.88,40.88,0,0,0-13.88,2.74l-6.36-8-13.42,8.92,4.91,9a40.6,40.6,0,0,0-7.89,11.74L60.7,211.37l-3.18,15.81,9.8,2.86a40.6,40.6,0,0,0,2.73,13.88l-8,6.36L71,263.7l8.95-4.9a41,41,0,0,0,11.74,7.88l-1.13,10.15L106.36,280l2.87-9.79a40.5,40.5,0,0,0,13.87-2.75l6.37,8,13.4-8.93-4.9-8.95a40.77,40.77,0,0,0,7.89-11.74L156,247l3.17-15.81Zm-6.73,7.78a35,35,0,1,1-27.42-41.21A35,35,0,0,1,142.66,236.06Z"/><path class="cls-10" d="M105.12,219v-3.31h6.46V219h2.63V215.2a2,2,0,0,0-2-2h-7.59a2,2,0,0,0-2,2V219Z"/><path class="cls-10" d="M124.5,219H92.2a1.86,1.86,0,0,0-1.88,1.88v22.38a1.86,1.86,0,0,0,1.88,1.88h32.3a1.86,1.86,0,0,0,1.88-1.88V220.9A1.86,1.86,0,0,0,124.5,219Z"/><path class="cls-14" d="M126.38,229.84V220.9A1.86,1.86,0,0,0,124.5,219H92.2a1.86,1.86,0,0,0-1.88,1.88v8.94Q108.35,240.55,126.38,229.84Z"/><path class="cls-22" d="M110,232.4h-3.31a.35.35,0,0,0-.38.38v4.81a.35.35,0,0,0,.38.38H110a.35.35,0,0,0,.38-.38v-4.81A.35.35,0,0,0,110,232.4Z"/><path class="cls-12" d="M988.45,150.87h-1a1,1,0,1,0,0,1.92h1a1,1,0,0,1,1,1v11.5a1,1,0,1,0,1.92,0v-11.5A2.88,2.88,0,0,0,988.45,150.87Z"/><polygon class="cls-12" points="988.45 181.53 988.45 183.45 986.54 186.32 984.62 183.45 984.62 181.53 988.45 181.53"/><path class="cls-13" d="M986.54,149a1.92,1.92,0,0,0-1.92,1.92v30.66h3.83V150.87A1.92,1.92,0,0,0,986.54,149Z"/><polygon class="cls-23" points="980.79 145.12 975.04 145.12 975.04 145 975.04 139.38 980.79 145.12"/><polygon class="cls-13" points="939.6 195.9 975.04 195.9 975.05 198.78 936.72 198.78 936.72 145.12 939.59 145.12 939.6 145.12 939.6 195.9"/><polygon class="cls-12" points="942.46 193.04 977.91 193.04 977.92 195.9 975.04 195.9 939.6 195.9 939.6 145.12 939.6 142.25 942.46 142.25 942.46 193.04"/><path class="cls-6" d="M980.79,145.12V193H942.46V139.38H975v5.74Z"/><polygon class="cls-12" points="988.45 159.5 984.62 159.5 984.62 160.45 984.62 161.41 988.45 161.41 988.45 160.45 988.45 159.5"/><path class="cls-13" d="M950.13,153.75a2.88,2.88,0,0,1-2.87-2.87V148a2.87,2.87,0,1,1,5.75,0v2.87A2.88,2.88,0,0,1,950.13,153.75Zm0-6.71a1,1,0,0,0-1,1v2.87a1,1,0,1,0,1.92,0V148A1,1,0,0,0,950.13,147Z"/><path class="cls-13" d="M950.13,165.24a2.88,2.88,0,0,1-2.87-2.87V159.5a2.87,2.87,0,1,1,5.75,0v2.87A2.88,2.88,0,0,1,950.13,165.24Zm0-6.71a1,1,0,0,0-1,1v2.87a1,1,0,1,0,1.92,0V159.5A1,1,0,0,0,950.13,158.54Z"/><path class="cls-12" d="M950.13,159.5a1,1,0,0,1-1-1v-6.71a1,1,0,1,1,1.92,0v6.71A1,1,0,0,1,950.13,159.5Z"/><path class="cls-13" d="M950.13,176.74a2.88,2.88,0,0,1-2.87-2.87V171a2.87,2.87,0,1,1,5.75,0v2.87A2.88,2.88,0,0,1,950.13,176.74Zm0-6.71a1,1,0,0,0-1,1v2.87a1,1,0,0,0,1.92,0V171A1,1,0,0,0,950.13,170Z"/><path class="cls-12" d="M950.13,171a1,1,0,0,1-1-1v-6.71a1,1,0,1,1,1.92,0V170A1,1,0,0,1,950.13,171Z"/><path class="cls-13" d="M950.13,188.24a2.88,2.88,0,0,1-2.87-2.87v-2.87a2.87,2.87,0,1,1,5.75,0v2.87A2.88,2.88,0,0,1,950.13,188.24Zm0-6.71a1,1,0,0,0-1,1v2.87a1,1,0,1,0,1.92,0v-2.87A1,1,0,0,0,950.13,181.53Z"/><path class="cls-12" d="M950.13,182.49a1,1,0,0,1-1-1v-6.71a1,1,0,0,1,1.92,0v6.71A1,1,0,0,1,950.13,182.49Z"/><path class="cls-24" d="M975,156.62H957.79a1,1,0,0,1,0-1.92H975a1,1,0,1,1,0,1.92Z"/><path class="cls-24" d="M975,162.37H957.79a1,1,0,0,1,0-1.92H975a1,1,0,1,1,0,1.92Z"/><path class="cls-24" d="M975,168.12H957.79a1,1,0,0,1,0-1.92H975a1,1,0,1,1,0,1.92Z"/><path class="cls-24" d="M975,173.87H957.79a1,1,0,0,1,0-1.92H975a1,1,0,1,1,0,1.92Z"/><path class="cls-24" d="M975,179.62H957.79a1,1,0,0,1,0-1.92H975a1,1,0,1,1,0,1.92Z"/></g></svg>