<svg xmlns="http://www.w3.org/2000/svg" viewBox="0 0 3040 1718.28"><defs><style>.cls-1{fill:#328fc9;}.cls-2{fill:#1b5070;}.cls-3{fill:#236791;}.cls-4{fill:#0f2b3c;}.cls-5{fill:#0b212e;}.cls-6{fill:#f8bb16;}.cls-7{fill:#ea4334;}.cls-8{fill:#f6c94a;}.cls-9{fill:#c83c30;}.cls-10{fill:#eb9f19;}.cls-11{fill:#e86458;}.cls-12{fill:#2e8cc5;}.cls-13{fill:#2e8bc4;}.cls-14{fill:#e4685d;}.cls-15{fill:#286fa5;}.cls-16{fill:#0074bc;}.cls-17{fill:#d66653;}.cls-18{fill:#cc4135;}.cls-19{fill:#0967b0;}.cls-20{fill:#e2e3e4;}.cls-21{fill:#767576;}</style></defs><title>google-cloud-platform-logo</title><g id="Layer_2" data-name="Layer 2"><g id="design"><path class="cls-1" d="M1164.07,38.21c12.7-19.9,31.31-31.1,53.84-36.51,1-.87,2.29-.67,3.49-.7,1.58-.12,3.29.38,4.59-1h590c1.31,1.38,3,.88,4.61,1,1.21,0,2.46-.14,3.53.65,27,6,47.64,20.44,60.26,45.5.73,2.54-.74,3.38-2.87,3.7-4.18-.15-6.33-3.16-8.69-6-18.67-22.59-42.76-32.39-72-32.36q-278.78.36-557.56-.07c-26.89-.05-49.52,8.33-68.59,26.91-2.22,2.17-4.41,4-7.69,4C1164.26,42.67,1162.06,41.64,1164.07,38.21Z"/><path class="cls-2" d="M1226,0a4,4,0,0,1-4.15,1.76q-2-1.05.15-1.76Z"/><path class="cls-3" d="M1820.16,1.86A4.43,4.43,0,0,1,1816,0h4Q1822.07.76,1820.16,1.86Z"/><path class="cls-4" d="M1820.16,1.86A4.52,4.52,0,0,1,1820,0h4q0,.83.14,1.66Z"/><path class="cls-5" d="M1222,0a6.84,6.84,0,0,1-.15,1.76l-3.94-.06A14.8,14.8,0,0,0,1218,0Z"/><path class="cls-6" d="M864.07,596a64,64,0,0,1,3.74-37.81c35.21-63,71.63-125.36,107.41-188.06,7-12.27,10.46-12.39,17.46-.37,25.32,43.43,50.21,87.11,75.31,130.67q47.38,82.21,94.65,164.47c35.1,61.22,70.57,122.23,105.48,183.55,15.64,27.48,31.9,54.61,47.13,82.32,3.71,6.75,8.36,9.51,16.57,9.49q186.42-.47,372.85-.17c4.54,0,9.42-1.25,13.45,2.2,3.73,4.21,1.31,8-.87,11.79-39.75,68.59-79,137.49-118.67,206.1-1.65,2.85-2.93,6.09-6.83,6.63-46.3.52-92.59.16-138.88.21q-108.91.11-217.82,0c-33.58-.09-58.49-16-75.19-44.43-43.31-73.71-85.32-148.17-127.89-222.31q-53.15-92.59-106.13-185.28-23.75-41.61-47.69-83.13C871.7,620.59,866.05,609,864.07,596Z"/><path class="cls-7" d="M2176.43,561.93c4.77,12.52,4.81,25.28,1.94,38.18-5.31,22-18.3,40.25-29.26,59.39Q2054.41,825,1959.47,990.29c-25.52,44.43-50.68,89.06-76.67,133.22-17.88,30.4-45.24,44.12-79.51,44.36-64.29.44-128.59.15-192.88.08-4.22,0-8.76,1.11-12.42-2.25-3.33-3.89-.11-6.82,1.62-9.83q47-81.77,94-163.49c23-39.72,44.12-80.45,67.32-120.05,29.77-50.81,58.71-102.09,88.19-153.07,23.65-40.89,46.82-82.06,70.74-122.79,1.68-2.85,3.36-5.78,3.53-9.23a15.88,15.88,0,0,1,.28-2.69,18.84,18.84,0,0,0-.19-2.7c-14.95-29-32.27-56.63-48.33-85-29.36-51.8-59.47-103.18-89-154.89-16.49-28.89-33.4-57.55-49.76-86.51-2.59-4.59-7.47-9.32-2.22-15.27,3.75-2.1,7.84-1.17,11.77-1.17,77-.06,153.93.22,230.89-.33,11.59-.08,17.92,3.56,23.58,13.56,32.09,56.79,64.66,113.31,97.21,169.84,23.58,41,46.88,82.06,70.52,123C2171.3,550.56,2173.21,556.55,2176.43,561.93Z"/><path class="cls-8" d="M1718.28,944.17c-10-.07-20-.19-30-.19q-177,0-353.91,0c-2.67,0-5.34-.16-8,0-4.85.33-8-1.52-10.49-5.89C1306.27,921,1296.32,904,1286.53,887q-27.64-48.05-55.26-96.12c-16.62-28.85-33.37-57.62-50-86.49s-33-57.84-49.59-86.71q-29.37-51.09-58.9-102.09Q1031.17,443.34,989.59,371c-.5-.87-.91-1.79-1.44-2.63-4.08-6.47-5.62-6.71-9.49-.27C969.76,383,961.14,398,952.52,413Q921.69,466.73,891,520.51c-6.45,11.27-12.78,22.61-19.21,33.89-.92,1.61-1.17,4.07-4,3.76a7,7,0,0,1,1.75-5l.21-.45,1.24-3.46.6-.78,1.37-3.21.61-.78,1.78-3.31.29-.4c1-3.57,3.12-6.55,5.23-9.53l.67-.8,1.82-3.28.29-.4a12,12,0,0,1,3-5.46,1.73,1.73,0,0,0,.81-1.11l1.53-3,.61-.71,1.85-3.34.26-.38a12.18,12.18,0,0,1,3-5.51l.81-1,1.52-3,.58-.67a30.14,30.14,0,0,1,5.09-9.26l.8-1,1.54-3,.59-.68a30.47,30.47,0,0,1,5.11-9.29l.75-1,1.66-3.08.5-.6c1-3.52,3-6.44,5.11-9.35l.74-.94,1.65-3.11.49-.59c1-3.52,3.08-6.44,5.16-9.36l.72-.9,1.69-3.14.45-.57c1-3.52,3.11-6.44,5.18-9.37l.71-.88,1.71-3.2.41-.52c1-3.55,3.13-6.47,5.2-9.43l.68-.82,1.82-3.24.31-.43c1-3.58,3.11-6.53,5.22-9.49l.67-.8,1.82-3.28.29-.4a30.42,30.42,0,0,1,5.29-9.55l.61-.71,1.85-3.34.26-.38c.36-2.16,1.64-3.82,2.93-5.48a1.74,1.74,0,0,0,.81-1.11l1.54-3,.61-.7a30.79,30.79,0,0,1,5.1-9.23l.8-1,1.52-3,.58-.67a30.88,30.88,0,0,1,5.13-9.27l.72-.91,1.52-3a6.91,6.91,0,0,1,5.7,1.74c17.32,25.57,31.24,53.16,46.8,79.78,24.44,41.82,48.37,83.95,72.69,125.83,4.33,7.45,6.28,16.16,12.34,22.64,12.67,19.19,23.54,39.42,35,59.3q51.17,88.67,102.2,177.44c19,32.88,38.27,65.57,56.59,98.8,5.61,10.17,12.63,12.78,23.3,12.76q182.45-.33,364.89,0c7.13,0,14.73-2,21.3,2.86C1725.28,939.55,1724,943.1,1718.28,944.17Z"/><path class="cls-9" d="M1598,1164c68.3,0,136.61.1,204.91-.07,34.56-.09,61.91-13.89,79.85-44.13,11.21-18.89,21.95-38.06,32.89-57.11q25.1-43.73,50.19-87.47,21.85-38.11,43.68-76.24,21.1-36.82,42.23-73.62,21.85-38.11,43.69-76.23c14.25-24.83,28.67-49.55,42.73-74.48,11.12-19.71,23-39,33.27-59.19,2.57-5,3.34-10.82,6.93-15.34-.42,12.08-5.76,22.45-11.57,32.59q-54.88,95.85-109.86,191.64L1889.4,1116.55q-2.73,4.77-5.5,9.52c-17.31,29.5-43.37,44.14-77.24,45.52-2,.08-4,0-6,0q-279,.13-557.91.21c-5.6,0-11.34.91-16.76-1.49,3.59-5.27,9.08-3.25,13.79-3.25q172.92-.17,345.81-.09C1590.26,1168.28,1593.71,1164.4,1598,1164Z"/><path class="cls-10" d="M1589.72,1169.61c-5,.18-10,.51-15,.51q-172.41,0-344.81-.11c-1.32,0-2.65.21-4,.33-29.67-3.27-51.62-18.5-66.48-43.93-19.33-33.06-38.23-66.37-57.28-99.59Q989.91,830.95,877.59,635.08c-5.33-9.29-10.12-18.73-12.49-29.27-.73-3.26-1.62-6.46-1-9.84,9.17,28.14,26.24,52.18,40.48,77.66,16.39,29.33,33.3,58.37,50,87.51q24.86,43.27,49.82,86.49Q1026,885.28,1047.5,923q21.08,36.81,42.21,73.59,21.85,38.1,43.68,76.2c10.11,17.6,19.43,35.73,30.67,52.57a82.78,82.78,0,0,0,47.5,34.47,112.33,112.33,0,0,0,30.53,4.22q174.87-.23,349.73-.12C1593.81,1166.84,1591.51,1168.13,1589.72,1169.61Z"/><path class="cls-11" d="M2176.43,561.93c-6-5-8-12.49-11.7-18.85-22.62-38.81-44.87-77.83-67.2-116.81q-25.8-45-51.5-90.14c-16.36-28.6-32.8-57.14-49.09-85.78-3.23-5.69-7.21-8.55-14.28-8.53q-124.39.41-248.79.28c-2,1.06-3.8,1-5-1.28-1.09-4.69,1.26-6.88,5.57-7.52a67.38,67.38,0,0,1,10-.31q116.19,0,232.39,0c5.24,0,10.74-1,15.33,2.8l0,0c1.06,1.17.57,3.33,2.51,3.94l-.38-.4c.1,1.18,1,1.81,1.71,2.6l0,0c1.24,1,.82,3,2.2,3.89,4,4.52,6.4,10.05,9.36,15.21q79.51,138.49,158.89,277.05C2170.73,545.69,2175.24,553.12,2176.43,561.93Z"/><path class="cls-12" d="M985.69,356.23l-2.77-2.9c10-17.69,19.81-35.44,29.9-53.06Q1084.83,174.57,1157,49c2.13-3.71,3.73-7.83,7.11-10.74l2,3.8c3,4.57.24,8.27-1.88,12q-33.83,59.46-67.91,118.78c-30.08,52.59-60.48,105-90.35,157.71-3.28,5.79-6.72,11.5-10,17.32C993.72,351.8,991.35,356.18,985.69,356.23Z"/><path class="cls-13" d="M1882.07,50l2.32-2.83a58.73,58.73,0,0,1,3.43,4.82q48.07,83.74,96.08,167.53c.82,1.43,1.42,3,2.13,4.47,1.71,2.29.79,3.78-1.47,4.88a6.05,6.05,0,0,1-4.36-1.18c-11.9-14-19.43-30.82-28.45-46.61-22.4-39.17-45.37-78-67.41-117.4C1881.93,59.38,1878.54,55.25,1882.07,50Z"/><path class="cls-14" d="M1992.15,235.84q-66.9.1-133.81.2c-39.28,0-78.56,0-117.83.06-4.38,0-10-1.47-10.43,5.83q.85,2.09-1.38,2.49c-6.33-3.07-8.46-7.15-3.19-13.05,3.73-2.06,7.81-1.32,11.75-1.32q117.33-.07,234.66-.05a58.57,58.57,0,0,1,12.88,1.12,12.88,12.88,0,0,1,7,3.23A1.88,1.88,0,0,1,1992.15,235.84Z"/><path class="cls-15" d="M1991.79,234.32,1986,234c-1.59-1.68-3.54-3.25-2-6l2-4.09A25.83,25.83,0,0,1,1991.79,234.32Z"/><path class="cls-14" d="M1994.63,239.81a5.1,5.1,0,0,1-2.51-3.94C1993.92,236.57,1994.34,238.15,1994.63,239.81Z"/><path class="cls-14" d="M1998.18,245.94a6,6,0,0,1-2.2-3.89A4.93,4.93,0,0,1,1998.18,245.94Z"/><path class="cls-14" d="M1996,242l-1.71-2.59A2.59,2.59,0,0,1,1996,242Z"/><path class="cls-6" d="M883.65,526.78l-.29.41s-.2-.41-.2-.41Z"/><path class="cls-6" d="M881.55,530.46a.87.87,0,0,1-.68.81s0-.67,0-.67Z"/><path class="cls-6" d="M875.65,540.78l-.3.41s-.19-.42-.19-.42Z"/><path class="cls-6" d="M873.58,544.49a.81.81,0,0,1-.61.79s0-.65,0-.65Z"/><path class="cls-6" d="M871.6,548.48a.8.8,0,0,1-.6.79s0-.65,0-.65Z"/><path class="cls-6" d="M869.76,552.72l-.21.45s-.28-.37-.28-.37Z"/><path class="cls-6" d="M921.61,460.63l-.5.6s-.07-.55-.07-.55Z"/><path class="cls-6" d="M911.45,478.31a1.09,1.09,0,0,1-.76,1s0-.76,0-.76Z"/><path class="cls-6" d="M929.62,446.65l-.46.58s-.1-.54-.1-.54Z"/><path class="cls-6" d="M935.51,436.4a1,1,0,0,1-.71.89s0-.72,0-.72Z"/><path class="cls-6" d="M937.64,432.68l-.42.53s-.12-.5-.12-.5Z"/><path class="cls-6" d="M943.52,422.43a.89.89,0,0,1-.69.83s0-.69,0-.69Z"/><path class="cls-6" d="M945.66,418.75l-.32.44s-.18-.44-.18-.44Z"/><path class="cls-6" d="M951.55,408.46a.86.86,0,0,1-.68.81s0-.67,0-.67Z"/><path class="cls-6" d="M905.59,488.57a.7.7,0,0,1-.6.69s0-.61,0-.61Z"/><path class="cls-6" d="M953.65,404.78l-.29.41s-.2-.41-.2-.41Z"/><path class="cls-6" d="M959.56,394.52a.74.74,0,0,1-.62.72s0-.63,0-.63Z"/><path class="cls-6" d="M961.67,390.8l-.27.38s-.21-.39-.21-.39Z"/><path class="cls-6" d="M903.46,492.26a1.21,1.21,0,0,1-.8,1s.06-.8.06-.8Z"/><path class="cls-6" d="M967.56,380.53a.72.72,0,0,1-.61.71s0-.62,0-.62Z"/><path class="cls-6" d="M973.46,370.25a1.23,1.23,0,0,1-.81,1.06s.06-.8.06-.8Z"/><path class="cls-6" d="M927.48,450.37a1,1,0,0,1-.72.91s0-.73,0-.73Z"/><path class="cls-6" d="M897.57,502.56a.68.68,0,0,1-.59.68s0-.61,0-.61Z"/><path class="cls-6" d="M895.46,506.25a1.24,1.24,0,0,1-.81,1.06s.06-.8.06-.8Z"/><path class="cls-6" d="M891.67,512.8l-.27.38s-.21-.39-.21-.39Z"/><path class="cls-6" d="M913.61,474.63l-.5.61s-.06-.56-.06-.56Z"/><path class="cls-6" d="M975.57,366.56a.68.68,0,0,1-.59.68s0-.61,0-.61Z"/><path class="cls-6" d="M981.41,356.37a1,1,0,0,1-.72.92s0-.74,0-.74Z"/><path class="cls-6" d="M919.46,464.34a1.05,1.05,0,0,1-.74,1s0-.75,0-.75Z"/><path class="cls-6" d="M887.42,520.21a1.29,1.29,0,0,1-.82,1.11s.06-.83.06-.83Z"/><path class="cls-6" d="M889.56,516.52a.73.73,0,0,1-.61.71s0-.62,0-.62Z"/><path class="cls-6" d="M965.41,384.21a1.29,1.29,0,0,1-.81,1.12s.05-.83.05-.83Z"/><path class="cls-16" d="M1882.07,50c14.65,25.7,29.39,51.35,43.92,77.11,18.61,33,38.2,65.46,56,98.92-3.21,5.65-8.73,3.91-13.47,3.92q-102.9.14-205.81.06-214.8,0-429.6-.19c-8.67,0-13.55,2.31-18,10.17-32.17,56.72-64.8,113.17-97.33,169.69q-44.06,76.55-88.16,153.09c-3.48,6-7.76,11.71-8.86,18.87a6,6,0,0,1-3.57,3.71q-31.47-54.37-62.93-108.74-32.38-56.15-64.59-112.4c-1.48-2.57-2.66-5.31-4-8q56.07-97.86,112.16-195.71,34-59.3,68.19-118.51c8.91-10,18.72-18.65,30.9-24.71a88.86,88.86,0,0,1,40.41-9.38Q1519.68,8,1802,7.84C1836.6,7.78,1863.05,21.38,1882.07,50Z"/><path class="cls-17" d="M1589.72,1169.61l2.11-5.66c9.23-13.08,16.47-27.35,24.46-41.15q49.31-85.14,98.1-170.57c1.48-2.58,2.59-5.37,3.88-8.06,2.67-1.81,3.83-4.66,5.08-7.44-2.48-5.87,1.18-10.39,3.74-14.84q31.06-54,62.14-108,37.28-64.83,74.59-129.65c17.94-31.08,35.67-62.29,53.71-93.32a19.1,19.1,0,0,1,7.71-7.54,2.64,2.64,0,0,1,2.73.72l0-.08q1,.94,1.91,1.95-25.67,44.52-51.35,89-28.16,48.85-56.29,97.72-25.38,44.12-50.71,88.26-24.88,43.25-49.8,86.48-29.08,50.62-58.1,101.28c-16.57,28.85-33.31,57.59-49.71,86.53-5.4,9.52-11.81,18.5-15.9,28.74C1595.51,1166.26,1594.1,1170.13,1589.72,1169.61Z"/><path class="cls-18" d="M1928,584.07l-2.36.18c-5.89.65-8.08-3.78-10.36-7.79-36.63-64.54-73.92-128.7-110.86-193.05-23.69-41.27-47.26-82.62-71.33-123.68-2.76-4.71-6.72-9.54-3.34-15.72l.35-2.09,3.79.18c2.23,8.93,8,16.11,12.37,23.87q45.45,79.84,91.5,159.35c23.78,41.24,47.88,82.29,71.4,123.67C1915.69,560.52,1923.54,571.4,1928,584.07Z"/><path class="cls-18" d="M1929.86,585.94l-1.91-1.95Z"/><path class="cls-19" d="M1724.3,235c-3.25-1.1-6.61-.68-9.92-.68q-192.49,0-385-.25c-8,0-11.74,2.9-15.43,9.33Q1220,407.24,1125.68,570.88c-2.31,4-4.11,8.37-7.46,11.72a18.48,18.48,0,0,1,2.4-11.51q27.12-46.57,54.12-93.2c16.78-29.11,33.34-58.34,50.08-87.47q24.86-43.26,49.88-86.43c13.3-23.05,26.77-46,39.74-69.24,3.55-6.37,7.94-9.42,15.14-8.78,3,.27,6,0,9,0H1982l2,2,2,6c-4,.14-8,.4-12,.41q-117.89,0-235.78,0C1733.61,234.48,1729,234.79,1724.3,235Z"/><path class="cls-20" d="M1919.84,575q-71.05-123.39-142.05-246.81c-16.1-28-32-56.09-48-84.14-2.73-2.47-3.58-6.06-5.44-9.05-2.52-7.19-8.74-4.86-13.62-4.87-125.92-.12-251.85,0-377.77-.34-10.24,0-15.73,3.82-20.47,12.1-54.31,95.06-109.12,189.83-163.59,284.8-10.57,18.43-22.68,36.07-30.64,56l-1,2.74q97.9,170.21,195.62,340.52c4.58,8,9.64,10.78,18.77,10.76q189.4-.45,378.8-.19c4.33,0,8.65.2,13,.31,1.29-1.95,2.68-3.83,3.84-5.84q97.16-168.8,194.27-337.63c1.65-2.87,3.68-5.59,4.14-9C1923.69,581.16,1921.66,578.12,1919.84,575Zm-398,186.44c-99.3.31-176.64-79.16-175.88-176.73-.5-95.58,79.58-176.23,177.84-174.82,94.48,1.35,173.91,76.53,173.58,176.18C1697.07,684.46,1620.5,761.09,1521.86,761.4Z"/><path class="cls-21" d="M3.7,1491.93c13.26-54,46.93-88.17,100.87-100.61,40-9.22,76.67-.23,108.44,26.46,6.66,5.59,6.57,5.76.3,12.15-4.43,4.52-9.16,8.77-13.36,13.49-3.53,4-6.25,4.48-10.57.73-11.28-9.78-24.48-15.81-39.14-18.89C95.23,1413.71,42.12,1455,40,1511.19c-1.79,46.41,26.31,85.45,70.15,95.55,32.21,7.42,61.5,1,85.77-22.83,10.15-10,15.26-22.49,17.94-36.12,1.37-7,.55-7.77-7.13-7.81-21-.1-42,0-63,0-2.33,0-4.67-.1-7,0-3.27.09-5-1.33-5-4.7,0-8.66,0-17.32,0-26,0-3.36,1.86-4.73,5.05-4.68,1.66,0,3.33-.06,5-.06q49,0,97.95,0c9.71,0,9.95.06,10.86,9.62,7.68,80.65-49,127.86-111.18,130.51-64.64,2.75-116.14-39.15-132-90-1.49-4.76-2.51-9.66-3.75-14.49-1.4-4-2.34-8.11-3.64-12.13v-24C1.33,1500,2.16,1495.86,3.7,1491.93Z"/><path class="cls-21" d="M3040,1640c-5.33-.07-10.66-.17-16-.21-13.26-.09-12.15,1-12.17-12.68q-.06-38.49,0-77a77.64,77.64,0,0,0-1.4-15.89c-5-24.11-30.11-34.47-50.87-20.71-11.53,7.64-17.46,19-19.63,32.34a89.14,89.14,0,0,0-.8,13.95c-.08,22.66,0,45.32,0,68,0,2.66,0,5.34-.23,8-.17,2.2-1.32,3.8-3.74,3.82-7,.06-14,.09-21,0-2.9,0-4.06-1.84-4.07-4.56,0-2.33-.08-4.66-.08-7q0-38,0-76a86,86,0,0,0-1.42-17.89c-5.33-25.25-32.88-35.13-53.32-18.91a45.37,45.37,0,0,0-17.37,32.6c-.85,9.6-.68,19.3-.73,29-.1,18.33.06,36.66-.09,55-.06,7.62-.35,7.74-8,7.91-5,.11-10-.1-15,0-4.08.11-6.35-1.36-6.1-5.75.11-2,0-4,0-6q0-65,0-130c0-2.33.08-4.66.07-7,0-3.34,1.68-4.8,4.95-4.77q9,.06,18,0c3.37,0,4.8,1.71,4.79,4.93,0,4.31,0,8.63,0,13,4.49.88,5.31-2.87,7.18-4.71,15.13-14.87,33.19-20.64,54-17.08,13.75,2.35,24.82,9.31,32.26,21.46,1,1.67,1.59,3.74,4.05,4.72,1.86-2.11,3.78-4.36,5.77-6.54,16.59-18.13,37.46-23.64,60.92-19.34,21.29,3.9,35,20,38.47,43.08,1.31,1.85-.3,4.44,1.58,6.14Z"/><path class="cls-21" d="M1283,1447.56c-4.3,5.79-10.25,10.19-15.17,15.57-3.07,3.36-5.35,2.44-8.1-.59-13.17-14.52-29.91-21.89-49.21-23.7-45.64-4.26-88.65,24.45-94.79,75.53-2.11,17.54-.7,34.69,6.36,50.93,13.24,30.46,36.84,47.31,69.72,50.94,27.9,3.08,51.8-5.95,72.06-25.11,1.21-1.14,2.42-2.29,3.57-3.5,2-2.14,4-2,6,0,4.7,4.72,9.36,9.48,14.16,14.1,2.67,2.57,1.61,4.51-.46,6.71a111.57,111.57,0,0,1-14,12.75c-63,47.82-170.62,22.82-186.15-73.52-11.59-71.94,34.29-124,90.38-134.52,38.76-7.26,73.42,1,102.09,29.36a31.41,31.41,0,0,1,2.65,3A10.82,10.82,0,0,1,1283,1447.56Z"/><path class="cls-21" d="M1649.54,1621.24c-3.65,1.19-5,4-7,6.06-19.67,20.12-49.47,20.93-69.45,11.68-12-5.58-20.17-15-25.09-27.24a79,79,0,0,1-5.61-29.25c-.14-29-.08-57.94,0-86.91,0-9.2.12-9.23,9.48-9.31,5,0,10,.06,15,0,3.32,0,4.86,1.61,4.83,4.89,0,2.33.06,4.66.06,7q0,38,0,75.92a92.28,92.28,0,0,0,.35,11c1.76,14.52,7.55,26.38,22.68,31,16,4.82,30.42,2.21,41.91-10.65,9.34-10.45,12.73-23.17,12.76-36.9.06-23.31,0-46.62,0-69.92,0-2.66.06-5.33.15-8,.09-2.83,1.67-4.17,4.44-4.23.33,0,.67,0,1,0,23.14-2.44,23.14-2.44,23.14,20.6q0,59.94,0,119.87c0,2.33-.12,4.67,0,7,.19,4.13-1.5,6.15-5.82,6-5.32-.16-10.66-.14-16,0-4.13.11-6.1-1.45-6.08-5.8C1650.3,1629.85,1650.92,1625.58,1649.54,1621.24Z"/><path class="cls-21" d="M2518.15,1418.8c-2.72,6.79-5.29,12.89-7.6,19.1-1.23,3.32-3,5-6.73,4.06a36.77,36.77,0,0,0-5.93-.84c-16.83-1.24-27.38,8.14-28.13,25-.91,20.17-.91,20.17,19.5,20.17a25.29,25.29,0,0,1,3,0c5.5.66,13.05-2.73,16.07,1.87,3.69,5.62,1.23,13.57,1.16,20.51,0,3.59-2.89,4-5.69,4.05-7.66.06-15.33,0-23,.08-11.05.05-11.1.06-11.1,10.77q0,51.49,0,103c0,2.67-.09,5.33,0,8,.08,3.85-1.9,5.31-5.56,5.26-5.66-.08-11.34-.23-17,.06-5.32.27-6.92-2.14-6.84-7.13.2-12.66.06-25.33.06-38,0-24.33,0-48.65,0-73,0-8.75-.14-8.75-8.9-9-1,0-2,.09-3,0-5.17-.57-12.4,2.53-15.09-1.88-3.74-6.14-1.44-14.23-1.11-21.47.14-3.11,3-3.08,5.34-3.11,5.66-.07,11.33-.21,17,0,4.37.14,5.8-1.84,5.81-6,0-8.31-.38-16.63,1.25-24.91,3.74-19.08,14.75-31.77,33.13-37.73C2489,1413,2503.31,1412.72,2518.15,1418.8Z"/><path class="cls-21" d="M808.16,1517.72q0-55.41,0-110.82c0-10,.08-10,9.79-10.12,6.65-.07,13.31.13,20,0,4.54-.11,6.95,1.53,6.64,6.35-.13,2,0,4,0,6q0,109.32,0,218.64c0,12,0,12-11.84,12.05-5,0-10,0-15,0-9.44-.09-9.53-.12-9.57-9.24-.08-14.31,0-28.62,0-42.93Q808.16,1552.67,808.16,1517.72Z"/><path class="cls-21" d="M2331.41,1560c0-13.33-.12-26.66.06-40,.07-5-1.64-7.44-6.9-7.22-5,.21-10,0-15,0-3.72,0-5.45-1.75-5.39-5.51.08-5,.11-10,0-15-.13-4.2,1.61-6.1,5.9-6,5,.16,10-.17,15,0,4.76.2,6.5-1.84,6.42-6.51-.18-10.33-.11-20.66,0-31,.09-9,.16-9,8.7-9.18,4.33-.08,8.67.17,13,0,5-.26,7.21,1.6,7.08,6.88-.26,10.66-.16,21.33,0,32,.09,7.57.22,7.67,7.94,7.8s15.33.18,23,0c4.46-.1,6.81,1.22,6.73,6.17-.36,24.57,3,19.84-18.64,20.36-4.33.1-8.66.1-13,0-4,0-6.1,1.49-6.08,5.87.11,25.32-.38,50.66.28,76,.42,16,10.18,23,26.24,20.7,7.61-1.1,7.62-1.1,10.66,6.13.9,2.15,1.73,4.33,2.6,6.49,4.39,11,4,11.94-8,13.49a73.39,73.39,0,0,1-26.82-1c-19.71-4.74-31.93-18.18-33.18-38.59-.85-13.94-.16-28-.16-42Z"/><path class="cls-21" d="M1312.55,1528q0-49.5,0-99c0-2.67.07-5.33.06-8,0-3.13,1.19-5.13,4.62-5.13,6.67,0,13.33,0,20,0,3.49,0,4.59,2,4.56,5.15,0,2.33,0,4.67,0,7q0,100,0,200c0,1.33,0,2.67,0,4-.26,7.51-.27,7.57-8.09,7.74-4.66.1-9.34-.18-14,.07-5,.26-7.51-1.55-7.21-6.83.21-3.65,0-7.33,0-11Q1312.55,1575,1312.55,1528Z"/><path class="cls-21" d="M2100,1527q0-49,0-97.93c0-2.66.12-5.33,0-8-.11-3.9,2-4.93,5.55-5.27,23.55-2.2,23.54-2.26,23.54,21.42q0,92.94,0,185.87c0,2.66.05,5.33,0,8-.23,8.6-.25,8.63-9.18,8.73-5,.06-10-.07-15,0-3.31,0-4.89-1.57-4.88-4.85,0-2.66-.06-5.33-.07-8Q2100,1576.92,2100,1527Z"/><path class="cls-21" d="M2725.66,1509.75c4.22-5.16,6.57-8.76,9.62-11.63,14.38-13.54,31.29-18.44,50.67-14,6,1.39,6.44,2.32,4.39,8.15-.44,1.26-.94,2.49-1.48,3.71-2.27,5.17-3.39,11.55-7.17,15.13s-10.08.11-15.3.25c-18.82.49-34.54,13.93-38.35,33.25a85.51,85.51,0,0,0-1.49,16.9c.08,22.33.05,44.66,0,67,0,11.21-.05,11.22-11.67,11.25-3.67,0-7.34-.14-11,0-4.15.17-6.28-1.47-6-5.8.11-2,0-4,0-6q0-65,0-130c0-1.33,0-2.67,0-4,.26-7.52.27-7.57,8.07-7.73,4.66-.1,9.34.13,14,0,4.38-.16,5.9,2,5.78,6.07C2725.55,1497.29,2725.66,1502.27,2725.66,1509.75Z"/><path class="cls-21" d="M1855.44,1427.84c0-2-.1-4,0-6,.18-4.11-1.5-6.17-5.83-6.05-5.33.14-10.66-.1-16,0-7.1.19-7.38.31-7.4,7.35-.07,23,.08,46,.1,69,0,4.15,1.33,8.34-.17,14.37-5-6.2-9.67-10.8-15.14-14.44-28.22-18.77-67.38-12.35-90.09,14.91-17.61,21.14-22.49,45.82-18.26,72.26,3.5,21.9,14.28,40,32.71,53,28.09,19.78,65,15.81,87.93-9.35,1.07-1.17,1.83-2.91,4-2,.11,1,.31,1.94.33,2.93.37,16,.36,16,15.86,16,11.86,0,11.94,1.28,11.94-12Q1855.42,1527.79,1855.44,1427.84ZM1823.6,1585.7c-6.81,19.51-24,32-43.64,32.38-19.93.35-37.27-11.25-45.07-30.37-3.3-8.09-5-16.55-4.79-22.76.13-12.39,2-21.86,6.63-30.49,9.26-17.28,23.58-27,43.55-26.39s33.85,11,41.87,28.93C1829.25,1552.88,1829.31,1569.36,1823.6,1585.7Z"/><path class="cls-21" d="M346.29,1479.61c-46.91.07-82.4,35.24-82.61,81.85-.21,47.25,35.18,82.89,82.42,83s83.38-35.64,83.46-82.33S393.38,1479.54,346.29,1479.61ZM373.21,1603c-19.79,14.85-47,11-62.38-8.56C295.55,1575,296.34,1545,313,1527.23c13-13.86,29.07-18.68,47.26-12.7,18.46,6.07,28.56,19.79,31.77,38.73a72.85,72.85,0,0,1,.59,8C392.59,1578.87,386.69,1592.84,373.21,1603Z"/><path class="cls-21" d="M527.35,1479.61c-46.82-.11-82.89,35.21-83.19,81.46-.31,47.14,35.18,83.15,82.21,83.4,47.37.26,83.48-35.11,83.63-81.92C610.15,1515.42,574.57,1479.72,527.35,1479.61Zm43.92,97.85c-5,17.63-16.81,29.09-34.95,33.46a32.53,32.53,0,0,1-3.91.76c-1.65.19-3.32.21-4,.25-28.41.18-50.22-24.79-47.68-53.55,1.11-12.65,5.42-23.94,14.63-33,17.58-17.37,45.36-17.72,62.94-.34C573.17,1539.71,576.87,1557.8,571.27,1577.45Z"/><path class="cls-21" d="M912.83,1583.65q45.16-18.77,90.35-37.47c2.15-.89,4.3-1.8,6.47-2.64,3.42-1.31,4.25-3.21,2.84-6.91-4-10.33-8.68-20.18-15.59-28.87-20.42-25.69-51.34-35-82.38-24C884.27,1494.47,867.66,1517,863,1548c-8.49,56.49,33.23,97.57,80.68,96.17,3,0,6,.23,9,0,23.15-2.12,41.64-12.9,56.18-30.74,4.09-5,3.94-5.23-1.6-9.15-3.53-2.5-7.15-4.88-10.8-7.2s-7.26-6.06-11.06-6.29c-4.22-.26-6.12,5.42-9.2,8.34-19.53,18.49-50.89,17-66.51-3.19C903.64,1588.11,903.79,1587.4,912.83,1583.65Zm-13.75-25.89c-2.07-5.2-.15-10,1.23-14.6,6.93-23.27,32.6-37,54.17-29.22a30.16,30.16,0,0,1,13.73,9.47c2.66,3.32,2.72,5.88-1.73,7.55-2.79,1.05-5.52,2.27-8.27,3.41q-24.78,10.31-49.57,20.59C905.63,1556.19,902.75,1558,899.07,1557.75Z"/><path class="cls-21" d="M2051.49,1428.61a67.41,67.41,0,0,0-39.34-12.73c-23.33-.14-46.67-.06-70-.08a18,18,0,0,1-2,0c-5.45-.62-7,2.31-6.74,7.15.14,2.32,0,4.67,0,7q0,48.5,0,97,0,50,0,100c0,2.67.06,5.33.1,8,.05,3.28,1.74,4.8,5,4.77,4,0,8,.06,12,.05,11.58,0,11.61,0,11.62-11.22,0-22.33,0-44.67,0-67,0-12-1.48-12.26,11.73-12.23,10.67,0,21.33.09,32,0s21.33-1.24,31.32-5.45c24-10.12,39.18-27.73,42.16-53.86C2082.32,1464.4,2072.58,1443.6,2051.49,1428.61Zm-31.91,91.59a60.7,60.7,0,0,1-13.85,1.41c-11-.06-21.94,0-32.91,0-10.61,0-10.63-.07-10.66-11.18,0-9.31,0-18.62,0-27.93h0c0-10.64.17-21.28-.08-31.91-.12-5.15,1.84-7.1,7-7,15,.23,29.94-.32,44.87.35,18.94.85,34.47,16.44,36.07,35.15C2051.65,1498.18,2038.54,1515.9,2019.59,1520.2Z"/><path class="cls-21" d="M2289.59,1541.26c-.47-18.41-8-34.2-22.89-45.86-24.91-19.53-68.06-18.58-92.11,2a58.08,58.08,0,0,0-13.07,16.25c-1.82,3.3-1.53,5.5,2.26,7,4.65,1.81,9.17,3.94,13.77,5.87,7.19,3,7.19,3,11.72-3,14.86-19.82,48.1-21.17,64.17-2.35,6.35,7.43,10,16,7.67,26.64-1.91-.62-3.18-.95-4.39-1.43a97.51,97.51,0,0,0-44.12-6.24c-15.92,1.28-30.77,5.75-43,16.61-21.37,19-21.73,53.71-.88,72.94,22.2,20.47,62.33,19.87,84.07-1.15,2.55-2.47,4.33-5.81,9.37-8.27,0,5.05.18,8.7,0,12.32-.3,4.88,1.17,7.59,6.65,7.26a146.84,146.84,0,0,1,15,0c4.86.21,6.31-2.09,6.28-6.63C2289.87,1602.54,2290.38,1571.88,2289.59,1541.26Zm-28,39.35c-4.48,25.67-35.1,43.91-59.71,35.28-8.91-3.12-16.21-8.27-17.76-18.37-1.61-10.54,2.69-19,11-25.18,9.21-6.87,20-8.67,31.67-8.46a69,69,0,0,1,29.53,6.39C2261.09,1572.4,2262.47,1575.58,2261.59,1580.61Z"/><path class="cls-21" d="M2568.54,1486.05c-31.78,10.5-51.08,40.31-50.9,76.83,0,2.66-.2,5.34,0,8,2.53,29.31,15.5,52.44,42.38,65.44,27.42,13.26,55.13,11.94,80.74-5.05,23.1-15.33,33.13-38.33,33.92-65.57C2676.48,1504.38,2623.67,1467.84,2568.54,1486.05Zm65.1,114c-22.62,28.08-66.46,22.57-81.73-10.48-8.11-17.54-8.23-35.59,0-53.07,8.51-18,23.13-28.16,43.31-28.47,20.62-.32,35.43,9.74,44.7,27.9,4.3,8.41,6,17.56,6,29C2645.7,1576.63,2642.36,1589.26,2633.64,1600.09Z"/><path class="cls-21" d="M1520,1551c-3.09-31.47-25.28-58.67-55.2-66.55-32.8-8.64-66,.64-85.76,27.56-14.16,19.28-17.82,41.14-15,64.46,4.17,35.1,32.2,63.68,66.23,67.45,39.92,4.42,73-15.15,85.54-50.56a87.58,87.58,0,0,0,4.95-30.4C1520.47,1559,1520.38,1555,1520,1551Zm-36,42.3c-9.31,16.72-24.3,25.28-43.62,24.64s-33.29-10.31-42.1-27.32c-4.5-8.69-6.35-18.14-6.21-32a55.61,55.61,0,0,1,11.85-32.15c21.31-27,62.93-24.2,79.93,5.92C1495.1,1552.37,1495.14,1573.29,1484,1593.33Z"/><path class="cls-21" d="M783.67,1490c.26-4.41-2.05-5.83-6.11-5.72-5,.13-10,0-15,0-12.85,0-12.85,0-15.16,11.5-2,.26-2.92-1.31-4.14-2.34-16.05-13.51-34.73-16.74-54.46-12.08-31.6,7.47-52.12,27.78-60.59,58.79-8.59,31.41-.74,59.38,22.59,82.42,26.48,26.15,69.94,30.32,95,6.08.34-.33,1.2-.13,2.3-.22.89,5.91.54,11.84.06,17.75-1.54,19-11.74,32.69-27.86,37.66-18.92,5.83-37.6.32-49.41-14.68a47.3,47.3,0,0,1-5-7.47c-1.9-3.68-4.32-4.54-8.11-2.87-7,3.1-14,6.14-21.19,8.85-4.25,1.61-4.72,3.81-2.7,7.58a86.85,86.85,0,0,0,22,26.88c10.08,8.17,21.84,12.54,34.13,15.88l5.79.28,20.32-.15,3.95,0c1.59-.48,3.16-1.08,4.78-1.44,31-6.89,48.89-26.62,55.73-57.11,2.42-10.79,3.08-21.74,3.09-32.75q.05-66,0-131.91C783.68,1493.3,783.57,1491.63,783.67,1490Zm-36.49,93.6c-6.35,16.12-18.25,26.34-35.76,28.07s-31.09-5.6-41.09-19.77c-5.92-8.4-8.6-18-8.63-29.21-.25-13.2,3.71-25,12.33-35,20.05-23.28,54.91-20,70,6.76C752.91,1550.17,753.76,1566.87,747.18,1583.57Z"/></g></g></svg>