<?xml version="1.0" encoding="utf-8"?>
<!-- Generator: Adobe Illustrator 21.1.0, SVG Export Plug-In . SVG Version: 6.00 Build 0)  -->
<svg version="1.1" id="Layer_1" xmlns="http://www.w3.org/2000/svg" xmlns:xlink="http://www.w3.org/1999/xlink" x="0px" y="0px"
	 viewBox="0 0 210 210" style="enable-background:new 0 0 210 210;" xml:space="preserve">
<style type="text/css">
	.st0{fill:#EEEEEE;stroke:#FFFFFF;stroke-width:9.76;}
	.st1{fill:none;stroke:#F2EDED;stroke-width:2.44;}
	.st2{fill:#0A84F2;}
	.st3{fill:#005EB8;}
	.st4{fill:#95C8EC;}
	.st5{fill:#FBB040;}
	.st6{fill:#ED8B00;}
</style>
<title>c++</title>
<g id="Rectangle-290">
	<path id="path-1" class="st0" d="M102.6,5h4.9c53.9,0,97.6,43.7,97.6,97.6l0,0v4.9c0,53.9-43.7,97.6-97.6,97.6h0h-4.9
		C48.7,205,5,161.3,5,107.4v-4.9C5,48.6,48.7,5,102.6,5z"/>
	<path id="path-1-2" class="st1" d="M102.6,5h4.9c53.9,0,97.6,43.7,97.6,97.6l0,0v4.9c0,53.9-43.7,97.6-97.6,97.6h0h-4.9
		C48.7,205,5,161.3,5,107.4v-4.9C5,48.6,48.7,5,102.6,5z"/>
</g>
<g>
	<g>
		<path class="st2" d="M73.8,108.1v16.8l14.6,8.4l1.8-10.4l-1.8-10L73.8,108.1z"/>
		<path class="st3" d="M88.3,112.9v20.4l14.6-8.4v-16.8L88.3,112.9z"/>
		<path class="st4" d="M88.3,99.7l-14.6,8.4l14.6,8.4l1.8-8.4L88.3,99.7z"/>
		<path class="st4" d="M88.3,116.5l14.6-8.4l-14.6-8.4V116.5z"/>
	</g>
	<g>
		<path class="st2" d="M107.1,108.1v16.8l14.6,8.4l1.8-10.4l-1.8-10L107.1,108.1z"/>
		<path class="st3" d="M121.7,112.9v20.4l14.6-8.4v-16.8L121.7,112.9z"/>
		<path class="st4" d="M121.7,99.7l-14.6,8.4l14.6,8.4l1.8-8.4L121.7,99.7z"/>
		<path class="st4" d="M121.7,116.5l14.6-8.4l-14.6-8.4V116.5z"/>
	</g>
	<g>
		<path class="st2" d="M90.4,79.1v16.8l14.6,8.4l1.8-10.4l-1.8-10L90.4,79.1z"/>
		<path class="st3" d="M105,83.9v20.4l14.6-8.4V79.1L105,83.9z"/>
		<path class="st4" d="M105,70.7l-14.6,8.4l14.6,8.4l1.8-8.4L105,70.7z"/>
		<path class="st4" d="M105,87.5l14.6-8.4L105,70.7V87.5z"/>
	</g>
</g>
<g>
	<g>
		<path class="st5" d="M116,153.8l2.3,9.5c4.3-1.1,8.5-2.6,12.4-4.6l-4.4-8.7C123.1,151.6,119.6,152.9,116,153.8z"/>
		<path class="st5" d="M149.4,126.6c-1.6,3.3-3.6,6.5-5.9,9.4l7.7,6c2.7-3.5,5.1-7.3,7-11.2L149.4,126.6z"/>
		<path class="st6" d="M104,155.3h-0.7l0,0c-18.9-0.3-35.7-10.9-44.1-27.4l9.2-1.9l-19.5-21.7l-9,27.7l9.6-2
			c9.5,21,30.2,34.7,53.7,35l0.1-4.9l-0.1,4.9h0.9c2.6,0,5.3-0.2,7.8-0.5l-1.3-9.7C108.4,155.1,106.2,155.3,104,155.3z"/>
		<path class="st5" d="M131.3,147.2l5.3,8.2c3.7-2.4,7.2-5.2,10.3-8.4l-7-6.8C137.3,142.9,134.4,145.2,131.3,147.2z"/>
	</g>
	<g>
		<path class="st6" d="M158.6,80.1C149,59,128.3,45.3,104.8,45l-0.1,4.9l0.1-4.9h-0.9l0,0c-3.5,0-7.1,0.3-10.6,0.9l1.7,9.6
			c2.9-0.5,5.9-0.8,8.9-0.8l0,0h0.7l0,0c18.9,0.3,35.7,10.9,44.1,27.4l-9.2,1.9l19.5,21.7l9-27.7L158.6,80.1z"/>
		<path class="st5" d="M48.7,81.7l9,3.8c1.4-3.4,3.3-6.7,5.4-9.7l-7.9-5.7C52.6,73.7,50.4,77.6,48.7,81.7z"/>
		<path class="st5" d="M74.7,52.6l4.8,8.5c3.2-1.8,6.7-3.3,10.2-4.3l-2.8-9.3C82.7,48.7,78.6,50.4,74.7,52.6z"/>
		<path class="st5" d="M59.3,65l7.3,6.5c2.5-2.8,5.3-5.2,8.3-7.4l-5.7-7.9C65.6,58.7,62.2,61.7,59.3,65z"/>
	</g>
</g>
</svg>
