<svg id="Layer_1" data-name="Layer 1" xmlns="http://www.w3.org/2000/svg" viewBox="0 0 210 210"><defs><style>.cls-1{fill:#eee;stroke:#fff;stroke-width:9.76px;}.cls-2{fill:none;stroke:#f2eded;stroke-width:2.44px;}.cls-3{fill:#fff;}.cls-4{fill:#fdbb3d;}.cls-5{fill:#6fc4f7;}.cls-6{fill:#e78c04;}.cls-7{fill:#005eb8;}</style></defs><title>-</title><g id="Rectangle-290"><path id="path-1" class="cls-1" d="M102.56,5h4.88A97.53,97.53,0,0,1,205,102.56v4.88A97.53,97.53,0,0,1,107.44,205h-4.88A97.53,97.53,0,0,1,5,107.44v-4.88A97.53,97.53,0,0,1,102.56,5Z"/><path id="path-1-2" data-name="path-1" class="cls-2" d="M102.56,5h4.88A97.53,97.53,0,0,1,205,102.56v4.88A97.53,97.53,0,0,1,107.44,205h-4.88A97.53,97.53,0,0,1,5,107.44v-4.88A97.53,97.53,0,0,1,102.56,5Z"/></g><rect class="cls-3" x="49.11" y="58.26" width="96.4" height="71.2" rx="12.2" ry="12.2"/><path class="cls-4" d="M133.31,63.26a7.2,7.2,0,0,1,7.2,7.2v46.8a7.2,7.2,0,0,1-7.2,7.2h-72a7.2,7.2,0,0,1-7.2-7.2V70.46a7.2,7.2,0,0,1,7.2-7.2h72m0-10h-72a17.22,17.22,0,0,0-17.2,17.2v46.8a17.22,17.22,0,0,0,17.2,17.2h72a17.22,17.22,0,0,0,17.2-17.2V70.46a17.22,17.22,0,0,0-17.2-17.2Z"/><circle class="cls-5" cx="79.31" cy="84.86" r="7.2"/><path class="cls-5" d="M93.71,106.46H64.91V98a16.56,16.56,0,0,1,7.16-3.48,11.82,11.82,0,0,0,14.46,0A16.6,16.6,0,0,1,93.71,98Z"/><rect class="cls-5" x="104.51" y="84.86" width="25.18" height="7.2"/><rect class="cls-5" x="104.51" y="99.26" width="25.18" height="7.2"/><path class="cls-6" d="M108.09,59.66a10.79,10.79,0,1,0-21.57,0v10.8h21.57V59.66Zm-10.8,3.61a3.61,3.61,0,1,1,3.61-3.61A3.61,3.61,0,0,1,97.29,63.28Z"/><path class="cls-7" d="M135.89,101.14a30,30,0,1,0,30,30A30,30,0,0,0,135.89,101.14Z"/><polygon class="cls-3" points="131.34 146.29 116.19 131.14 122.25 125.08 131.34 134.17 149.52 115.98 155.58 122.05 131.34 146.29"/></svg>