<svg id="Layer_1" data-name="Layer 1" xmlns="http://www.w3.org/2000/svg" viewBox="0 0 210 210"><defs><style>.cls-1{fill:#eee;stroke:#fff;stroke-width:9.76px;}.cls-2{fill:none;stroke:#f2eded;stroke-width:2.44px;}.cls-3{fill:#c3e9f4;}.cls-4{fill:#fdbb3d;}.cls-5{fill:#ed8b00;}.cls-6{fill:#7ec4f7;}.cls-7{fill:#005eb8;}</style></defs><title>-</title><g id="Rectangle-290"><path id="path-1" class="cls-1" d="M102.56,5h4.88A97.53,97.53,0,0,1,205,102.56v4.88A97.53,97.53,0,0,1,107.44,205h-4.88A97.53,97.53,0,0,1,5,107.44v-4.88A97.53,97.53,0,0,1,102.56,5Z"/><path id="path-1-2" data-name="path-1" class="cls-2" d="M102.56,5h4.88A97.53,97.53,0,0,1,205,102.56v4.88A97.53,97.53,0,0,1,107.44,205h-4.88A97.53,97.53,0,0,1,5,107.44v-4.88A97.53,97.53,0,0,1,102.56,5Z"/></g><g id="flat"><polygon class="cls-3" points="157.5 146.64 88.71 146.64 88.71 52.5 155.23 52.5 157.5 52.5 157.5 146.64"/><path class="cls-4" d="M110,157.5H56.57a4.07,4.07,0,0,1-4.07-4.07h0a4.07,4.07,0,0,1,.81-2.44l4.62-6.16V123.5a20.81,20.81,0,0,1,16.29-20.31h18.1a20.81,20.81,0,0,1,16.29,20.31v21.33l4.62,6.16a4.07,4.07,0,0,1,.81,2.44h0A4.07,4.07,0,0,1,110,157.5Z"/><polygon class="cls-5" points="92.33 103.19 74.22 103.19 68.79 92.33 97.76 92.33 92.33 103.19"/><rect class="cls-6" x="103.19" y="95.95" width="45.26" height="3.62"/><rect class="cls-6" x="110.43" y="105" width="18.1" height="3.62"/><rect class="cls-6" x="132.16" y="105" width="16.29" height="3.62"/><rect class="cls-6" x="115.86" y="114.05" width="32.59" height="3.62"/><rect class="cls-6" x="115.86" y="123.1" width="19.91" height="3.62"/><rect class="cls-6" x="139.4" y="123.1" width="9.05" height="3.62"/><rect class="cls-6" x="115.86" y="132.16" width="32.59" height="3.62"/><rect class="cls-6" x="130.34" y="86.9" width="18.1" height="3.62"/><rect class="cls-6" x="130.34" y="77.84" width="18.1" height="3.62"/><path class="cls-7" d="M110.43,89.86A22.53,22.53,0,0,1,105,86.31a16.66,16.66,0,0,1-5.9-12.88v-7c2.73-.27,7.69-1.15,11.36-3.92,3.66,2.77,8.62,3.64,11.36,3.92v7C121.78,83.93,113,88.7,110.43,89.86Z"/></g><path class="cls-5" d="M82.92,141.72a17.52,17.52,0,0,1-6.21-1.44v-4.86a21.23,21.23,0,0,0,3.71,1.45,12.85,12.85,0,0,0,3.52.58,4.18,4.18,0,0,0,1.83-.3,1,1,0,0,0,.58-1,1,1,0,0,0-.42-.83,6.5,6.5,0,0,0-1.4-.77q-1-.43-2.64-1a12,12,0,0,1-3-1.62A5.42,5.42,0,0,1,77.19,130a6,6,0,0,1-.52-2.64,4.79,4.79,0,0,1,1.56-3.79,8.28,8.28,0,0,1,4.68-1.69v-2h3v2a17.29,17.29,0,0,1,5.91,1.44l-1.76,4.2a13.74,13.74,0,0,0-5.55-1.38,3.44,3.44,0,0,0-1.65.29.92.92,0,0,0-.48.88,1,1,0,0,0,.34.8,4.88,4.88,0,0,0,1.2.7q.88.39,2.37.88a11.44,11.44,0,0,1,4.4,2.48,5,5,0,0,1,1.34,3.59,5.4,5.4,0,0,1-1.51,4A7.64,7.64,0,0,1,86,141.64v2.84h-3Z"/></svg>