<svg id="Layer_1" data-name="Layer 1" xmlns="http://www.w3.org/2000/svg" viewBox="0 0 210 210"><defs><style>.cls-1{fill:#eee;stroke:#fff;stroke-width:9.76px;}.cls-2{fill:none;stroke:#f2eded;stroke-width:2.44px;}.cls-3{fill:#0f8ada;}.cls-4{fill:#005eb8;}.cls-5{fill:#ecf0f1;}.cls-6{fill:#ffa836;}.cls-7{fill:#fff;}.cls-8{fill:#fbb040;}.cls-9{fill:#ed8b00;}.cls-10{fill:#ffbe5f;}</style></defs><title>-</title><g id="Rectangle-290"><path id="path-1" class="cls-1" d="M102.56,5h4.88A97.53,97.53,0,0,1,205,102.56v4.88A97.53,97.53,0,0,1,107.44,205h-4.88A97.53,97.53,0,0,1,5,107.44v-4.88A97.53,97.53,0,0,1,102.56,5Z"/><path id="path-1-2" data-name="path-1" class="cls-2" d="M102.56,5h4.88A97.53,97.53,0,0,1,205,102.56v4.88A97.53,97.53,0,0,1,107.44,205h-4.88A97.53,97.53,0,0,1,5,107.44v-4.88A97.53,97.53,0,0,1,102.56,5Z"/></g><g id="_001---Money-In" data-name="001---Money-In"><path id="Shape" class="cls-3" d="M122.17,87.06H61a7.09,7.09,0,0,0-7.09,7.09v53.21A7.09,7.09,0,0,0,61,154.46h81.59a7.09,7.09,0,0,0,7.09-7.09V114.54Z"/><path id="Shape-2" data-name="Shape" class="cls-4" d="M80.47,131.41h69.17v12.42H53.86V131.41h26.6Z"/><circle id="Oval" class="cls-5" cx="68.05" cy="101.25" r="5.32"/><circle id="Oval-2" data-name="Oval" class="cls-6" cx="78.69" cy="101.25" r="5.32"/><path id="Shape-3" data-name="Shape" class="cls-7" d="M68.05,122.54h-4.4C61.87,121,63,119,64.51,119h4.4C70.69,120.55,69.6,122.54,68.05,122.54Z"/><path id="Shape-4" data-name="Shape" class="cls-7" d="M89.34,122.54h-15c-1.78-1.56-.7-3.55.85-3.55h15C92,120.55,90.88,122.54,89.34,122.54Z"/></g><path class="cls-8" d="M117.72,34.46,106.37,45.81h7.56V59h7.56V45.86h7.56Z"/><path class="cls-9" d="M114.09,63.24h7.25v7.19h-7.25Z"/><circle class="cls-9" cx="137.22" cy="99.48" r="18.91"/><path class="cls-10" d="M135.72,109.25a17.9,17.9,0,0,1-6.35-1.47v-5a21.69,21.69,0,0,0,3.79,1.48,13.13,13.13,0,0,0,3.6.59,4.27,4.27,0,0,0,1.87-.31,1.07,1.07,0,0,0,.59-1,1.05,1.05,0,0,0-.43-.85,6.64,6.64,0,0,0-1.43-.78q-1-.44-2.7-1.05a12.23,12.23,0,0,1-3.09-1.65,5.54,5.54,0,0,1-1.71-2,6.15,6.15,0,0,1-.53-2.7,4.89,4.89,0,0,1,1.59-3.87A8.46,8.46,0,0,1,135.71,89V86.89h3.11v2a17.66,17.66,0,0,1,6,1.47l-1.8,4.29a14,14,0,0,0-5.67-1.41,3.52,3.52,0,0,0-1.69.3.94.94,0,0,0-.49.9,1.06,1.06,0,0,0,.35.82,5,5,0,0,0,1.22.72q.9.4,2.42.9a11.69,11.69,0,0,1,4.5,2.54,5.06,5.06,0,0,1,1.37,3.67,5.51,5.51,0,0,1-1.55,4.1,7.81,7.81,0,0,1-4.68,2v2.9h-3.11Z"/><circle class="cls-9" cx="98.2" cy="80.57" r="14.78"/><path class="cls-10" d="M97,88.21a14,14,0,0,1-5-1.15V83.17a17,17,0,0,0,3,1.16,10.26,10.26,0,0,0,2.81.46,3.34,3.34,0,0,0,1.46-.24.84.84,0,0,0,.46-.81.82.82,0,0,0-.34-.66,5.19,5.19,0,0,0-1.12-.61q-.78-.34-2.11-.82a9.56,9.56,0,0,1-2.42-1.29,4.33,4.33,0,0,1-1.34-1.54A4.81,4.81,0,0,1,92,76.72a3.82,3.82,0,0,1,1.24-3A6.61,6.61,0,0,1,97,72.35V70.73h2.43v1.59a13.8,13.8,0,0,1,4.71,1.15l-1.41,3.35a11,11,0,0,0-4.43-1.1A2.75,2.75,0,0,0,97,76a.74.74,0,0,0-.38.7.83.83,0,0,0,.27.64,3.89,3.89,0,0,0,1,.56q.7.31,1.89.7a9.13,9.13,0,0,1,3.51,2,4,4,0,0,1,1.07,2.87,4.31,4.31,0,0,1-1.21,3.2,6.1,6.1,0,0,1-3.65,1.53v2.27H97Z"/><path class="cls-9" d="M133.6,55h7.25v7.19H133.6Z"/><path class="cls-9" d="M133.6,65.78h7.25V73H133.6Z"/><path class="cls-9" d="M94.58,53h7.25v7.25H94.58Z"/></svg>