<svg id="Layer_1" data-name="Layer 1" xmlns="http://www.w3.org/2000/svg" viewBox="0 0 210 210"><defs><style>.cls-1{fill:#eee;stroke:#fff;stroke-width:9.76px;}.cls-2{fill:none;stroke:#f2eded;stroke-width:2.44px;}.cls-3{fill:#fff;}.cls-4{fill:#9ad9fc;}.cls-5{fill:#005eb8;}.cls-6{fill:#f7f3f1;}.cls-7{fill:#ed8b00;stroke:#ed8b00;stroke-miterlimit:10;stroke-width:2px;}</style></defs><g id="Rectangle-290"><path id="path-1" class="cls-1" d="M102.6,5h4.9a97.6,97.6,0,0,1,97.6,97.6h0v4.9a97.6,97.6,0,0,1-97.6,97.6h-4.9A97.75,97.75,0,0,1,5,107.4v-4.9A97.58,97.58,0,0,1,102.6,5Z"/><path id="path-1-2" class="cls-2" d="M102.6,5h4.9a97.6,97.6,0,0,1,97.6,97.6h0v4.9a97.6,97.6,0,0,1-97.6,97.6h-4.9A97.75,97.75,0,0,1,5,107.4v-4.9A97.58,97.58,0,0,1,102.6,5Z"/></g><path class="cls-3" d="M100.87,107.88a10.79,10.79,0,0,0,6.32,2H127.4v9.79l12.8-9.79h5.53a10.77,10.77,0,0,0,10.78-10.75V60.75A10.77,10.77,0,0,0,145.73,50H107.19A10.77,10.77,0,0,0,96.41,60.75v47.13Z"/><path class="cls-4" d="M118.15,94.16l1.11.9a9.87,9.87,0,0,0,6.23,2.2h15.78a2.63,2.63,0,0,0,2.63-2.75c-.07-1.42,0-14.31,0-15.77a2.63,2.63,0,0,0-2.63-2.63l-10.7,0,1.31-3.1a11.23,11.23,0,0,0-.6-9.94,1.77,1.77,0,0,0-3.27.87,11.4,11.4,0,0,1-2.85,7.55l-6.83,7.72h-2.48v15Z"/><path class="cls-5" d="M117.08,96.53h-7.2a.85.85,0,0,1-.86-.86V77.31a.85.85,0,0,1,.86-.86h7.2a.86.86,0,0,1,.87.86V95.67A.86.86,0,0,1,117.08,96.53Z"/><path class="cls-5" d="M100.89,127.13V88.36a8.5,8.5,0,0,0-8.51-8.48H62a8.5,8.5,0,0,0-8.5,8.48v30.29a8.5,8.5,0,0,0,8.5,8.48h16.7v7.8l10.1-7.8Z"/><path class="cls-6" d="M88.33,106H82.22l.67-4h5.44a1.66,1.66,0,0,0,0-3.32H83.44l.91-5.53a1.66,1.66,0,0,0-3.27-.54l-1,6.07h-4L77,93.1a1.66,1.66,0,0,0-3.27-.54l-1,6.07H66A1.66,1.66,0,0,0,66,102h6.12l-.67,4H66a1.66,1.66,0,0,0,0,3.32h4.9L70,114.84a1.66,1.66,0,0,0,3.28.55l1-6.07h4l-.92,5.52a1.66,1.66,0,0,0,3.28.55l1-6.07h6.66a1.66,1.66,0,0,0,0-3.32Zm-9.47,0h-4l.67-4h4Z"/><path class="cls-7" d="M117.34,120.94H95.77a6,6,0,0,0-6,6v21.5a6,6,0,0,0,6,6h11.85V160l7.16-5.53h2.56a6,6,0,0,0,6-6V127a6,6,0,0,0-6-6Z"/><path class="cls-6" d="M106.55,145c5.19-2.76,7.88-5.1,7.88-8.72,0-5-6.13-6.25-7.88-2.5-2-3.88-7.87-2.5-7.87,2.5,0,3.62,2.68,6,7.87,8.72Z"/></svg>