<svg id="Layer_1" data-name="Layer 1" xmlns="http://www.w3.org/2000/svg" viewBox="0 0 210 210"><defs><style>.cls-1{fill:#eee;stroke:#fff;stroke-width:9.76px;}.cls-11,.cls-2{fill:none;}.cls-2{stroke:#f2eded;stroke-width:2.44px;}.cls-3{fill:#7ec4f7;}.cls-4{fill:#fff;}.cls-5{fill:#a1d0fe;}.cls-6{fill:#ed8b00;}.cls-7{fill:#fafafa;}.cls-8{fill:#fbb040;}.cls-9{fill:#103159;}.cls-10{fill:#005eb8;}.cls-11{stroke:#123155;stroke-miterlimit:10;stroke-width:4.62px;}</style></defs><title>-</title><g id="Rectangle-290"><path id="path-1" class="cls-1" d="M102.56,5h4.88A97.53,97.53,0,0,1,205,102.56v4.88A97.53,97.53,0,0,1,107.44,205h-4.88A97.53,97.53,0,0,1,5,107.44v-4.88A97.53,97.53,0,0,1,102.56,5Z"/><path id="path-1-2" data-name="path-1" class="cls-2" d="M102.56,5h4.88A97.53,97.53,0,0,1,205,102.56v4.88A97.53,97.53,0,0,1,107.44,205h-4.88A97.53,97.53,0,0,1,5,107.44v-4.88A97.53,97.53,0,0,1,102.56,5Z"/></g><path class="cls-3" d="M80.24,68.47h36.19V115H80.24Z"/><path class="cls-4" d="M90.58,86.56h5.17v5.17H90.58Z"/><path class="cls-4" d="M100.92,86.56h5.17v5.17h-5.17Z"/><path class="cls-4" d="M90.58,76.22h5.17v5.17H90.58Z"/><path class="cls-4" d="M100.92,76.22h5.17v5.17h-5.17Z"/><path class="cls-5" d="M116.47,53.69H163V136.4H116.47Z"/><path class="cls-4" d="M126.81,66.61H132v5.17h-5.17Z"/><path class="cls-4" d="M137.15,66.61h5.17v5.17h-5.17Z"/><path class="cls-4" d="M147.49,66.61h5.17v5.17h-5.17Z"/><path class="cls-4" d="M126.81,77H132v5.17h-5.17Z"/><path class="cls-4" d="M137.15,77h5.17v5.17h-5.17Z"/><path class="cls-4" d="M147.49,77h5.17v5.17h-5.17Z"/><path class="cls-6" d="M43,130.18v14.73a3,3,0,0,0,2.95,2.95H75.41a3,3,0,0,0,2.95-2.95V115.45a3,3,0,0,0-2.95-2.95H54.78a2.94,2.94,0,0,0-2.53,1.43l-8.84,14.73A2.9,2.9,0,0,0,43,130.18Z"/><polygon class="cls-7" points="66.57 130.18 49.38 130.18 56.45 118.39 66.57 118.39 66.57 130.18"/><path class="cls-8" d="M72.46,103.66v44.19h56a3,3,0,0,0,2.95-2.95V103.66a3,3,0,0,0-2.95-2.95h-53A3,3,0,0,0,72.46,103.66Z"/><circle class="cls-7" cx="57.73" cy="144.91" r="5.89"/><path class="cls-9" d="M48.89,144.91a8.84,8.84,0,1,1,8.84,8.84A8.85,8.85,0,0,1,48.89,144.91Zm5.89,0A2.95,2.95,0,1,0,57.73,142,3,3,0,0,0,54.78,144.91Z"/><path class="cls-6" d="M72.46,136.07h58.92v8.84a3,3,0,0,1-2.95,2.95h-56Z"/><circle class="cls-7" cx="110.76" cy="144.91" r="5.89"/><path class="cls-9" d="M101.92,144.91a8.84,8.84,0,1,1,8.84,8.84A8.85,8.85,0,0,1,101.92,144.91Zm5.89,0a2.95,2.95,0,1,0,2.95-2.95A3,3,0,0,0,107.81,144.91Z"/><path class="cls-10" d="M113.58,113.55l.74,2.21-2.21,5.15,3.68,4.42,5.15-1.47,1.84,1.1,1.84,5.15,5.89.37,2.58-4.79,2.21-.74,5.15,2.21,4.42-3.68-1.47-5.15,1.1-1.84,5.15-2.21.37-5.89-4.79-2.58L144.5,104l2.21-5.15L143,94.41l-5.15,1.47L136,94.77l-1.84-5.15-5.89-.37L125.72,94l-1.84.74-5.15-2.21-4.42,3.68,1.47,5.15-1.1,1.84-5.15,1.84-.37,5.89Z"/><g id="_Group_" data-name="&lt;Group&gt;"><circle class="cls-4" cx="129.45" cy="109.5" r="5.38" transform="translate(11.31 231.12) rotate(-86.06)"/><circle class="cls-11" cx="129.45" cy="109.5" r="7.73" transform="translate(11.25 231.05) rotate(-86.03)"/></g></svg>