<svg id="design" xmlns="http://www.w3.org/2000/svg" viewBox="0 0 200 160"><defs><style>.cls-1{fill:#f2f2f2;}.cls-2{fill:#fff;}.cls-3{fill:none;stroke:#fff;stroke-miterlimit:10;stroke-width:5px;}.cls-4{fill:#fbb040;}.cls-5{fill:#ed8b00;}.cls-6{fill:#0f89db;}.cls-7{fill:#005eb8;}.cls-8{fill:#ffbe5f;}</style></defs><title>our-principles</title><path class="cls-1" d="M83.78,118.21l-7.17-9.34,1.6-11.6L67.27,92.92,62.93,82l-11.6,1.6-9.43-7.26-9.34,7.17-11.6-1.6L16.6,92.83,5.66,97.17l1.6,11.6L0,118.21l7.17,9.34-1.6,11.6,10.94,4.34,4.34,10.94,11.6-1.6L41.79,160l9.34-7.17,11.6,1.6,4.34-10.94L78,139.06l-1.6-11.6Z"/><path class="cls-2" d="M52.32,105.66,38.48,119.5l-7-7-5.58,5.58,12.6,12.6L57.9,111.24Z"/><circle class="cls-3" cx="41.89" cy="118.16" r="27"/><g id="flat"><path class="cls-4" d="M40.66,0,24.39,16.22H35.2V35.13H46V16.22H56.81Z"/><path class="cls-4" d="M155.89,92.23l-16.22,16.22h10.81v18.91h10.81V108.51h10.81Z"/><path class="cls-5" d="M183.8,28.38,167.58,44.59h10.81V63.52h10.81V44.59H200Z"/><path class="cls-5" d="M150.7,133.35h10.36v10.28H150.7Z"/><path class="cls-5" d="M150.7,148.77h10.36v10.36H150.7Z"/><path class="cls-6" d="M67.57,76.21H78.38A21.63,21.63,0,0,1,100,97.83h0v2.7H89.2A21.63,21.63,0,0,1,67.57,78.92v-2.7Z"/><path class="cls-7" d="M79.52,89.19l3.14-4.39,18.93,13.5-3.14,4.39Z"/><path class="cls-6" d="M110.81,105.94H100v-2.7a21.63,21.63,0,0,1,21.63-21.63h10.81v2.7a21.63,21.63,0,0,1-21.63,21.63Z"/><path class="cls-7" d="M98.44,103.8l18.93-13.5,3.14,4.39-18.93,13.5Z"/><path class="cls-7" d="M97.31,65.92h5.41v50.84H97.31Z"/><path class="cls-6" d="M70.27,116.76h59.47v10.81H70.27Z"/><path class="cls-7" d="M118.92,160H81.09l-5.41-32.43h48.65Z"/><circle class="cls-5" cx="100.01" cy="43.78" r="27.02"/><path class="cls-8" d="M97.86,57.74a25.57,25.57,0,0,1-9.07-2.11V48.54a31,31,0,0,0,5.42,2.12,18.76,18.76,0,0,0,5.14.85,6.1,6.1,0,0,0,2.67-.44,1.53,1.53,0,0,0,.85-1.48,1.5,1.5,0,0,0-.62-1.21,9.48,9.48,0,0,0-2-1.12q-1.43-.63-3.85-1.5a17.48,17.48,0,0,1-4.42-2.36,7.92,7.92,0,0,1-2.44-2.81,8.79,8.79,0,0,1-.76-3.85A7,7,0,0,1,91,31.21a12.09,12.09,0,0,1,6.84-2.47v-3h4.45v2.9a25.24,25.24,0,0,1,8.62,2.11l-2.57,6.13a20.06,20.06,0,0,0-8.11-2,5,5,0,0,0-2.42.42,1.35,1.35,0,0,0-.69,1.28,1.52,1.52,0,0,0,.5,1.17,7.12,7.12,0,0,0,1.75,1q1.28.57,3.46,1.28a16.7,16.7,0,0,1,6.42,3.62,7.23,7.23,0,0,1,2,5.24A7.88,7.88,0,0,1,109,54.83a11.15,11.15,0,0,1-6.68,2.8v4.15H97.87Z"/></g></svg>