<svg id="design" xmlns="http://www.w3.org/2000/svg" viewBox="0 0 200 160"><defs><style>.cls-1{fill:#cecece;}.cls-2{fill:#f2f2f2;}.cls-3{fill:#e0e0e0;}.cls-4{fill:#fff;}.cls-5{fill:#ed8b00;}.cls-6{fill:#fbb040;}.cls-7{fill:#005eb8;}.cls-8{fill:#0f89db;}</style></defs><title>our-principles</title><path class="cls-1" d="M131.12,145.5V160h61.63a7.27,7.27,0,0,0,7.25-7.25V145.5Z"/><path class="cls-2" d="M183.69,54.86H116.61a7.27,7.27,0,0,1,7.25,7.25v90.64a7.25,7.25,0,0,0,14.5,0V145.5h52.57V62.11A7.27,7.27,0,0,0,183.69,54.86Z"/><path class="cls-3" d="M155.22,88.58l1.27.72,1.27-.72a21.87,21.87,0,0,0,9.61-18.13V65.74l-10.88-3.63-10.88,3.63v4.71A22.11,22.11,0,0,0,155.22,88.58Z"/><path class="cls-4" d="M171,111.06h14.5v3.63H171Z"/><path class="cls-4" d="M129.3,111.06h38.07v3.63H129.3Z"/><path class="cls-4" d="M149.24,118.31H185.5v3.63H149.24Z"/><path class="cls-4" d="M129.3,118.31h16.31v3.63H129.3Z"/><path class="cls-4" d="M161.93,132.81H185.5v3.63H161.93Z"/><path class="cls-4" d="M129.3,132.81h29v3.63h-29Z"/><path class="cls-4" d="M140.18,125.56H185.5v3.63H140.18Z"/><path class="cls-4" d="M129.3,125.56h7.25v3.63H129.3Z"/><path class="cls-4" d="M149.24,103.8H185.5v3.63H149.24Z"/><path class="cls-4" d="M129.3,103.8h16.31v3.63H129.3Z"/><path class="cls-1" d="M143.8,94.74h25.38v3.63H143.8Z"/><path class="cls-1" d="M116.61,54.86a7.27,7.27,0,0,1,7.25,7.25V74.8h-14.5V62.11A7.27,7.27,0,0,1,116.61,54.86Z"/><path class="cls-5" d="M69.76,76.65H34.69l-6.94-9.71H2.4A2.4,2.4,0,0,0,0,69.34v59.29H.28l13.9-37.9a2.17,2.17,0,0,1,2.1-1.6H72.16V79.06A2.4,2.4,0,0,0,69.76,76.65Z"/><path class="cls-6" d="M64.28,132.16H2.17a2.17,2.17,0,0,1-2.1-2.74L14.18,90.75a2.17,2.17,0,0,1,2.1-1.6H78.39c1.43,0,2.1,1.37,2.1,2.74L66.38,130.56A2.17,2.17,0,0,1,64.28,132.16Z"/><path class="cls-5" d="M85.37,7.72H57.52L52,0H31.87A1.91,1.91,0,0,0,30,1.91V49h.23l11-30.11a1.72,1.72,0,0,1,1.66-1.27H87.28v-8A1.91,1.91,0,0,0,85.37,7.72Z"/><path class="cls-6" d="M81,51.81H31.68A1.72,1.72,0,0,1,30,49.63L41.23,18.91a1.72,1.72,0,0,1,1.66-1.27H92.23c1.14,0,1.66,1.08,1.66,2.17L82.69,50.53A1.72,1.72,0,0,1,81,51.81Z"/><circle class="cls-7" cx="45.45" cy="129.19" r="24.65"/><path class="cls-4" d="M45.45,114.56h0a8.7,8.7,0,0,0-8.71,8.71v9.21a8.7,8.7,0,0,0,8.71,8.71h0a8.7,8.7,0,0,0,8.71-8.71v-9.21A8.75,8.75,0,0,0,45.45,114.56Zm6.09,17.92a6.16,6.16,0,0,1-12.32,0v-9.21a6.16,6.16,0,0,1,12.32,0Z"/><path class="cls-8" d="M52.25,143.81H38.65A3.63,3.63,0,0,1,35,140.2v-11a3.63,3.63,0,0,1,3.61-3.61h13.6a3.63,3.63,0,0,1,3.61,3.61v11A3.63,3.63,0,0,1,52.25,143.81Z"/><path class="cls-7" d="M45.45,130.14a3,3,0,0,0-3,3A3.18,3.18,0,0,0,44.17,136v2.55a1.19,1.19,0,0,0,1.2,1.2,1.24,1.24,0,0,0,1.2-1.2V136a3,3,0,0,0,1.77-2.76A2.91,2.91,0,0,0,45.45,130.14Z"/><circle class="cls-7" cx="64.08" cy="45.95" r="20.16"/><circle class="cls-4" cx="64.08" cy="45.61" r="5.93"/><path class="cls-8" d="M64.08,51.8A12.62,12.62,0,0,0,51.72,61.88a20.14,20.14,0,0,0,24.71,0A12.62,12.62,0,0,0,64.08,51.8Z"/></svg>