<svg xmlns="http://www.w3.org/2000/svg" viewBox="0 0 572.84 537.46"><defs><style>.cls-1{fill:#f8a03c;}.cls-2{fill:#232f3e;}</style></defs><title>amazon-managed-blockchain-logo</title><g id="Layer_2" data-name="Layer 2"><g id="design"><path class="cls-1" d="M317.86,227.17c.44-6.92.88-13.64,1.28-20.36q.46-7.69.81-15.38c.12-2.49,1.41-3.7,3.86-3.7q14.21,0,28.42,0c2.9,0,3.88,1.37,3.82,4.36-.21,10.69-.05,21.38-.21,32.07-.05,3.7,1.52,5.09,5.08,5.08q45.88-.08,91.77-.08c1.87,0,3.74-.32,6.18-.55,0-3.48,0-6.82,0-10.16,0-7.44.2-14.89,0-22.33-.09-3.7.49-4.93,4.88-4.73,12.56.56,25.17.41,37.75.22,14.6-.23,29.19-.79,43.78-1.24a45,45,0,0,0,4.53-.65c-.88-1.66-1.75-2.72-2-3.92-.39-1.78-1.09-4.16-.28-5.34s3.61-2.44,5.06-2a34.81,34.81,0,0,1,9.77,4.61,41.18,41.18,0,0,1,7,6.76c4.75,5.27,4.68,12.57-.49,17.49a124.09,124.09,0,0,1-13,10.71c-3,2.13-5.89,1.22-8-1.85-1.73-2.47-1.81-4.75.58-6.81,1.1-1,2.3-1.8,4.27-3.32-2-1.11-3.4-2.5-5-2.68-7.5-.87-15-1.83-22.57-2-15.81-.37-31.62-.28-47.43-.36-5.35,0-5.49.17-5.5,5.42,0,5,.09,10-.14,15a68.22,68.22,0,0,1-1.33,7.92c-.3,1.78-.55,3.57-.77,5-3.75,1-7.62,2.49-11.6,2.87-7.65.74-15.37,1.11-23.06,1.16-15.95.09-31.9-.06-47.85-.26-11.08-.14-22.16-.51-33.24-.81-5.74-.15-6.08-.37-6.81-6.11-1.09-8.57-1.85-17.19-3.11-25.73-.69-4.66-4.72-7.26-9.21-7.16-3.08.07-4.57,1.73-4.91,4.35-.72,5.48-1.25,11-1.62,16.5-.3,4.43-.24,8.88-.4,13.32-.11,3-1.41,4.87-4.71,4.82-2.71,0-5.41,0-8.12,0l-101.92.09a25.44,25.44,0,0,1-5.26-.2c-2.13-.45-3.34-1.37-3.45-4.3-.37-9.84-1.19-19.69-2.32-29.48-.6-5.19-2-5.7-7.14-4.66a17.64,17.64,0,0,1-3.59-.13c-.44,3.1-1.14,6.26-1.29,9.45-.22,4.86,0,9.74-.09,14.61-.16,8.12-4.09,12.89-12,14.5-2.51.51-5.12.55-7.63,1.05-10.09,2-20.19-.15-30.3.16-15.63.48-31.3.08-46.95-.12-7.16-.09-14.32-.57-21.48-.93-3.74-.19-6.05-1.91-6.27-6-.43-8.07-1.32-16.12-1.39-24.19-.18-18.79-.4-37.59.19-56.36.32-10.36,2.07-20.69,3.61-31,.23-1.54,2.75-3.6,4.47-3.91,24.31-4.31,48.89-4,73.43-3.55,10.76.19,21.51,1.64,32.22,2.86,6.35.72,9.75,4.17,10.65,10.43.77,5.33,1.1,10.73,1.46,16.11.41,6.14.51,12.31,1,18.44.1,1.16,1.65,3.17,2.36,3.1,2-.19,5.17-.92,5.49-2.09A127,127,0,0,0,202,145.64c1.25-8.69,1-17.8,5.9-25.53a9.83,9.83,0,0,1,6.23-3.85c10-1.41,20.06-2.76,30.13-3.25,13.5-.65,27.06-1,40.56-.53,11.71.39,23.37,2,35,3.21,4.49.45,6.51,3.67,7.33,7.6,1.09,5.28,2,10.62,2.67,16,.61,5.05.67,10.17,1.18,15.23.31,3.08,1,6,4.44,7.42,3.85,1.56,7.36.17,8.13-4,.88-4.76,1-9.65,1.63-14.46,1.1-8.13,2.14-16.28,3.65-24.34.69-3.69,4.31-4.17,7.42-4.43,7.41-.61,14.84-1.44,22.26-1.45,23.1,0,46.21.14,69.31.63,4.74.1,9.44,2,14.15,3,6.29,1.42,8.7,6.27,9.22,11.82.76,8.06.92,16.2.91,24.3,0,3.77,1.24,5.05,4.93,4.89,10.92-.49,21.86-.69,32.78-1.23,1.52-.08,3.91-1.2,4.22-2.31s-1.19-3-2.07-4.46c-.69-1.14-2.11-2-2.32-3.21a6.17,6.17,0,0,1,.85-4.43c.59-.77,2.75-1,3.8-.58a24.34,24.34,0,0,1,6.86,4.14c5.06,4.67,9.81,9.68,14.73,14.5,1.48,1.46,2.06,2.87.3,4.45-5.9,5.31-11.8,10.64-17.75,15.89a5.16,5.16,0,0,1-2.88,1.39,38.82,38.82,0,0,1-5.59-.54c.45-2,.51-4.14,1.46-5.82,1.23-2.18,3.18-4,5.55-6.78-2.81-.52-4.79-1.2-6.77-1.21-15.15-.11-30.29-.09-45.44-.11-5.59,0-5.91-.3-5.92-6,0-11.49,0-23,0-34.86a52.28,52.28,0,0,0-5.72-.64q-45.27,0-90.55,0c-6.84,0-6.88,0-6.75,6.66.25,12.84.65,25.68.64,38.52,0,1.22-2.41,3.47-3.75,3.51-9.87.3-19.75.21-29.63.15-2.53,0-3.32-1.49-3.29-4,.15-13.4,0-26.8.21-40.2,0-3.35-1.07-4.65-4.38-4.6-22,.34-44.1.5-66.15.94-10.12.2-20.23.92-30.35,1.42-1.16.06-2.32.2-3.47.31l0,1c-.58.09-1.5,2.51-1.61,6.13-.32,11.22-.76,22.44-1.07,33.66-.13,4.83-.58,5.37-5.37,5.38-7.31,0-14.62,0-21.93,0-3.6,0-5.27-1.16-5.39-5.21-.36-12.55-1.18-25.08-1.84-37.62a7.72,7.72,0,0,0-.48-1.61c-1.35-1.8-3.35-1.47-3.34-1.82-4-.33-8.08-.89-12.12-1-20.69-.36-41.37-.58-62.06-.87-8.1-.11-16.22-1-24.3-.43-1.49.1-1.38-.61-1.87,2.58a9.74,9.74,0,0,1,.34,3.77c-1.49,13.18,0,20.29-.26,31.11-.39,14.45.43,28.94.82,43.4.17,6.29.55,12.58.79,17.86H93q37.76,0,75.53,0c2.25,0,4.5.87,6.74.82,1.19,0,3.35-1.1,3.39-1.8.42-6.91.48-13.84.65-20.77,0-.91,0-1.82.08-2.73.21-2.48.79-5,.61-7.43-.21-2.95,1.14-5.44,4.17-5.5,8.52-.18,17.05-.15,25.58-.1,2.75,0,3.42,1.65,3.44,4.33q.12,12.94.84,25.87a8.59,8.59,0,0,0,7.29,8.36,94.74,94.74,0,0,0,15.59,1.9c14.07.19,28.15,0,42.22-.17,11.78-.11,23.56-.3,35.34-.48C315.5,227.53,316.54,227.32,317.86,227.17Z"/><path class="cls-1" d="M233,170.51c0-8.11,0-16.21,0-24.32,0-3.67,2.43-4.13,5.12-4.06,9.17.22,18.34.45,27.5.87,10.89.5,21.77,1.23,32.65,1.82,2.42.13,3.23,1.52,3.3,3.71.11,3.5.33,7,.42,10.5.35,12.41,1.31,24.84.8,37.21-.46,11.22-6.38,15.75-17.78,16-9.17.17-18.35.86-27.51.65-6.31-.14-12.6-1.34-18.87-2.25-2.9-.42-3.79-2.66-3.94-5.35q-1-17.36-2.07-34.72ZM289.88,153c-1.95,0-3.4,0-4.86,0-12.15.34-24.31.6-36.45,1.17-1.33.06-3.6,1.89-3.68,3-.77,10.77-1.41,21.56-1.58,32.35-.14,8.63,2.32,11.9,12.52,12.73,9.8.8,19.73,0,29.6.15,3.28,0,4.53-1,4.49-4.42-.14-12.18,0-24.35,0-36.53C289.88,158.64,289.88,155.83,289.88,153Z"/><path class="cls-1" d="M407.32,144.78c9.2,0,18.39.09,27.59,0,3.85-.06,5.53,1.14,5.48,5.35-.18,14.33-.08,28.67.06,43,0,4.15.59,8.3.79,12.45.14,3-.71,5.28-4.37,5.39-14.17.41-28.33,1-42.5,1.28a91.35,91.35,0,0,1-13.31-1c-5.43-.7-7.83-3.08-8-9.34-.33-10.4-.11-20.82.12-31.22.16-7.15.89-14.29,1.05-21.45.08-3.44,1.61-4.45,4.73-4.42C388.38,144.83,397.85,144.78,407.32,144.78Zm-22.8,9.13a27.53,27.53,0,0,0-1,4.43c-.5,10.11-1.1,20.23-1.28,30.35-.17,9.8,3.93,13.73,13.84,13.55,4-.07,8-1,12-1.1,6.42-.14,12.84.26,19.25,0,1.11,0,3.06-2,3.07-3.16q.31-20.28,0-40.57c0-1.2-2.16-3.35-3.35-3.37C412.91,153.83,398.86,153.92,384.52,153.92Z"/><path class="cls-1" d="M158.61,206.48c-.08,2.05,0,3.47-1.5,3.85a32.27,32.27,0,0,1-7.59,1c-11.2.42-22.41.81-33.61.9-5.53,0-11.07-.44-16.58-.94s-7.38-2.22-7.72-7.91c-.56-9.44-1.26-18.89-1.14-28.33.12-8.74,1.32-17.45,1.87-26.19.18-2.86,1.29-4.17,4.18-4.17q28.82,0,57.64,0c3.61,0,4.51,1.85,4.49,5.14-.1,17,0,34.1,0,51.15C158.61,202.74,158.61,204.48,158.61,206.48Zm-54-27h-.2c0,6.08.3,12.18-.11,18.23-.28,4.09,1.46,4.76,4.91,4.72,11.21-.13,22.43,0,33.64,0,6.64,0,8-1.35,8.07-8.07q.08-17.83,0-35.67c0-4.33-1.15-5.59-5.52-5.62-11.89-.09-23.78,0-35.67-.11-3.42,0-5.09,1.41-5.12,4.71C104.56,164.88,104.6,172.17,104.6,179.46Z"/><path class="cls-1" d="M268.9,353.32a165.59,165.59,0,0,1-142.76-81.57,6.09,6.09,0,0,1,10.49-6.19,153.53,153.53,0,0,0,264.61-.12,6.09,6.09,0,1,1,10.5,6.18,165.59,165.59,0,0,1-142.84,81.7Z"/><path class="cls-1" d="M405.26,88.83a6.09,6.09,0,0,1-5.21-2.92,153.53,153.53,0,0,0-261.73-1A6.09,6.09,0,0,1,128,78.54a165.68,165.68,0,0,1,282.49,1,6.09,6.09,0,0,1-5.2,9.26Z"/><path class="cls-2" d="M32.83,457.39,29.55,446.8H13.67l-3.15,10.59H0L16.35,411H27.4l16.35,46.43Zm-17-17.82H27.47l-5.9-19.43Z"/><path class="cls-2" d="M91.25,457.39V434.2q0-4.56-4.09-4.56a17,17,0,0,0-7.3,1.74v26H70.08V434.2q0-4.56-4.09-4.56a16.31,16.31,0,0,0-7.37,1.81v25.93H48.84V423.15h8l.87,3.28a29,29,0,0,1,6.4-3.32,18.07,18.07,0,0,1,5.86-1q6,0,8.51,4.29A27.47,27.47,0,0,1,85,423.15a19.58,19.58,0,0,1,6.23-1q4.69,0,7.27,2.61a10,10,0,0,1,2.58,7.3v25.33Z"/><path class="cls-2" d="M129.91,457.39l-.8-3a16.2,16.2,0,0,1-4.79,3,13.91,13.91,0,0,1-5.26,1.11,11.09,11.09,0,0,1-7.94-2.81,9.83,9.83,0,0,1-3-7.5,10.07,10.07,0,0,1,1.61-5.66,10.85,10.85,0,0,1,4.62-3.85,16.64,16.64,0,0,1,7.1-1.41,32.74,32.74,0,0,1,7.1.87v-3.35q0-3.08-1.27-4.22t-4.69-1.14a40.93,40.93,0,0,0-12.13,2.08V425a24.58,24.58,0,0,1,6.23-2,37.93,37.93,0,0,1,7.64-.77q6.9,0,10.08,2.78t3.18,8.74v23.72Zm-8.11-5.49a9,9,0,0,0,3.45-.74,13,13,0,0,0,3.32-2v-5.83a34.19,34.19,0,0,0-5.29-.47q-5.83,0-5.83,4.69a4,4,0,0,0,4.35,4.35Z"/><path class="cls-2" d="M144.32,457.39v-7l17.62-20H145v-7.24h27.74v7l-17.82,20h18.16v7.24Z"/><path class="cls-2" d="M194.43,458.39q-8,0-12.46-4.79t-4.49-13.37q0-8.51,4.49-13.3t12.46-4.79q8,0,12.46,4.79t4.49,13.3q0,8.58-4.49,13.37T194.43,458.39Zm0-7.5q7,0,7-10.65t-7-10.59q-7,0-7,10.59T194.43,450.89Z"/><path class="cls-2" d="M241,457.39V434.94a5.69,5.69,0,0,0-1.21-4,4.86,4.86,0,0,0-3.68-1.27,13.6,13.6,0,0,0-7.3,2.28v25.46H219V423.15h8l.94,3.69a20.59,20.59,0,0,1,12.86-4.69q4.76,0,7.34,2.58t2.58,7.34v25.33Z"/><path class="cls-2" d="M316.57,457.39V425.23l-10.25,20.84h-9l-10.25-20.84v32.16h-8.84V411h11l12.66,26.4L314.63,411h10.79v46.43Z"/><path class="cls-2" d="M355.1,457.39l-.8-3a16.2,16.2,0,0,1-4.79,3,13.91,13.91,0,0,1-5.26,1.11,11.09,11.09,0,0,1-7.94-2.81,9.83,9.83,0,0,1-3-7.5,10.07,10.07,0,0,1,1.61-5.66,10.85,10.85,0,0,1,4.62-3.85,16.64,16.64,0,0,1,7.1-1.41,32.74,32.74,0,0,1,7.1.87v-3.35q0-3.08-1.27-4.22t-4.69-1.14a40.93,40.93,0,0,0-12.13,2.08V425a24.58,24.58,0,0,1,6.23-2,37.93,37.93,0,0,1,7.64-.77q6.9,0,10.08,2.78t3.18,8.74v23.72ZM347,451.89a9,9,0,0,0,3.45-.74,13,13,0,0,0,3.32-2v-5.83a34.19,34.19,0,0,0-5.29-.47q-5.83,0-5.83,4.69a4,4,0,0,0,4.35,4.35Z"/><path class="cls-2" d="M394,457.39V434.94a5.69,5.69,0,0,0-1.21-4,4.86,4.86,0,0,0-3.68-1.27,13.6,13.6,0,0,0-7.3,2.28v25.46H372V423.15h8l.94,3.69a20.59,20.59,0,0,1,12.86-4.69q4.76,0,7.34,2.58t2.58,7.34v25.33Z"/><path class="cls-2" d="M432.68,457.39l-.8-3a16.2,16.2,0,0,1-4.79,3,13.91,13.91,0,0,1-5.26,1.11,11.09,11.09,0,0,1-7.94-2.81,9.83,9.83,0,0,1-3-7.5,10.07,10.07,0,0,1,1.61-5.66,10.85,10.85,0,0,1,4.62-3.85,16.64,16.64,0,0,1,7.1-1.41,32.74,32.74,0,0,1,7.1.87v-3.35q0-3.08-1.27-4.22t-4.69-1.14a40.93,40.93,0,0,0-12.13,2.08V425a24.58,24.58,0,0,1,6.23-2,37.93,37.93,0,0,1,7.64-.77q6.9,0,10.08,2.78t3.18,8.74v23.72Zm-8.11-5.49a9,9,0,0,0,3.45-.74,13,13,0,0,0,3.32-2v-5.83a34.19,34.19,0,0,0-5.29-.47q-5.83,0-5.83,4.69a4,4,0,0,0,4.35,4.35Z"/><path class="cls-2" d="M470.54,453.23a13,13,0,0,1-9,3.42,12.08,12.08,0,0,1-10-4.66q-3.72-4.66-3.72-12.43t3.75-12.66a12.14,12.14,0,0,1,10-4.76,14,14,0,0,1,5.29,1,13.25,13.25,0,0,1,4.42,2.95l.74-2.95h8v31.56q0,8.17-4.56,12.73T463,472a27.48,27.48,0,0,1-12.33-2.88v-6.57a39.3,39.3,0,0,0,11.46,2.08q4.42,0,6.4-2t2-6.67Zm-6-3.82a10.21,10.21,0,0,0,3.12-.5,10.83,10.83,0,0,0,2.85-1.37V431.06a12.12,12.12,0,0,0-6.43-1.67q-6.43,0-6.43,9.92,0,5.16,1.67,7.64A5.86,5.86,0,0,0,464.57,449.41Z"/><path class="cls-2" d="M496.87,442.65q.27,4.42,2.68,6.4t7.57,2a39.34,39.34,0,0,0,10.45-1.67v6.5a21.92,21.92,0,0,1-5.59,1.88,33.3,33.3,0,0,1-6.73.67q-8.51,0-13-4.62t-4.46-13.53q0-8.58,4.42-13.33t12.26-4.76q6.63,0,10.22,3.65t3.58,10.42a31.82,31.82,0,0,1-.2,3.35,28.93,28.93,0,0,1-.47,3.08Zm7.3-13.73a6.88,6.88,0,0,0-5.19,2,8.87,8.87,0,0,0-2.18,5.73h13.13v-1.14Q509.93,428.91,504.17,428.91Z"/><path class="cls-2" d="M548.92,457.39l-.8-3a14.2,14.2,0,0,1-9.85,3.75,13.25,13.25,0,0,1-7.44-2.11,13.73,13.73,0,0,1-5-6.13,23.21,23.21,0,0,1-1.78-9.45q0-8.31,4-13.3a12.68,12.68,0,0,1,10.45-5,14.53,14.53,0,0,1,9.18,3V407.81h9.78v49.58Zm-7.44-6.63a11.31,11.31,0,0,0,6.16-1.88V431.19a13,13,0,0,0-6.63-1.67,5.9,5.9,0,0,0-5.29,2.65q-1.74,2.65-1.74,8t1.84,8A6.46,6.46,0,0,0,541.49,450.75Z"/><path class="cls-2" d="M115.44,536.39V490h16.68q6.7,0,10.82,3.42a11,11,0,0,1,4.12,8.91,10.6,10.6,0,0,1-1.58,5.86,10.16,10.16,0,0,1-4.66,3.79,12.39,12.39,0,0,1,6.53,4.19,11.35,11.35,0,0,1,2.25,7.14,11.58,11.58,0,0,1-4.49,9.58q-4.49,3.55-12.06,3.55ZM125,497.12v12.19h5.83q6.5,0,6.5-6t-6-6.16Zm0,19v13.07h7.91q6.83,0,6.83-6.43,0-6.63-7.3-6.63Z"/><path class="cls-2" d="M172.19,535.72a15.93,15.93,0,0,1-6,1.14q-9,0-9-10.12V486.81h9.78v39.13a4.21,4.21,0,0,0,.64,2.65,2.59,2.59,0,0,0,2.11.77,21.54,21.54,0,0,0,2.55-.2Z"/><path class="cls-2" d="M193.43,537.39q-8,0-12.46-4.79t-4.49-13.37q0-8.51,4.49-13.3t12.46-4.79q8,0,12.46,4.79t4.49,13.3q0,8.58-4.49,13.37T193.43,537.39Zm0-7.5q7,0,7-10.65t-7-10.59q-7,0-7,10.59T193.43,529.89Z"/><path class="cls-2" d="M242.74,534.91a14.89,14.89,0,0,1-4.36,1.64,24.23,24.23,0,0,1-5.29.57q-8.17,0-12.5-4.56t-4.32-13.13q0-8.51,4.56-13.27t12.66-4.76a19.44,19.44,0,0,1,9,2.14v6.5a26.34,26.34,0,0,0-7.24-1.14q-4.69,0-6.9,2.38t-2.21,7.54v.94q0,5.09,2.18,7.47t6.73,2.38a29.16,29.16,0,0,0,7.64-1.21Z"/><path class="cls-2" d="M249.71,536.39V486.81h9.71v29.95l11.86-14.61h11.66L268.8,518.5,284,536.39H272.08l-12.66-15.61v15.61Z"/><path class="cls-2" d="M311.08,534.91a14.89,14.89,0,0,1-4.36,1.64,24.23,24.23,0,0,1-5.29.57q-8.17,0-12.5-4.56t-4.32-13.13q0-8.51,4.56-13.27t12.66-4.76a19.44,19.44,0,0,1,9,2.14v6.5a26.34,26.34,0,0,0-7.24-1.14q-4.69,0-6.9,2.38t-2.21,7.54v.94q0,5.09,2.18,7.47t6.73,2.38a29.16,29.16,0,0,0,7.64-1.21Z"/><path class="cls-2" d="M340,536.39V513.94a5.69,5.69,0,0,0-1.21-4,4.86,4.86,0,0,0-3.68-1.27,13.6,13.6,0,0,0-7.3,2.28v25.46H318V486.81h9.78v18.42a20.55,20.55,0,0,1,12.06-4.09q4.76,0,7.34,2.58t2.58,7.34v25.33Z"/><path class="cls-2" d="M378.68,536.39l-.8-3a16.2,16.2,0,0,1-4.79,3,13.91,13.91,0,0,1-5.26,1.11,11.09,11.09,0,0,1-7.94-2.81,9.83,9.83,0,0,1-3-7.5,10.07,10.07,0,0,1,1.61-5.66,10.85,10.85,0,0,1,4.62-3.85,16.64,16.64,0,0,1,7.1-1.41,32.74,32.74,0,0,1,7.1.87v-3.35q0-3.08-1.27-4.22t-4.69-1.14a40.93,40.93,0,0,0-12.13,2.08V504a24.58,24.58,0,0,1,6.23-2,37.93,37.93,0,0,1,7.64-.77q6.9,0,10.08,2.78t3.18,8.74v23.72Zm-8.11-5.49a9,9,0,0,0,3.45-.74,13,13,0,0,0,3.32-2v-5.83a34.19,34.19,0,0,0-5.29-.47q-5.83,0-5.83,4.69a4,4,0,0,0,4.35,4.35Z"/><path class="cls-2" d="M400.79,496.86a5.83,5.83,0,0,1-4.09-1.41,5.5,5.5,0,0,1,0-7.64,6.64,6.64,0,0,1,8.17,0,5.5,5.5,0,0,1,0,7.64A5.83,5.83,0,0,1,400.79,496.86Zm-4.89,39.53V502.15h9.78v34.24Z"/><path class="cls-2" d="M437.3,536.39V513.94a5.69,5.69,0,0,0-1.21-4,4.86,4.86,0,0,0-3.68-1.27,13.6,13.6,0,0,0-7.3,2.28v25.46h-9.78V502.15h8l.94,3.69a20.59,20.59,0,0,1,12.86-4.69q4.76,0,7.34,2.58t2.58,7.34v25.33Z"/></g></g></svg>