<?xml version="1.0" encoding="utf-8"?>
<!-- Generator: Adobe Illustrator 21.1.0, SVG Export Plug-In . SVG Version: 6.00 Build 0)  -->
<svg version="1.1" id="Layer_1" xmlns="http://www.w3.org/2000/svg" xmlns:xlink="http://www.w3.org/1999/xlink" x="0px" y="0px"
	 viewBox="0 0 300 100" style="enable-background:new 0 0 300 100;" xml:space="preserve">
<style type="text/css">
	.st0{fill:#8D95B4;}
	.st1{fill:#63688E;}
	.st2{fill:#464A75;}
</style>
<g>
	<path class="st0" d="M22.5,87.5c0.1-0.6-0.4-1-0.7-1.4C14.8,76.1,7.7,66.2,0.7,56.2c-0.1-0.1-0.1-0.3-0.2-0.4
		c0.7-0.4,1.2,0.1,1.7,0.4c6.7,3.9,13.3,7.9,20,11.8c0.2,0.1,0.5,0.2,0.7,0.3c0,5.8,0,11.7,0,17.5c0,0.3,0,0.7,0.3,1
		c0,0.2,0,0.4,0,0.6C22.9,87.5,22.7,87.5,22.5,87.5z"/>
	<path class="st0" d="M300,66.2c-1.4,0.7-1.8,0.5-1.8-1c0-3.6,0-7.2,0-10.8c0-1.6-0.2-3.1-0.9-4.5c-1.2-2.6-3.3-4-6.2-3.8
		c-3.2,0.2-5,2.1-6.1,4.8c-0.8,1.8-1.1,3.7-1.1,5.7c0,2.8,0,5.5,0,8.3c0,0.8,0.2,1.9-1,1.9c-1.2,0-1.1-1.1-1.1-1.9
		c0-3.8,0-7.6,0-11.4c0-3.5-1.8-6.1-4.7-7c-3.6-1.1-7.4,0.7-8.7,4.2c-0.6,1.6-0.9,3.2-0.9,4.8c0,3.2,0,6.4,0,9.6c0,0.8,0,1.7-1,1.7
		c-0.9,0-1-0.9-1-1.7c0-6.3,0-12.5,0-18.8c0-0.8,0-1.6,1.1-1.6c1,0,0.9,0.9,0.9,1.6c0,0.7,0,1.4,0,2.2c4.8-6.2,12.4-5.5,15.6,1
		c0.4,0,0.5-0.3,0.6-0.6c1.9-3.2,4.7-5,8.4-4.7c4.1,0.3,6.5,3,7.5,6.9c0,0.2,0.2,0.3,0.3,0.5C300,56.4,300,61.3,300,66.2z"/>
	<path class="st0" d="M0,50.3c1.9-3.7,4.2-7.2,6.3-10.8c5.2-8.7,10.4-17.3,15.7-26c0.2-0.4,0.3-0.9,0.8-1c0,9.2,0,18.4,0,27.6
		c0,0.1,0,0.2-0.1,0.2c-0.4,0.1-0.9,0.1-1.3,0.3c-3.8,1.7-7.5,3.5-11.3,5.1C6.8,47.3,3.4,48.8,0,50.3z"/>
	<path class="st1" d="M22.8,40c0-9.2,0-18.4,0-27.6c2.3,3.2,4.2,6.7,6.3,10.1c5.5,9,10.9,18.1,16.4,27.1c0.1,0.2,0.1,0.4,0.2,0.6
		c-4.1-1.9-8.2-3.7-12.4-5.6C29.8,43.1,26.3,41.6,22.8,40z"/>
	<path class="st2" d="M22.8,40c3.5,1.6,7,3.1,10.5,4.7c4.1,1.8,8.2,3.7,12.4,5.6c0,0.8-0.8,0.8-1.2,1.1c-7.2,4.3-14.4,8.5-21.6,12.7
		c0-1.8,0-3.7,0-5.5c0-6.1-0.1-12.1-0.1-18.2C22.8,40.2,22.8,40.1,22.8,40z"/>
	<path class="st1" d="M22.8,40.3c0,6.1,0.1,12.1,0.1,18.2c0,1.8,0,3.7,0,5.5c-5.2-3.1-10.5-6.1-15.7-9.2c-2.1-1.2-4.2-2.5-6.3-3.7
		c-0.3-0.2-0.9-0.2-0.9-0.9c3.4-1.5,6.8-3,10.2-4.5c3.8-1.7,7.5-3.4,11.3-5.1C21.9,40.4,22.3,40.4,22.8,40.3z"/>
	<path class="st1" d="M23.1,86.9c-0.3-0.2-0.3-0.6-0.3-1c0-5.8,0-11.7,0-17.5c5.5-3.2,11-6.5,16.5-9.7c1.9-1.1,3.8-2.3,5.8-3.4
		c0.1,0.1,0.2,0.2,0.3,0.3c-1,1.4-2,2.8-3,4.1C36.2,68.5,30,77.3,23.8,86.1C23.6,86.4,23.4,86.6,23.1,86.9z"/>
	<path class="st0" d="M151.1,56.6c-0.1,3.2,2.4,6.7,5.5,8.1c3.1,1.3,7.2,0.5,9.5-2.1c0.4-0.4,0.7-0.9,1-1.3c0.3-0.4,0.7-0.7,1.3-0.3
		c0.6,0.4,0.6,0.9,0.2,1.4c-1.1,1.7-2.5,3-4.4,3.7c-4.8,1.9-9.1,1-12.4-2.6c-3.2-3.5-3.9-9-1.7-13.4c2.4-4.7,6.9-6.9,11.8-5.8
		c4.5,1,8.2,5.8,8.3,10.6c0,1.3-0.4,1.8-1.7,1.7c-5.2-0.1-10.5,0-15.7,0C152.3,56.6,151.8,56.6,151.1,56.6z M168.2,54.7
		c-0.3-3.3-1.7-5.8-4.5-7.4c-2.9-1.7-5.8-1.6-8.6,0.2c-2.6,1.7-3.8,4.1-4.2,7.3C156.8,54.7,162.5,54.7,168.2,54.7z"/>
	<path class="st0" d="M65.3,56.8c-0.2,6,6.7,10.3,12.5,7.7c1.4-0.6,2.4-1.5,3.3-2.7c0.4-0.6,0.9-1.3,1.7-0.6
		c0.8,0.6,0.2,1.3-0.2,1.8c-3.2,4.5-10.2,5.5-14.9,2.1c-5.7-4.2-6.2-13.3-1.1-18.1c5.7-5.3,14.6-3,17.2,4.6c0.3,0.9,0.5,1.8,0.6,2.8
		c0.2,2.1,0.1,2.3-2.1,2.3c-5.1,0-10.3,0-15.4,0C66.4,56.6,65.8,56.5,65.3,56.8z M65.3,54.7c5.7,0,11.4,0,17,0
		c0.3-4.1-3.7-8.4-8-8.6C69.5,45.9,65.3,49.8,65.3,54.7z"/>
	<path class="st0" d="M204.3,56.6c-0.4,3.3,2.8,7.5,6.2,8.3c3.7,0.9,6.8,0,9.3-3c0.1-0.2,0.3-0.3,0.4-0.5c0.4-0.4,0.8-0.9,1.4-0.5
		c0.6,0.4,0.4,1,0.1,1.6c-0.5,0.9-1.2,1.6-2,2.2c-3.5,2.5-7.4,3.2-11.3,1.3c-4-1.9-6-5.3-6.3-9.7c-0.3-4.2,1.2-7.7,4.5-10.3
		c5.8-4.4,13.8-1.6,16.2,5.5c1.5,4.3,1,4.9-3.4,4.9c-4.5,0-9,0-13.5,0C205.4,56.6,204.8,56.6,204.3,56.6z M221.3,54.7
		c0-4.9-4.4-8.9-9.2-8.6c-4.2,0.2-8.2,4.6-7.8,8.6C209.9,54.7,215.5,54.7,221.3,54.7z"/>
	<path class="st0" d="M120.8,48.6c0.8-0.9,1.3-1.5,1.9-2.1c2.5-2.2,5.3-3.1,8.6-2c3.4,1.2,5.1,3.9,5.6,7.2c0.7,4.5,0.2,9.1,0.3,13.6
		c0,0.6-0.2,1.3-1,1.2c-0.7-0.1-0.7-0.7-0.7-1.3c0-3.9,0-7.8,0-11.7c-0.1-5-3.5-8.2-8-7.5c-3.4,0.5-5.9,3.2-6.4,7
		c-0.5,3.8-0.1,7.7-0.3,11.5c0,0.7,0.5,1.9-0.6,2c-1.3,0.1-0.9-1.2-0.9-2c0-12.2,0-24.3,0-36.5c0-0.1,0-0.2,0-0.3
		c0.1-0.7-0.3-1.8,0.8-1.8c1,0,0.7,1,0.7,1.7c0,6.2,0,12.5,0,18.7C120.8,47.1,120.8,47.7,120.8,48.6z"/>
	<path class="st0" d="M251.4,62.4c-1.1,1.5-2,2.7-3.3,3.5c-5.2,3.2-11.7,0.2-12.7-6.2c-0.7-4.6-0.2-9.3-0.3-13.9
		c0-0.7,0.3-1.3,1-1.2c0.8,0.1,1,0.7,1,1.4c0,3.9,0,7.8,0,11.7c0,3.3,1.8,6.2,4.4,7.1c4,1.5,7.9-0.7,9.2-5.2
		c0.5-1.9,0.7-3.9,0.7-5.9c0-2.5,0-4.9,0-7.4c0-0.8,0-1.7,1-1.7c1,0,1,0.9,1,1.7c0,6.3,0,12.5,0,18.8c0,0.8,0.1,1.7-1,1.6
		c-1-0.1-1-0.9-1-1.7C251.4,64.3,251.4,63.6,251.4,62.4z"/>
	<path class="st0" d="M100.1,46.3c-1.6,0-2.9,0-4.3,0c-0.8,0-1.4-0.2-1.3-1c0-0.7,0.6-1,1.3-1c1.3,0,2.7,0,4.3,0c0-1.8,0-3.5,0-5.3
		c0-0.5,0-1,0-1.5c0-0.6,0.2-1.1,0.9-1.1c0.8,0,1.1,0.5,1.1,1.2c0,1.8,0,3.5,0,5.3c0,0.4-0.1,0.9,0.3,1.5c1.1,0,2.3,0,3.6,0
		c0.8,0,1.8-0.2,1.9,1c0,1.2-1,1-1.8,1c-1.2,0-2.5,0-3.7,0c-0.5,0.6-0.3,1.2-0.3,1.7c0,5.6,0,11.1,0,16.7c0,0.4,0,0.9-0.1,1.3
		c-0.1,0.4-0.4,0.7-0.8,0.7c-0.5,0-0.9-0.3-1-0.7c-0.1-0.4-0.1-0.9-0.1-1.3c0-5.5,0-11,0-16.5C100.1,47.6,100.1,47.1,100.1,46.3z"/>
	<path class="st0" d="M184.3,49.2c1.6-1.9,3-3.4,5-4.2c0.9-0.3,1.7-0.5,2.6-0.5c0.6,0,1,0.2,1,0.8c0,0.5-0.2,0.9-0.7,1
		c-0.1,0-0.3,0.1-0.4,0.1c-5.2,1-7.4,5.2-7.5,9.8c-0.1,2.9,0,5.8,0,8.7c0,0.7,0.1,1.5-0.9,1.6c-1.1,0-1.1-0.8-1.1-1.6
		c0-6.2,0-12.5,0-18.7c0-0.8,0-1.6,1-1.6c1.1,0,1,0.9,1,1.7C184.3,47.1,184.3,48,184.3,49.2z"/>
</g>
</svg>
