<svg xmlns="http://www.w3.org/2000/svg" viewBox="0 0 371.06 354.44"><defs><style>.cls-1{fill:#01577e;}.cls-2{fill:#02b2d1;}.cls-3{fill:#6cc3d7;}.cls-4{fill:#46bdd5;}.cls-5{fill:#02b6d3;}.cls-6{fill:#a6d1db;}.cls-7{fill:#8bcad8;}</style></defs><title>graphene-logo</title><g id="Layer_2" data-name="Layer 2"><g id="Layer_1-2" data-name="Layer 1"><path class="cls-1" d="M255,108.47c20.83,0,41.65,0,62.48,0,2.62,0,6-1.3,6,3.8.08,25.22,1,50.48-8.84,74.56a153,153,0,0,1-24.4,40.75c-2.78,3.31-4.47,4-7.89.46-10.84-11.33-22-22.33-33.24-33.29-2.61-2.55-3-4.25-.5-7.22,5.6-6.55,9.42-14.19,12.72-22.17,2.06-5,1.6-6.59-4.34-6.5-21.31.32-42.63-.05-63.95.25-5.32.08-7.21-1-7-6.76.48-12.48.39-25,0-37.48-.15-5.11,1.24-6.63,6.46-6.56C213.31,108.65,234.13,108.47,255,108.47Z"/><path class="cls-2" d="M189.24,245.82c0-7.84.12-15.68-.05-23.52-.07-3.32.88-4.63,4.44-4.95a77,77,0,0,0,43.93-18.46c2.89-2.45,4.62-2.33,7.24.36q16.4,16.85,33.24,33.27c3,2.89,3.26,4.59,0,7.46-20.19,17.73-43.35,29.24-69.93,33.31-18.81,2.88-18.86,2.55-18.86-16.47Q189.24,251.33,189.24,245.82Z"/><path class="cls-3" d="M77.42,133.48c-7.85,0-15.69-.11-23.54,0-4.1.08-5.78-1.44-5.35-5.67,3.1-30.32,13.7-57.41,33.86-80.58,3.54-4.06,5.82-5.3,10.18-.61,10,10.75,20.49,21.07,31.13,31.2,3.73,3.55,3.46,5.57.27,9.39-9.61,11.51-15.78,24.75-17,39.9-.39,5.06-2.63,6.65-7.53,6.42C92.14,133.23,84.77,133.49,77.42,133.48Z"/><path class="cls-4" d="M77.58,139.54c7.6,0,15.2.09,22.8,0,3.3-.06,5.44.28,5.81,4.46,1.46,16.77,7.3,31.88,18.26,44.81,1.64,1.93,1.5,3.19-.24,4.92-11.84,11.73-23.67,23.47-35.35,35.37-2.94,3-4.38,1.3-6.35-.95C64.65,207.61,53.54,183.95,50,157c-2.3-17.43-1.87-17.49,15.82-17.49Z"/><path class="cls-5" d="M182.68,246.64c0,7.59-.25,15.18.1,22.75.22,4.72-1.62,5.9-6,5.55-31.8-2.54-59.59-14.31-83.41-35.58-2.93-2.61-2.11-4,.23-6.32q17-16.72,33.72-33.74c2.56-2.63,4.2-3,7.17-.44a76.83,76.83,0,0,0,43.86,18.5c3.64.33,4.42,1.85,4.36,5.07C182.58,230.49,182.68,238.57,182.68,246.64Z"/><path class="cls-6" d="M189.42,28.8c0-7.83.1-15.65,0-23.47-.06-3.54.79-5.67,4.88-5.28,30.42,2.93,57.85,13,81.17,33.31,3.88,3.37,3.95,5.62.17,9.24C264.66,53.08,254.08,64,243.37,74.68c-1.91,1.91-3.39,4-6.57,1.21-11.9-10.51-26.22-16-41.7-18.08-5-.69-5.88-2.71-5.74-7C189.6,43.47,189.42,36.13,189.42,28.8Z"/><path class="cls-7" d="M182.4,28.85c0,7.58-.14,15.16.06,22.74.1,3.73-.73,5.65-5,6.25C162.24,60,148.14,65.19,136,75c-2.7,2.18-4.65,1.78-6.93-.51C117.74,63,106.39,51.55,94.83,40.3c-3.69-3.59-.44-5,1.56-6.78A135.4,135.4,0,0,1,158.08,3c6.18-1.32,12.52-1.86,18.78-2.86,4.17-.66,5.72,1,5.6,5.18C182.24,13.19,182.4,21,182.4,28.85Z"/><path d="M42.88,350.9a61.44,61.44,0,0,1-8.09,2.37,44.09,44.09,0,0,1-10,1.18q-11.61,0-18.17-6.31T0,330.71q0-10.6,6.63-17.09t18.48-6.49a43.72,43.72,0,0,1,8.55.81,38.27,38.27,0,0,1,9,3.22v10.66H41.38q-.85-.64-2.5-1.82a30.44,30.44,0,0,0-3.18-2,20.89,20.89,0,0,0-4.14-1.68,17.59,17.59,0,0,0-5-.7,16.52,16.52,0,0,0-5.65.92,13.08,13.08,0,0,0-4.55,2.81,12.8,12.8,0,0,0-3,4.66,17.67,17.67,0,0,0-1.11,6.52q0,7.54,4,11.54t11.82,4l1.48,0q.81,0,1.48-.09V337H21.9v-8.58h21Z"/><path d="M96.06,353.49H81.74L69.37,336.82H63.93v16.67H52.27V308H71.93a45.16,45.16,0,0,1,6.93.46,15,15,0,0,1,5.44,2,11.87,11.87,0,0,1,4.08,4,11.34,11.34,0,0,1,1.51,6.09,13.52,13.52,0,0,1-2.34,8.21A17.62,17.62,0,0,1,80.88,334ZM77.77,321.95a5.79,5.79,0,0,0-.7-2.93,4.71,4.71,0,0,0-2.41-1.92,8.89,8.89,0,0,0-2.78-.6q-1.59-.11-3.7-.11H63.93v12.25h3.6a33.61,33.61,0,0,0,4.7-.27,6.74,6.74,0,0,0,3.18-1.25A6.09,6.09,0,0,0,77.2,325,7,7,0,0,0,77.77,321.95Z"/><path d="M145.51,353.49H133.4l-3.17-9.19H113.41l-3.17,9.19H98.42L115.22,308h13.5ZM127.41,336l-5.59-16.29L116.23,336Z"/><path d="M188.38,322.38a17.22,17.22,0,0,1-1.07,6,13.28,13.28,0,0,1-3.05,4.9,18.68,18.68,0,0,1-6.06,4.06,22,22,0,0,1-8.32,1.37h-7.3v14.81H150.85V308h19.3a30.51,30.51,0,0,1,7.31.75,17.24,17.24,0,0,1,5.27,2.24,12.08,12.08,0,0,1,4.2,4.61A14.55,14.55,0,0,1,188.38,322.38Zm-12.12.26a5.36,5.36,0,0,0-1-3.31,5.63,5.63,0,0,0-2.41-1.94,10.89,10.89,0,0,0-3.57-.81q-1.74-.08-4.64-.08h-2V330.1h3.36a27.37,27.37,0,0,0,4.93-.37,7,7,0,0,0,3.25-1.46,5.63,5.63,0,0,0,1.63-2.33A9.53,9.53,0,0,0,176.26,322.64Z"/><path d="M235.29,353.49H223.57v-20H206.25v20H194.53V308h11.73v16.64h17.31V308h11.73Z"/><path d="M278.14,353.49H245.25V308h32.89v8.79H256.91v7.85h19.7v8.79h-19.7V344.7h21.22Z"/><path d="M328.22,353.49h-11.3l-19.3-31.21v31.21H286.87V308h14l16.58,26V308h10.75Z"/><path d="M371.06,353.49H338.17V308h32.89v8.79H349.83v7.85h19.7v8.79h-19.7V344.7h21.22Z"/></g></g></svg>