<?xml version="1.0" encoding="utf-8"?>
<!-- Generator: Adobe Illustrator 21.1.0, SVG Export Plug-In . SVG Version: 6.00 Build 0)  -->
<svg version="1.1"
	 id="svg2" xmlns:cc="http://creativecommons.org/ns#" xmlns:dc="http://purl.org/dc/elements/1.1/" xmlns:rdf="http://www.w3.org/1999/02/22-rdf-syntax-ns#" xmlns:svg="http://www.w3.org/2000/svg"
	 xmlns="http://www.w3.org/2000/svg" xmlns:xlink="http://www.w3.org/1999/xlink" x="0px" y="0px" viewBox="0 0 433.5 121.3"
	 style="enable-background:new 0 0 433.5 121.3;" xml:space="preserve">
<style type="text/css">
	.st0{fill:#232325;}
	.st1{fill:#F03D41;}
	.st2{fill:#9BDDD4;}
</style>
<g id="g10" transform="matrix(1.3333333,0,0,-1.3333333,0,121.30667)">
	<g id="g12" transform="scale(0.1)">
		<path id="path14" class="st0" d="M1185.2,712.1l87,0.5l0.5-87.8l44.8,0.2l-1.1,203.2l-44.8-0.2l0.4-75.8l-87-0.4l-0.4,75.7
			l-44.8-0.2l1.1-203.1l44.8,0.2L1185.2,712.1"/>
		<path id="path16" class="st0" d="M1426,624.2l44.8,0.2l-0.4,86.6l75.8,116.9l-53.1-0.3l-45.3-76.3l-43.5,75.8l-55.7-0.3l77-116.1
			L1426,624.2"/>
		<path id="path18" class="st0" d="M1645.4,790c4.2,0,8.6-0.2,13.2-0.6c4.6-0.5,8.8-1.6,12.5-3.2c3.8-1.7,6.8-4.1,9.2-7.3
			c2.4-3.1,3.6-7.3,3.6-12.5c0-4.8-0.8-8.8-2.7-11.9c-1.8-3.2-4.2-5.7-7.1-7.5c-3-1.8-6.3-3.2-10-3.9c-3.8-0.8-7.6-1.2-11.6-1.2
			l-29.8-0.2l-0.3,48.2L1645.4,790z M1623.3,624.6l-0.4,79.2l32.7,0.2c10.7,0.1,20.7,1.1,29.8,3.2c9.2,2,17.1,5.5,23.8,10.3
			c6.7,4.8,11.9,11.3,15.7,19.3c3.8,8.1,5.6,18,5.6,29.9c-0.1,12-2.2,22-6.4,30c-4.2,7.9-9.7,14.2-16.7,18.9
			c-7,4.6-15.3,7.9-24.6,9.8c-9.4,1.9-19.4,2.8-29.9,2.7l-75.5-0.4l1.1-203.1L1623.3,624.6"/>
		<path id="path20" class="st0" d="M1906,624.9l-0.2,41.3l-98.5-0.5L1807,707l88.2,0.5l-0.2,41.3l-88.2-0.5l-0.2,37.9l93.3,0.5
			l-0.2,41.3l-138.1-0.7l1.1-203.1L1906,624.9"/>
		<path id="path22" class="st0" d="M1982.2,743.7l-0.2,46.2l29.3,0.1c4,0,8.1-0.2,12.3-0.8c4.2-0.6,8-1.6,11.2-3.2
			c3.3-1.6,6-3.9,8.1-7c2.1-3,3.2-7.2,3.2-12.3c0-5.5-1.2-9.8-3.5-12.9c-2.4-3.1-5.4-5.3-9-6.8c-3.6-1.5-7.7-2.3-12.2-2.6
			c-4.5-0.3-8.8-0.5-12.8-0.5L1982.2,743.7z M2047.5,624.9l53.7,0.3l-52.1,85.5c14.4,2.8,25.3,9.2,32.6,19.2
			c7.4,10.1,11.1,22.3,11,36.7c-0.1,11.8-2.2,21.7-6.4,29.7c-4.1,7.9-9.7,14.2-16.7,18.9c-7.1,4.6-15.2,8-24.5,9.9
			c-9.3,2-19.1,2.9-29.4,2.9l-78.7-0.4l1-203.1l44.8,0.2l-0.4,81.2l22.1,0.1L2047.5,624.9"/>
		<path id="path24" class="st0" d="M2260,625.2l-0.2,41.3l-83-0.4l-0.9,161.8l-44.8-0.2l1.1-203.1L2260,625.2"/>
		<path id="path26" class="st0" d="M2435.4,625.1l-0.2,41.3l-98.5-0.5l-0.2,41.3l88.2,0.5l-0.2,41.3l-88.1-0.4l-0.2,37.9l93.3,0.5
			l-0.2,41.3l-138.1-0.7l1.1-203.2L2435.4,625.1"/>
		<path id="path28" class="st0" d="M2535.4,666l-23.3-0.1l-0.6,120.5l26.4,0.1c9.4,0,18.4-1.1,26.9-3.5c8.5-2.3,16-5.9,22.3-10.6
			c6.3-4.8,11.4-10.8,15.2-18.1c3.8-7.4,5.7-16,5.8-26c0.1-11.5-1.8-21.2-5.4-29.1c-3.7-8-8.8-14.4-15.3-19.3
			c-6.5-4.9-14.2-8.4-23.1-10.6C2555.3,667.2,2545.7,666.1,2535.4,666L2535.4,666z M2620.5,651.2c10.5,8.5,18.8,19.1,24.9,31.7
			c6.2,12.5,9.2,27.1,9.1,43.5c-0.1,18.6-3.4,34.3-9.9,47.3c-6.5,13-15.2,23.5-26.2,31.6c-10.9,8.1-23.8,13.9-38.4,17.5
			c-14.6,3.5-30.1,5.3-46.4,5.2l-67.2-0.4l1.1-203.1l73.2,0.4c15.1,0.1,29.6,2.3,43.3,6.8C2597.8,636.1,2610,642.6,2620.5,651.2"/>
		<path id="path30" class="st0" d="M2800.9,745.1l0.2-41.3l36.5,0.2l0.2-33c-4.2-2.3-9.8-4.6-16.9-6.8c-7.1-2.2-15.5-3.4-25.3-3.4
			c-9.6,0-18.3,1.5-26,4.7c-7.8,3.2-14.4,7.7-20,13.5c-5.6,5.8-9.9,12.7-12.9,20.6c-3,7.9-4.5,16.6-4.6,26.2
			c-0.1,9.4,1.4,18.1,4.3,26.1c2.9,8.1,7.2,15,12.7,20.9c5.6,5.9,12.2,10.4,19.9,13.7c7.7,3.3,16.4,5,26,5
			c11.5,0.1,21.1-1.5,28.7-4.7c7.7-3.2,14.6-8,20.8-14.3l31.4,34.6c-10.4,9.5-22.4,16.2-36.1,20.1c-13.7,3.9-28.7,5.7-45,5.6
			c-15.9-0.1-30.5-2.6-43.9-7.7c-13.4-5-25-12.2-34.6-21.5c-9.7-9.3-17.3-20.6-22.7-33.8c-5.4-13.2-8-28-7.9-44.2
			c0.1-16.3,2.9-31,8.4-44.2c5.5-13.2,13.2-24.4,23-33.6c9.8-9.2,21.4-16.3,34.8-21.2c13.4-4.9,28.1-7.3,44-7.2
			c14.9,0.1,29.6,1.7,43.9,4.8c14.3,3.1,28.1,8.2,41.3,15.1l-0.6,106.2L2800.9,745.1"/>
		<path id="path32" class="st0" d="M3056.4,629.8l-0.2,41.3l-98.5-0.5l-0.2,41.3l88.2,0.5l-0.2,41.3l-88.2-0.5l-0.2,37.9l93.3,0.5
			l-0.2,41.3l-138.1-0.7l1.1-203.1L3056.4,629.8"/>
		<path id="path34" class="st0" d="M3161.7,794.8c4.1,0,8.1-0.2,12.4-0.8c4.2-0.5,7.9-1.6,11.2-3.3c3.3-1.6,6-3.9,8.1-7
			c2.1-3,3.2-7.1,3.2-12.3c0-5.5-1.2-9.8-3.5-12.9c-2.4-3.1-5.4-5.3-9-6.8c-3.6-1.5-7.7-2.3-12.2-2.7c-4.5-0.3-8.8-0.5-12.8-0.5
			l-26.4-0.1l-0.2,46.2L3161.7,794.8z M3133.3,629.4l-0.4,81.2l22.1,0.1l42.9-81l53.7,0.3l-52.1,85.5c14.4,2.8,25.2,9.2,32.6,19.2
			c7.4,10.1,11.1,22.3,11,36.7c-0.1,11.8-2.2,21.7-6.3,29.6c-4.2,7.9-9.7,14.2-16.8,18.9c-7,4.6-15.2,7.9-24.5,9.9
			c-9.3,2-19.1,2.9-29.4,2.9l-78.7-0.4l1.1-203.1L3133.3,629.4"/>
		<path id="path36" class="st1" d="M1141.9,478.7h261.9v-53h-205.4V295h191.3v-53h-191.3V62h-56.5V478.7"/>
		<path id="path38" class="st1" d="M1676.3,214.4l-77.7,191.3h-1.2l-78.9-191.3L1676.3,214.4z M1575.1,478.7h51.2L1804.6,62h-65.9
			l-41.8,103h-198.3l-41.2-103h-65.9L1575.1,478.7"/>
		<path id="path40" class="st1" d="M1891.7,111.4h83c34.1,0,90,11.8,90,70.6c0,49.4-34.7,74.2-89.5,74.2h-83.6L1891.7,111.4z
			 M1891.7,305.6h77.1c43,0,77.7,17.1,77.7,62.4c0,33-20.6,61.2-65.9,61.2h-88.9V305.6z M1835.2,478.7H1980
			c72.4,0,126.5-33.5,126.5-104.2c0-47.7-29.4-77.7-71.8-91.8v-1.2c50-3.5,90-47.7,90-103.6c0-74.7-65.3-115.9-146.5-115.9h-143
			V478.7"/>
		<path id="path42" class="st1" d="M2250.8,295h74.1c44.7,0,89.5,10.6,89.5,67.1c0,56.5-44.7,67.1-89.5,67.1h-74.1V295z
			 M2194.3,478.7h146.6c106.5,0,133.6-64.2,133.6-116.5c0-53-39.4-103-102.4-110.1L2490.3,62h-70.6l-105.9,183.6h-63V62h-56.5V478.7
			"/>
		<path id="path44" class="st1" d="M2553.9,478.7h56.5V62h-56.5V478.7"/>
		<path id="path46" class="st1" d="M2984.1,388.6c-23.5,30.6-62.4,47.7-100.6,47.7c-93.6,0-155.4-74.7-155.4-169.5
			c0-87.7,58.3-162.4,155.4-162.4c47.7,0,84.2,21.2,108.9,55.9l47.7-35.9c-12.4-17.1-62.4-73-157.7-73
			c-132.4,0-214.2,110.6-214.2,215.4c0,129.5,88.9,222.5,217.2,222.5c54.7,0,112.4-20.6,146-64.7L2984.1,388.6"/>
		<path id="path48" class="st1" d="M145.7,237.9c-4-8.3-14-11.9-22.3-7.9L9.5,284.3c-8.3,4-11.9,14-7.9,22.3l19.8,41.4
			c4,8.3,14,11.9,22.3,7.9l113.8-54.3c8.3-4,11.9-14,7.9-22.3L145.7,237.9z M514.6,61.8c-4-8.3-14-11.9-22.3-7.9L306,142.8
			c-8.3,4-11.9,14-7.9,22.3l19.8,41.4c4,8.3,14,11.9,22.4,7.9l186.2-88.9c8.3-4,11.9-14,7.9-22.4L514.6,61.8"/>
		<path id="path50" class="st1" d="M594.2,703.2c-4-8.3-14-11.9-22.3-7.9l-185.2,88.4c-8.3,4-11.9,14-7.9,22.3l19.8,41.5
			c4,8.3,14,11.9,22.3,7.9L606.1,767c8.3-4,11.9-14,7.9-22.3L594.2,703.2z M890.9,561.6c-4-8.3-14-11.9-22.3-7.9l-114,54.4
			c-8.3,4-11.9,14-7.9,22.3l19.8,41.4c4,8.3,14,11.9,22.4,7.9l114-54.4c8.3-4,11.9-14,7.9-22.4L890.9,561.6"/>
		<path id="path52" class="st1" d="M321.7,606.8c-4-8.3-14-11.9-22.3-7.9l-113.8,54.3c-8.3,4-11.9,14-7.9,22.4l19.8,41.4
			c4,8.3,14,11.9,22.3,7.9l113.8-54.3c8.3-4,11.9-14,7.9-22.4L321.7,606.8"/>
		<path id="path54" class="st1" d="M690.6,430.7c-4-8.3-14-11.9-22.4-7.9l-186.2,88.9c-8.3,4-11.9,14-7.9,22.4l19.8,41.5
			c4,8.3,14,11.9,22.3,7.9l186.2-88.9c8.3-4,11.9-14,7.9-22.3L690.6,430.7"/>
		<path id="path56" class="st1" d="M715.1,192.6c-4-8.3-14-11.9-22.3-7.9l-114.3,54.5c-8.3,4-11.9,14-7.9,22.3l19.8,41.5
			c4,8.3,14,11.9,22.3,7.9L727,256.4c8.3-4,11.9-14,7.9-22.3L715.1,192.6"/>
		<path id="path58" class="st1" d="M418.2,334.3c-4-8.3-14-11.9-22.3-7.9L210.1,415c-8.3,4-11.9,14-7.9,22.3l19.8,41.5
			c4,8.3,14,11.9,22.3,7.9l185.8-88.6c8.3-4,11.9-14,7.9-22.3L418.2,334.3"/>
		<path id="path60" class="st2" d="M126.8,384.5c-4-8.3-14-11.9-22.3-7.9L63,396.3c-8.3,4-11.9,14-7.9,22.4l88.9,186.2
			c4,8.3,14,11.9,22.4,7.9l41.5-19.8c8.3-4,11.9-14,7.9-22.3L126.8,384.5"/>
		<path id="path62" class="st2" d="M302.8,753.4c-4-8.3-14-11.9-22.4-7.9L239,765.2c-8.3,4-11.9,14-7.9,22.3l53.8,112.7
			c4,8.3,14,11.9,22.3,7.9l41.5-19.8c8.3-4,11.9-14,7.9-22.4L302.8,753.4"/>
		<path id="path64" class="st2" d="M627.2,9.5c-4-8.3-14-11.9-22.3-7.9l-41.5,19.8c-8.3,4-11.9,14-7.9,22.3l53.8,112.7
			c4,8.3,14,11.9,22.3,7.9l41.5-19.8c8.3-4,11.9-14,7.9-22.3L627.2,9.5"/>
		<path id="path66" class="st2" d="M768.2,304.9c-4-8.3-14-11.9-22.3-7.9l-41.5,19.8c-8.3,4-11.9,14-7.9,22.4l88.9,186.2
			c4,8.3,14,11.9,22.3,7.9l41.5-19.8c8.3-4,11.9-14,7.9-22.3L768.2,304.9"/>
		<path id="path68" class="st2" d="M671.7,577.3c-4-8.3-14-11.9-22.3-7.9l-41.5,19.8c-8.3,4-11.9,14-7.9,22.3l53.8,112.7
			c4,8.3,14,11.9,22.3,7.9l41.5-19.8c8.3-4,11.9-14,7.9-22.3L671.7,577.3"/>
		<path id="path70" class="st2" d="M495.7,208.4c-4-8.3-14-11.9-22.4-7.9l-41.5,19.8c-8.3,4-11.9,14-7.9,22.3l88.9,186.2
			c4,8.3,14,11.9,22.3,7.9l41.5-19.8c8.3-4,11.9-14,7.9-22.3L495.7,208.4"/>
		<path id="path72" class="st2" d="M258.4,185.6c-4-8.3-14-11.9-22.3-7.9l-41.5,19.8c-8.3,4-11.9,14-7.9,22.3l53.8,112.7
			c4,8.3,14,11.9,22.3,7.9l41.5-19.8c8.3-4,11.9-14,7.9-22.4L258.4,185.6"/>
		<path id="path74" class="st2" d="M399.3,480.9c-4-8.3-14-11.9-22.3-7.9l-41.5,19.8c-8.3,4-11.9,14-7.9,22.3l88.9,186.2
			c4,8.3,14,11.9,22.4,7.9l41.5-19.8c8.3-4,11.9-14,7.9-22.4L399.3,480.9"/>
	</g>
</g>
</svg>
