<svg xmlns="http://www.w3.org/2000/svg" viewBox="0 0 626.33 331.78"><defs><style>.cls-1{fill:#155ddd;}</style></defs><title>ibm-blockchain-logo</title><g id="Layer_2" data-name="Layer 2"><g id="design"><path class="cls-1" d="M236.94,155.83h-16.5V29.06h16.5Z"/><path class="cls-1" d="M389.42,28.94H405.9V155.71H389.42Z"/><path class="cls-1" d="M376.43,0V16.58H250V0Z"/><path class="cls-1" d="M250,168.91H376.44v16.63H250Z"/><path d="M98.54,267.13c3.13,0,6.07-.12,9,.08a3.32,3.32,0,0,1,2,1.72c5.32,9.91,10.55,19.86,15.82,29.8.43.8.88,1.59,1.46,2.65l11.74-22c1.89-3.56,3.7-7.16,5.71-10.65a3.53,3.53,0,0,1,2.43-1.51c2.74-.19,5.5-.07,8.41-.07v63.29h-7.39V278.05l-.44-.08-20.48,37.94L106.16,277.5v53H98.54Z"/><path d="M195.38,330.61V267.26c.85-.05,1.66-.14,2.46-.14,8.22,0,16.45,0,24.67,0a16.22,16.22,0,0,1,14.41,24c-1.73,3.33-4.56,5.2-8.13,6.31a15.06,15.06,0,0,1,9,5.54,15.5,15.5,0,0,1,3,10.18c-.33,8.7-5.32,15.32-12.91,17.17a6.44,6.44,0,0,1-1.48.27C216.14,330.62,205.91,330.61,195.38,330.61Zm8-6.56h16.08c10.44,0,14-4,12.68-14.35-.56-4.52-2.86-7.46-7.48-7.8-6.92-.51-13.9-.3-20.85-.39-.12,0-.25.19-.44.35Zm0-29.56c6.64,0,13.15.28,19.63-.11,4-.24,6.5-2.76,6.77-6.29.34-4.57,1.5-9.57-3.36-12.81a6.56,6.56,0,0,0-3-1.12c-3.67-.26-7.34-.37-11-.45-3-.07-6,0-9,0Z"/><path d="M39.28,267.16c9.78,0,19.35-.26,28.91.1a13.58,13.58,0,0,1,12.49,8.43c2.47,5.67,2.81,11.58-1,16.79-1.6,2.22-4.42,3.57-6.59,5.24a13.57,13.57,0,0,1,8.55,5.38c3.89,5.45,3.86,14.09-.21,20.21a15.28,15.28,0,0,1-13.53,7.32c-9.48-.06-19,0-28.66,0Zm8,34.64v22.27h16c10.39,0,13.93-4,12.66-14.35-.55-4.51-2.89-7.53-7.44-7.81C61.53,301.48,54.49,301.8,47.27,301.8Zm-.06-7.12c6.41,0,12.7.36,18.92-.11,5.41-.4,7.67-3.51,7.72-9,0-1.34.05-2.69,0-4-.23-3.89-2.49-6.83-6.35-7.34A106.75,106.75,0,0,0,56,273.7c-2.9-.07-5.8,0-8.75,0Z"/><path d="M467.08,263.67h7.18v26.62l.46.17c.6-.83,1.23-1.64,1.78-2.51,4.93-7.76,20.57-7.2,24.87,2.19a25.12,25.12,0,0,1,2.3,9.42c.3,9.81.13,19.64.12,29.46a10.39,10.39,0,0,1-.23,1.52h-7.4c0-1,0-1.9,0-2.8,0-8.31,0-16.62,0-24.93a27.6,27.6,0,0,0-.58-6c-1.22-5.27-5.46-8.08-10.91-7.45-7.07.82-10.21,3.86-10.22,10,0,9.4,0,18.81,0,28.21,0,.91,0,1.82,0,2.9h-7.37Z"/><path d="M375.13,263.67h7.22V305.8c1-.89,1.5-1.31,2-1.81,5.52-6,11.07-11.93,16.5-18,1.46-1.63,2.93-2.51,5.17-2.28,1.8.19,3.63,0,6.09,0L394.78,302.3l19,28.28c-3.13,0-5.91.1-8.67-.08-.58,0-1.18-1.07-1.62-1.75-4.69-7.15-9.34-14.32-14-21.55-2.19,2.14-4.35,4.12-6.31,6.27a4.21,4.21,0,0,0-.58,2.57c-.05,4.76,0,9.53,0,14.45h-7.38Z"/><path d="M543.77,303.91a58.75,58.75,0,0,0,0-6.22c-.53-4.75-2.91-7.09-7.64-8-5.74-1.11-10.42.51-14,5.21-.29.39-.64.74-1.12,1.3l-4.44-4.15a16.4,16.4,0,0,1,10.56-8.61,24.56,24.56,0,0,1,14.14.36c6.09,2,9.84,6.62,10,13.05.26,8,.13,16.11.17,24.17,0,.91,0,1.81,0,2.94h5.12v6.33c-7,1.47-9.5.06-12.52-7.17-1.92,4.52-5.13,7.38-9.84,8.21a19.48,19.48,0,0,1-12.06-1.23c-5.59-2.68-7.73-7.4-7.48-13.38.23-5.47,3-9.26,8.1-11a37.68,37.68,0,0,1,9.32-1.74C535.93,303.69,539.79,303.91,543.77,303.91Zm.09,5.33c-5.23.27-10.17.28-15,.85-4.35.51-6.23,3-6.22,7.11,0,4.41,1.82,6.52,6.18,7.5a15.91,15.91,0,0,0,10.29-1.26c2.74-1.25,4.68-3.3,4.79-6.53C543.93,314.55,543.87,312.21,543.87,309.24Z"/><path d="M317.65,307.38a28.08,28.08,0,0,1-4.14,15.34c-7.86,12.49-28.35,12.15-35.19-1.51a30,30,0,0,1-.15-27.66c3.26-6.72,8.93-10.29,16.4-10.79,8.44-.57,15.09,2.54,19.5,9.89A27.64,27.64,0,0,1,317.65,307.38Zm-8-.49c-.14-2.07-.14-4.52-.51-6.91-1-6.56-5.82-10.54-12.61-10.65-6.61-.11-11.87,3.66-12.78,10.06a61.14,61.14,0,0,0-.23,14.53c.7,7,5.89,11.18,12.9,11.14s11.87-4.23,12.84-11.28C309.56,311.63,309.53,309.43,309.66,306.89Z"/><path d="M597.06,283.86V290c2.65-3.14,5.09-6.06,9.18-6.87,10.62-2.1,18.32,3.16,19.68,13a61,61,0,0,1,.38,8c0,8.71,0,17.42,0,26.29h-7.53c0-.91,0-1.79,0-2.67,0-8.23,0-16.45,0-24.68a31.37,31.37,0,0,0-.49-5.76c-.9-4.63-3.36-7.14-8-7.8s-9,.15-11.87,4.24a10.28,10.28,0,0,0-1.32,5.48c-.13,9.4-.06,18.8-.06,28.2,0,1,0,2,0,3h-7.48V283.86Z"/><path d="M8.59,273.65H0v-6.44H25.44v6.43H16.88V324h8.55v6.52H0V324.1H8.59Z"/><path d="M359.69,316.88l5.16,3.45a17.68,17.68,0,0,1-15.73,11.3c-13.59.45-21.56-6.52-23-20.14-.66-6.2-.23-12.28,2.58-17.95,4.24-8.54,11.56-11.41,20.64-10.79,7.24.5,12.08,4.37,15.3,11.1L358.51,297a7.56,7.56,0,0,1-.65-.85q-4.4-8.15-13.35-6.52c-6,1.08-9.68,4.66-10.23,10.74a73.81,73.81,0,0,0,0,13.57c.48,5,3,9,8.15,10.44,5.55,1.56,10.67.69,14.68-3.86A43.37,43.37,0,0,0,359.69,316.88Z"/><path d="M451.63,316.83l5.14,3.47c-2,6.23-8.79,10.94-15.66,11.35-15.57.94-21.74-9.23-22.93-19.4-.69-5.91-.45-11.75,1.85-17.33,3-7.34,8.59-11.42,16.48-12.13,8.39-.76,15.23,1.78,19.36,9.65.19.36.32.76.6,1.42L450.34,297c-1.76-3.91-4.37-6.58-8.67-7.37-8.76-1.61-15.3,3.47-15.66,12.42-.13,3.35-.11,6.71,0,10.07.2,6.21,3.55,11,8.56,12.32,6.46,1.76,12.33-.35,15.83-5.72C450.76,318.21,451.11,317.65,451.63,316.83Z"/><path d="M253.78,263.7h7.58V324h6.74v6.39c-3.08,0-6.27.38-9.32-.1-3.21-.51-4.93-3.42-5-7.24-.06-4.11,0-8.22,0-12.33q0-22.14,0-44.29C253.78,265.57,253.78,264.75,253.78,263.7Z"/><path d="M574.15,330.53h-7.27V283.9h7.27Z"/><path d="M575.14,268.45c0,3.4-1.37,4.76-4.72,4.73-3.14,0-4.46-1.42-4.48-4.72s1.32-4.85,4.59-4.86S575.16,265,575.14,268.45Z"/></g></g></svg>