<svg xmlns="http://www.w3.org/2000/svg" viewBox="0 0 412 412"><defs><style>.cls-1{fill:#ed1c24;}.cls-2{fill:#fff;}</style></defs><title>oracle-blockchain-logo</title><g id="Layer_2" data-name="Layer 2"><g id="design"><rect class="cls-1" width="412" height="412"/><path class="cls-2" d="M182.52,176.38h22.65l-11.93-19.28-22,34.85h-10L188,150.18a6.36,6.36,0,0,1,10.38,0L225.15,192h-10l-4.67-7.78H187.54l-5-7.87Zm103.76,7.78V147.84h-8.47V187.7a4.12,4.12,0,0,0,1.21,2.94,4.25,4.25,0,0,0,3.11,1.3h38.65l5-7.78ZM146,177.67a14.87,14.87,0,0,0,0-29.75h-37.1V192h8.47V155.71h28a7.18,7.18,0,0,1,0,14.35H121.56l25.34,22h12.28l-16.95-14.44ZM56.8,191.94a22,22,0,0,1,0-44.1H82.39a22,22,0,0,1,0,44.1Zm25.08-7.78a14.27,14.27,0,1,0,0-28.53H57.4a14.27,14.27,0,1,0-.09,28.53Zm161,7.78a22,22,0,0,1,0-44.1h30.44l-5,7.78H243.4a14.27,14.27,0,0,0,0,28.53h30.52l-5,7.78Zm103.68-7.78a14.4,14.4,0,0,1-13.75-10.38H369l5-7.78H332.81a14.32,14.32,0,0,1,13.75-10.38h24.9l5-7.78H346a22,22,0,0,0,0,44.1h26.2l5-7.78Z"/><path class="cls-2" d="M36.75,218.91H56.4a13.86,13.86,0,0,1,9.22,2.94,9.61,9.61,0,0,1,3.5,7.74,10.3,10.3,0,0,1-4.14,8.7,10.93,10.93,0,0,1-2,1.25,15.37,15.37,0,0,1,3.86,2,10.34,10.34,0,0,1,4.38,8.85,11.93,11.93,0,0,1-4.27,9.75q-4.27,3.51-11.88,3.51H36.75Zm6.05,19H53.6q4.93,0,7.21-1.78t2.28-5.61a5.73,5.73,0,0,0-2.1-4.91q-2.1-1.57-6.6-1.57H42.8Zm0,20.5H55.12q5.2,0,7.62-2t2.42-6.33a6.25,6.25,0,0,0-2.52-5.52q-2.53-1.75-7.94-1.75H42.8Z"/><path class="cls-2" d="M77.52,218.91H83v44.71H77.52Z"/><path class="cls-2" d="M93,259.76q-4.18-4.74-4.18-12.44T93,234.85a15,15,0,0,1,21.92,0q4.17,4.74,4.17,12.47t-4.17,12.44a15,15,0,0,1-21.92,0Zm17.81-3.35q2.56-3.38,2.56-9.09t-2.56-9.11a8.65,8.65,0,0,0-13.73,0q-2.54,3.39-2.54,9.11t2.54,9.09a8.67,8.67,0,0,0,13.73,0Z"/><path class="cls-2" d="M150.94,251.91q-.85,6.15-4.35,9.37a13.19,13.19,0,0,1-9.31,3.22,12.75,12.75,0,0,1-10.34-4.65q-3.86-4.65-3.86-12.53t4-12.55a13.43,13.43,0,0,1,10.75-4.67q5.87,0,9.37,3.21a12.16,12.16,0,0,1,3.74,8.84h-5.26a7.45,7.45,0,0,0-8-7.33,7.52,7.52,0,0,0-6.49,3.33q-2.36,3.33-2.36,9.17,0,6.21,2.19,9.34a8.17,8.17,0,0,0,11.85,1.08,10.45,10.45,0,0,0,2.84-5.83Z"/><path class="cls-2" d="M156.41,218.91h5.48v25.78l13.74-13.61h7l-12.38,12.07,13.2,20.48H176.3l-10.12-16.53-4.29,4.18v12.35h-5.48Z"/><path class="cls-2" d="M211.5,251.91q-.85,6.15-4.35,9.37a13.19,13.19,0,0,1-9.31,3.22,12.75,12.75,0,0,1-10.34-4.65q-3.86-4.65-3.86-12.53t4-12.55a13.43,13.43,0,0,1,10.75-4.67q5.87,0,9.37,3.21a12.16,12.16,0,0,1,3.74,8.84h-5.26a7.45,7.45,0,0,0-8-7.33,7.53,7.53,0,0,0-6.49,3.33q-2.36,3.33-2.36,9.17,0,6.21,2.19,9.34a8.17,8.17,0,0,0,11.85,1.08,10.45,10.45,0,0,0,2.84-5.83Z"/><path class="cls-2" d="M216.92,218.91h5.47v16.58l.94-1.22a11.24,11.24,0,0,1,8.91-4.17q5.38,0,8.3,2.92t2.92,8.3v22.3H238V242.7q0-4-1.55-5.83t-5-1.78a8,8,0,0,0-6.57,3,12.48,12.48,0,0,0-2.43,8.11v17.43h-5.47Z"/><path class="cls-2" d="M259.38,264.5a10.81,10.81,0,0,1-7.57-2.55A8.89,8.89,0,0,1,249,255a9.32,9.32,0,0,1,2.63-7q2.63-2.59,7.68-3.22l7.45-.94a11.42,11.42,0,0,0,1.73-.3,2.78,2.78,0,0,0,1.64-1.09,3.51,3.51,0,0,0,.58-2.07v-.27a4.82,4.82,0,0,0-2-4.09,9,9,0,0,0-5.51-1.48,8.07,8.07,0,0,0-5.28,1.57,6.9,6.9,0,0,0-2.3,4.67h-5q.39-5.35,3.77-8t9.67-2.69q5.93,0,9,2.57t3.1,7.5v17.89a1.79,1.79,0,0,0,.5,1.32,1.83,1.83,0,0,0,1.35.5,6.2,6.2,0,0,0,.71-.06q.47-.06,1-.18v4a10.69,10.69,0,0,1-1.67.49,7.55,7.55,0,0,1-1.49.18,5.5,5.5,0,0,1-4.5-1.7,7.15,7.15,0,0,1-1.31-3.19,11.72,11.72,0,0,1-1.4,1.46A14.5,14.5,0,0,1,259.38,264.5Zm11.35-13.78V247.2a11.69,11.69,0,0,1-3.38,1l-5,.73a13.45,13.45,0,0,0-5.78,1.84,4.09,4.09,0,0,0-1.82,3.51,5.66,5.66,0,0,0,1.49,4.21,5.75,5.75,0,0,0,4.23,1.47,11.45,11.45,0,0,0,7.3-2.34,7.93,7.93,0,0,0,2.71-3.71,6.14,6.14,0,0,0,.18-1.25A19.1,19.1,0,0,0,270.73,250.73Z"/><path class="cls-2" d="M284.57,218.91h5.6v6.21h-5.6Zm.06,12.17h5.48v32.55h-5.48Z"/><path class="cls-2" d="M297.61,231.08h5.2v4.81l1.22-1.61a11.24,11.24,0,0,1,8.91-4.17q5.38,0,8.3,2.92t2.92,8.3v22.3h-5.47V243.18q0-4.29-1.66-6.19t-5.37-1.9a7.5,7.5,0,0,0-6.27,3,12.94,12.94,0,0,0-2.31,8.11v17.43h-5.47Z"/></g></g></svg>